<?xml version="1.0" standalone="no"?>
<!DOCTYPE svg PUBLIC "-//W3C//DTD SVG 1.1//EN" "http://www.w3.org/Graphics/SVG/1.1/DTD/svg11.dtd" >
<svg xmlns="http://www.w3.org/2000/svg">
<metadata></metadata>
<defs>
<font id="geometriaregular" horiz-adv-x="637" >
<font-face units-per-em="1000" ascent="776" descent="-224" />
<missing-glyph horiz-adv-x="264" />
<glyph unicode="ij" horiz-adv-x="527" d="M168 0h-72v483h72v-483zM96 613q-14 15 -14 36t14 36q15 15 36 15t36 -15t15 -36t-15 -36q-15 -14 -36 -14t-36 14zM287 -204q-53 0 -85 18v66q32 -19 70 -19q85 0 85 97v525h72v-536q0 -75 -38 -113t-104 -38zM357 613q-14 15 -14 36t14 36q15 15 36 15t36 -15t15 -36 t-15 -36q-15 -14 -36 -14t-36 14z" />
<glyph unicode="ff" horiz-adv-x="699" d="M195 420v-420h-72v420h-96v63h96v81q0 67 36 105.5t102 38.5q61 0 102 -19v-66q-48 20 -84 20q-84 0 -84 -93v-67h236v81q0 67 36 105.5t102 38.5q61 0 102 -19v-66q-48 20 -84 20q-84 0 -84 -93v-67h168v-63h-168v-420h-72v420h-236z" />
<glyph unicode="fi" horiz-adv-x="601" d="M195 550v-67h308v-483h-72v420h-236v-420h-72v420h-96v63h96v81q0 67 36 105.5t102 38.5q61 0 102 -19v-66q-48 20 -84 20q-84 0 -84 -93zM431 613q-14 15 -14 36t14 36q15 15 36 15t36 -15t15 -36t-15 -36q-15 -14 -36 -14t-36 14z" />
<glyph unicode="fl" horiz-adv-x="638" d="M542 -12q-50 0 -80.5 29t-30.5 90v313h-236v-420h-72v420h-96v63h96v81q0 67 36 105.5t102 38.5q61 0 102 -19v-66q-48 20 -84 20q-84 0 -84 -93v-67h236v217h72v-576q0 -71 63 -71q25 0 47 13v-64q-26 -14 -71 -14z" />
<glyph unicode="ffi" horiz-adv-x="903" d="M195 420v-420h-72v420h-96v63h96v81q0 67 36 105.5t102 38.5q61 0 102 -19v-66q-48 20 -84 20q-84 0 -84 -93v-67h236v81q0 67 36 105.5t102 38.5q61 0 102 -19v-66q-48 20 -84 20q-84 0 -84 -93v-67h308v-483h-72v420h-236v-420h-72v420h-236zM811 612q-14 -14 -36 -14 t-36 14q-14 15 -14 37t14 36q14 15 36 15t36 -15q15 -14 15 -36t-15 -37z" />
<glyph unicode="ffl" horiz-adv-x="946" d="M195 420v-420h-72v420h-96v63h96v81q0 67 36 105.5t102 38.5q61 0 102 -19v-66q-48 20 -84 20q-84 0 -84 -93v-67h236v81q0 67 36 105.5t102 38.5q61 0 102 -19v-66q-48 20 -84 20q-84 0 -84 -93v-67h236v217h72v-576q0 -71 63 -71q25 0 47 13v-64q-26 -14 -71 -14 q-50 0 -80.5 29t-30.5 90v313h-236v-420h-72v420h-236z" />
<glyph unicode=" "  horiz-adv-x="264" />
<glyph unicode="&#x09;" horiz-adv-x="264" />
<glyph unicode="&#xa0;" horiz-adv-x="264" />
<glyph unicode="!" horiz-adv-x="285" d="M177 215h-67l-13 485h93zM106 9q-15 15 -15 37t15 37t37 15t37 -15t15 -37t-15 -37t-37 -15t-37 15z" />
<glyph unicode="&#x22;" horiz-adv-x="359" d="M119 447h-64v253h64v-253zM304 447h-64v253h64v-253z" />
<glyph unicode="#" horiz-adv-x="728" d="M211 0h-61l30 189h-145l10 61h144l32 199h-145l10 61h144l31 190h61l-30 -190h195l30 190h61l-30 -190h145l-10 -61h-144l-32 -199h145l-10 -61h-145l-30 -189h-61l30 189h-195zM282 449l-31 -199h195l31 199h-195z" />
<glyph unicode="$" horiz-adv-x="627" d="M343 -10v-103l-74 1v102q-138 9 -221 72v83q42 -36 109 -62q72 -26 145 -26q83 0 136 36t53 96q6 56 -58 95q-13 10 -42 20l-44 15q-3 1 -12 3.5t-19.5 6t-21.5 6.5q-62 18 -74 22q-32 11 -62 25q-33 16 -52 35q-44 46 -44 114q0 74 55 122.5t152 56.5v103h74v-103 q100 -9 179 -56v-76q-104 65 -216 65q-81 0 -125 -32t-44 -82q-6 -40 45 -79q8 -7 33 -16l34 -13l43 -12l42 -12q55 -17 69 -22q29 -10 61 -27q33 -17 54 -38q49 -45 49 -120q0 -87 -64 -139q-62 -52 -160 -61z" />
<glyph unicode="%" horiz-adv-x="826" d="M240 0h-63l410 700h63zM215 712q73 0 121 -49q48 -48 48 -119q0 -70 -48 -120q-48 -49 -121 -49q-72 0 -120 49q-47 50 -47 120t47 119q48 49 120 49zM324 544q0 48 -31 80.5t-78 32.5t-77.5 -32.5t-30.5 -80.5q0 -49 30 -81.5t78 -32.5t78.5 32.5t30.5 81.5zM610 325 q74 0 120 -49q48 -50 48 -120t-48 -120q-46 -48 -120 -48q-72 0 -120 48q-47 50 -47 120t47 120q48 49 120 49zM532 75q30 -32 78 -32t78 32q30 31 30 81t-31 81q-30 33 -77 33q-46 0 -78 -33q-30 -31 -30 -81t30 -81z" />
<glyph unicode="&#x26;" horiz-adv-x="713" d="M499 659v-75q-83 63 -165 63q-59 0 -94 -30t-35 -81q0 -28 12 -53q13 -25 24 -39q7 -9 35 -37l239 -233q54 82 60 201h72q-7 -145 -82 -250l128 -125h-96l-76 74q-92 -86 -222 -86q-107 0 -180 58q-72 58 -72 163q0 74 41 126q39 50 91 74q-48 56 -48 127q0 77 55 126 q56 50 138 50q101 0 175 -53zM303 53q98 0 169 68l-246 240q-44 -13 -74.5 -54.5t-30.5 -97.5q0 -71 50.5 -113.5t131.5 -42.5z" />
<glyph unicode="'" horiz-adv-x="174" d="M119 447h-64v253h64v-253z" />
<glyph unicode="(" horiz-adv-x="362" d="M320 -212h-77q-149 190 -149 456t149 456h77q-156 -202 -156 -456t156 -456z" />
<glyph unicode=")" horiz-adv-x="362" d="M119 -212h-77q156 202 156 456t-156 456h77q149 -190 149 -456t-149 -456z" />
<glyph unicode="*" horiz-adv-x="426" d="M241 341h-55l3 137l-117 -71l-28 47l120 67l-120 66l28 48l117 -72l-3 137h55l-3 -137l117 72l28 -48l-121 -66l121 -67l-28 -47l-117 71z" />
<glyph unicode="+" horiz-adv-x="619" d="M342 87h-65v205h-207v67h207v206h65v-206h207v-67h-207v-205z" />
<glyph unicode="," horiz-adv-x="236" d="M73 -152h-58l80 255h84z" />
<glyph unicode="-" horiz-adv-x="481" d="M381 238h-281v67h281v-67z" />
<glyph unicode="." horiz-adv-x="236" d="M81 9q-15 15 -15 37t15 37t37 15t37 -15t15 -37t-15 -37t-37 -15t-37 15z" />
<glyph unicode="/" horiz-adv-x="511" d="M80 -140h-75l421 932h75z" />
<glyph unicode="0" horiz-adv-x="708" d="M67 350q0 154 79 257q80 105 208 105q127 0 207 -104q79 -103 79 -258t-79 -258q-80 -104 -207 -104q-128 0 -208 104q-79 103 -79 258zM567 350q0 125 -60 209t-153 84t-153 -84t-60 -209t59 -210q60 -83 154 -83t153 83q60 84 60 210z" />
<glyph unicode="1" horiz-adv-x="373" d="M264 0h-73v620l-157 -90v71l165 99h65v-700z" />
<glyph unicode="2" horiz-adv-x="575" d="M521 0h-477v55l236 225q78 74 109 119q32 47 32 105q0 62 -44 100.5t-115 38.5q-111 0 -202 -94v83q89 80 209 80q97 0 161 -55q65 -56 65 -144q0 -70 -35 -128q-35 -57 -120 -137l-188 -181h369v-67z" />
<glyph unicode="3" horiz-adv-x="571" d="M245 -12q-123 0 -204 51v77q85 -59 200 -59q79 0 138 44q59 45 59 121q0 72 -51.5 115.5t-138.5 43.5q-42 0 -78 -10v51l216 211h-316v67h416v-55l-209 -205q92 -2 163 -62q72 -60 72 -156q0 -104 -77 -169t-190 -65z" />
<glyph unicode="4" horiz-adv-x="633" d="M484 0h-72v193h-376v59l377 448h71v-440h116v-67h-116v-193zM412 602l-290 -342h290v342z" />
<glyph unicode="5" horiz-adv-x="597" d="M255 -12q-114 0 -193 46v74q82 -51 191 -51q89 0 147 46t58 118q0 71 -54.5 115.5t-144.5 44.5q-86 0 -168 -29l46 348h346v-67h-290l-28 -202q48 13 111 13q110 0 183 -63q73 -61 73 -160q0 -104 -79 -168q-80 -65 -198 -65z" />
<glyph unicode="6" horiz-adv-x="641" d="M336 -12q-123 0 -194 86q-71 88 -71 242q-3 168 81 282.5t223 113.5q87 0 148 -43v-71q-66 45 -142 45q-79 0 -134 -45t-78.5 -110t-25.5 -144q28 48 81.5 76t123.5 28q96 0 160 -63q66 -61 66 -160q0 -103 -69 -170q-67 -67 -169 -67zM332 57q71 0 120 47q49 48 49 121 q0 72 -49 115t-122 43q-62 0 -114 -39q-51 -38 -71 -97q9 -91 57.5 -140.5t129.5 -49.5z" />
<glyph unicode="7" horiz-adv-x="553" d="M180 0h-78l320 633h-377v67h462v-55z" />
<glyph unicode="8" horiz-adv-x="645" d="M438 369q70 -18 110 -65t40 -113q0 -93 -76 -148t-190 -55t-190 55t-76 148q0 66 40.5 113t110.5 65q-54 22 -85 63.5t-31 96.5q0 81 66 132t165 51q100 0 166 -51t66 -132q0 -55 -31 -96.5t-85 -63.5zM161 523q0 -56 46 -90t115 -34q70 0 116 35t46 89q0 56 -47 91 t-115 35t-115 -35q-46 -34 -46 -91zM322 51q81 0 137 41q56 42 56 103q0 63 -55 102q-56 39 -138 39t-137 -39t-55 -102q0 -61 55 -103q56 -41 137 -41z" />
<glyph unicode="9" horiz-adv-x="641" d="M309 712q123 0 194 -87q71 -86 71 -241q3 -168 -81 -282.5t-223 -113.5q-87 0 -148 43v71q66 -45 142 -45q79 0 134 45t78.5 110t25.5 144q-28 -48 -81.5 -76t-123.5 -28q-94 0 -161 62q-65 63 -65 161q0 102 68 170q68 67 170 67zM313 643q-71 0 -121 -48 q-48 -47 -48 -120q0 -72 49 -115t122 -43q61 0 114 39q51 38 71 97q-9 91 -57.5 140.5t-129.5 49.5z" />
<glyph unicode=":" horiz-adv-x="236" d="M81 381q-15 15 -15 37t15 37t37 15t37 -15t15 -37t-15 -37t-37 -15t-37 15zM81 9q-15 15 -15 37t15 37t37 15t37 -15t15 -37t-15 -37t-37 -15t-37 15z" />
<glyph unicode=";" horiz-adv-x="242" d="M73 -152h-58l80 255h84zM96 381q-15 15 -15 37t15 37t37 15t37 -15t15 -37t-15 -37t-37 -15t-37 15z" />
<glyph unicode="&#x3c;" horiz-adv-x="619" d="M549 157v-72l-479 204v68l479 205v-72l-401 -167z" />
<glyph unicode="=" horiz-adv-x="619" d="M549 406h-479v66h479v-66zM549 178h-479v66h479v-66z" />
<glyph unicode="&#x3e;" horiz-adv-x="619" d="M549 289l-479 -204v72l401 166l-401 167v72l479 -205v-68z" />
<glyph unicode="?" horiz-adv-x="476" d="M245 215h-70v145q70 13 125 56q55 42 55 100q0 57 -42.5 92t-109.5 35q-87 0 -172 -59v68q76 56 183 56q91 0 152 -52q63 -53 63 -137q0 -72 -53 -122q-52 -49 -131 -75v-107zM175 9q-15 15 -15 37t15 37t37 15t37 -15t15 -37t-15 -37t-37 -15t-37 15z" />
<glyph unicode="@" horiz-adv-x="962" d="M482 -162q-180 0 -306 126q-126 125 -126 311q0 185 126 311t306 126q182 0 307 -119q124 -118 124 -292q0 -103 -47 -171q-46 -66 -124 -66q-92 0 -124 78q-24 -34 -66.5 -57t-93.5 -23q-87 0 -143 62t-56 150t56 150t142 62q93 0 151 -72v57h70v-271q0 -51 21 -77.5 t58 -26.5q55 0 91 57t36 149q0 158 -112 270q-111 113 -290 113q-172 0 -288 -120q-115 -118 -115 -290q0 -173 114 -291q116 -119 289 -119q113 0 208 52v-30q-92 -49 -208 -49zM476 125q40 0 76.5 22t55.5 57v140q-19 35 -55.5 57t-76.5 22q-62 0 -104 -43 q-41 -44 -41 -106t41 -106q42 -43 104 -43z" />
<glyph unicode="A" horiz-adv-x="753" d="M107 0h-77l312 704h69l313 -704h-78l-87 193h-367zM376 611l-159 -353h318z" />
<glyph unicode="B" horiz-adv-x="726" d="M433 0h-334v700h303q93 0 147 -45.5t54 -124.5q0 -54 -24.5 -93t-67.5 -55q70 -11 111 -61t41 -126q0 -89 -62 -142t-168 -53zM173 339v-272h247q78 0 121 36t43 101q0 64 -43 99.5t-121 35.5h-247zM173 633v-229h217q67 0 103.5 29t36.5 84q0 56 -36.5 86t-103.5 30 h-217z" />
<glyph unicode="C" horiz-adv-x="690" d="M429 -12q-153 0 -257 102q-102 102 -102 260q0 157 102 259q103 103 257 103q114 0 196 -52v-76q-92 59 -195 59q-120 0 -203 -84q-82 -82 -82 -209q0 -128 82 -210q83 -83 205 -83t208 70v-77q-86 -62 -211 -62z" />
<glyph unicode="D" horiz-adv-x="778" d="M328 0h-229v700h229q170 0 274 -97q105 -98 105 -253q0 -156 -105 -253q-104 -97 -274 -97zM173 633v-566h146q144 0 229 77q84 76 84 206t-84 206q-85 77 -229 77h-146z" />
<glyph unicode="E" horiz-adv-x="640" d="M594 0h-495v700h480v-67h-406v-224h333v-67h-333v-275h421v-67z" />
<glyph unicode="F" horiz-adv-x="622" d="M173 0h-74v700h477v-67h-403v-233h327v-67h-327v-333z" />
<glyph unicode="G" horiz-adv-x="780" d="M427 -12q-151 0 -255 102q-102 102 -102 260q0 157 102 259q103 103 257 103q133 0 222 -67v-75q-97 73 -218 73q-123 0 -206 -83q-82 -82 -82 -211q0 -127 81 -210q82 -82 201 -82q126 0 199 73v272h73v-301q-46 -52 -117.5 -82.5t-154.5 -30.5z" />
<glyph unicode="H" horiz-adv-x="761" d="M173 0h-74v700h74v-291h416v291h74v-700h-74v342h-416v-342z" />
<glyph unicode="I" horiz-adv-x="281" d="M178 0h-74v700h74v-700z" />
<glyph unicode="J" horiz-adv-x="507" d="M196 -12q-98 0 -160 45v77q59 -53 147 -53q161 0 161 169v474h74v-487q0 -112 -58 -168.5t-164 -56.5z" />
<glyph unicode="K" horiz-adv-x="661" d="M99 700h74v-304l324 304h98l-344 -320l397 -380h-104l-371 356v-356h-74v700z" />
<glyph unicode="L" horiz-adv-x="597" d="M564 0h-465v700h74v-633h391v-67z" />
<glyph unicode="M" horiz-adv-x="848" d="M172 0h-73v700h73l253 -339l253 339h72v-700h-73v588l-229 -306h-45l-231 306v-588z" />
<glyph unicode="N" horiz-adv-x="775" d="M171 0h-72v700h64l442 -572v572h72v-700h-63l-443 574v-574z" />
<glyph unicode="O" horiz-adv-x="845" d="M170 608q101 104 252 104q150 0 251 -104t101 -258q0 -155 -101 -259q-100 -103 -251 -103q-152 0 -252 103t-100 259q0 155 100 258zM225 141q79 -84 197 -84t197 84q80 85 80 209t-80 209q-79 84 -197 84t-197 -84q-80 -85 -80 -209t80 -209z" />
<glyph unicode="P" horiz-adv-x="665" d="M173 0h-74v700h294q104 0 164 -53t60 -141q0 -90 -60 -143.5t-164 -53.5h-220v-309zM173 633v-257h215q74 0 115 33.5t41 94.5q0 62 -40.5 95.5t-115.5 33.5h-215z" />
<glyph unicode="Q" horiz-adv-x="845" d="M774 350q0 -121 -65 -215q-64 -93 -172 -129q65 -64 130 -64q48 0 83 23v-72q-42 -20 -92 -20q-39 0 -77 19q-37 18 -63 39q-18 14 -64 58q-7 -1 -32 -1q-152 0 -252 103t-100 259q0 155 100 258q101 104 252 104q150 0 251 -104t101 -258zM225 141q79 -84 197 -84 t197 84q80 85 80 209t-80 209q-79 84 -197 84t-197 -84q-80 -85 -80 -209t80 -209z" />
<glyph unicode="R" horiz-adv-x="736" d="M173 0h-74v700h313q102 0 161.5 -51.5t59.5 -138.5q0 -75 -43.5 -125t-121.5 -63l226 -322h-87l-220 315h-214v-315zM173 633v-251h235q72 0 111.5 32.5t39.5 92.5t-40 93t-111 33h-235z" />
<glyph unicode="S" horiz-adv-x="628" d="M307 -12q-76 0 -145.5 20.5t-113.5 53.5v83q42 -36 109 -62q72 -26 145 -26q83 0 136 36t53 96q6 56 -58 95q-13 10 -42 20l-44 15q-3 1 -12 3.5t-19.5 6t-21.5 6.5q-62 18 -74 22q-32 11 -62 25q-33 16 -52 35q-44 46 -44 114q0 79 64 130t178 51q126 0 218 -58v-76 q-104 65 -216 65q-81 0 -125 -32t-44 -82q-6 -40 45 -79q8 -7 33 -16l34 -13l43 -12l42 -12q55 -17 69 -22q29 -10 61 -27q33 -17 54 -38q49 -45 49 -120q0 -94 -76 -148q-75 -54 -184 -54z" />
<glyph unicode="T" horiz-adv-x="630" d="M351 0h-74v633h-241v67h559v-67h-244v-633z" />
<glyph unicode="U" horiz-adv-x="748" d="M374 -12q-128 0 -207 81q-79 80 -79 229v402h74v-403q0 -113 56.5 -176.5t155.5 -63.5t155.5 63.5t56.5 176.5v403h74v-402q0 -147 -80 -229q-80 -81 -206 -81z" />
<glyph unicode="V" horiz-adv-x="754" d="M411 -4h-69l-308 704h81l262 -602l262 602h81z" />
<glyph unicode="W" horiz-adv-x="1053" d="M346 -4h-65l-242 704h82l195 -583l181 586h60l182 -586l194 583h80l-241 -704h-65l-180 578z" />
<glyph unicode="X" horiz-adv-x="708" d="M116 0h-87l281 380l-235 320h87l193 -260l194 260h85l-235 -319l281 -381h-88l-238 321z" />
<glyph unicode="Y" horiz-adv-x="664" d="M369 0h-74v321l-272 379h86l224 -310l224 310h84l-272 -378v-322z" />
<glyph unicode="Z" horiz-adv-x="642" d="M593 0h-544v53l429 580h-405v67h504v-52l-425 -581h441v-67z" />
<glyph unicode="[" horiz-adv-x="388" d="M348 -206h-253v912h253v-61h-183v-790h183v-61z" />
<glyph unicode="\" horiz-adv-x="510" d="M506 -140h-75l-421 932h75z" />
<glyph unicode="]" horiz-adv-x="389" d="M40 706h253v-912h-253v61h183v790h-183v61z" />
<glyph unicode="^" horiz-adv-x="517" d="M124 346h-70l170 371h69l170 -371h-69l-135 303z" />
<glyph unicode="_" horiz-adv-x="620" d="M612 -129h-604v56h604v-56z" />
<glyph unicode="`" horiz-adv-x="524" d="M352 576h-69l-118 134h91z" />
<glyph unicode="a" horiz-adv-x="594" d="M248 53q50 0 95 23t73 58v67q-74 48 -157 48q-66 0 -104.5 -26t-38.5 -71q0 -47 37 -73t95 -26zM228 -12q-77 0 -131 42q-53 44 -53 118q0 73 56 117q56 43 142 43q94 0 174 -47v48q0 121 -159 121q-85 0 -158 -49v70q71 44 173 44q99 0 157.5 -46.5t58.5 -132.5v-199 q0 -28 12.5 -44t33.5 -16q16 0 28 6v-56q-16 -11 -48 -11q-36 0 -60.5 19.5t-30.5 57.5q-73 -85 -195 -85z" />
<glyph unicode="b" horiz-adv-x="636" d="M85 0v700h72v-294q68 89 187 89q107 0 175 -74t68 -180q0 -105 -68 -179t-175 -74q-119 0 -187 89v-77h-72zM157 321v-159q22 -48 69 -78.5t101 -30.5q81 0 133 54q53 55 53 134t-53 134q-52 55 -133 55q-55 0 -102 -30.5t-68 -78.5z" />
<glyph unicode="c" horiz-adv-x="524" d="M307 -12q-111 0 -184 72q-73 73 -73 182q0 108 74 180q73 73 184 73q84 0 146 -35v-67q-65 37 -136 37q-84 0 -139 -54q-55 -52 -55 -135q0 -81 55 -135q56 -53 139 -53q80 0 145 42v-66q-68 -41 -156 -41z" />
<glyph unicode="d" d="M480 406v294h72v-700h-72v77q-68 -89 -187 -89q-107 0 -175 74t-68 179q0 106 68 180t175 74q119 0 187 -89zM480 162v159q-21 48 -68 78.5t-102 30.5q-81 0 -133 -55q-53 -55 -53 -134t53 -134q53 -54 133 -54q54 0 101 30.5t69 78.5z" />
<glyph unicode="e" horiz-adv-x="571" d="M316 -12q-113 0 -190 71q-76 70 -76 182q0 108 68 181q69 73 177 73q58 0 103 -23.5t71 -61.5t39 -80.5t13 -85.5v-20h-397q6 -78 62.5 -124.5t143.5 -46.5q84 0 155 45v-64q-59 -46 -169 -46zM125 283h323q-3 56 -42 101q-37 46 -114 46q-72 0 -118 -44 q-45 -45 -49 -103z" />
<glyph unicode="f" horiz-adv-x="391" d="M195 420v-420h-72v420h-96v63h96v81q0 67 36 105.5t102 38.5q61 0 102 -19v-66q-48 20 -84 20q-84 0 -84 -93v-67h168v-63h-168z" />
<glyph unicode="g" horiz-adv-x="636" d="M480 31v51q-65 -86 -187 -86q-107 0 -175 72q-68 74 -68 177t68 177q67 73 175 73q124 0 187 -86v74h72v-452q0 -114 -75 -174q-73 -61 -187 -61q-110 0 -187 44v70q82 -49 180 -49q90 0 143.5 43t53.5 127zM480 167v157q-20 47 -67 76.5t-103 29.5q-80 0 -133 -53 t-53 -132t53 -132q52 -52 133 -52q56 0 103 29.5t67 76.5z" />
<glyph unicode="h" horiz-adv-x="610" d="M157 326v-326h-72v700h72v-291q77 86 193 86q89 0 136.5 -52.5t47.5 -148.5v-294h-72v278q0 149 -137 149q-50 0 -97 -31q-48 -31 -71 -70z" />
<glyph unicode="i" horiz-adv-x="266" d="M168 0h-72v483h72v-483zM96 613q-14 15 -14 36t14 36q15 15 36 15t36 -15t15 -36t-15 -36q-15 -14 -36 -14t-36 14z" />
<glyph unicode="j" horiz-adv-x="266" d="M26 -204q-54 0 -85 18v66q32 -19 70 -19q85 0 85 97v525h72v-536q0 -75 -38 -113t-104 -38zM96 613q-14 15 -14 36t14 36q15 15 36 15t36 -15t15 -36t-15 -36q-15 -14 -36 -14t-36 14z" />
<glyph unicode="k" horiz-adv-x="541" d="M85 700h72v-416l230 199h98l-255 -218l291 -265h-103l-261 238v-238h-72v700z" />
<glyph unicode="l" horiz-adv-x="292" d="M196 -12q-50 0 -80.5 29t-30.5 90v593h72v-576q0 -71 63 -71q25 0 47 13v-64q-26 -14 -71 -14z" />
<glyph unicode="m" horiz-adv-x="919" d="M157 0h-72v483h72v-72q60 84 174 84q59 0 99.5 -25t55.5 -70q28 43 76.5 69t109.5 26q81 0 126 -50.5t45 -143.5v-301h-72v285q0 142 -120 142q-44 0 -87.5 -30.5t-65.5 -73.5q0 -10 0.5 -23t1 -20t0.5 -11v-269h-72v285q0 142 -120 142q-42 0 -86 -30q-42 -28 -65 -70 v-327z" />
<glyph unicode="n" horiz-adv-x="610" d="M157 326v-326h-72v483h72v-74q77 86 193 86q89 0 136.5 -52.5t47.5 -148.5v-294h-72v278q0 149 -137 149q-50 0 -97 -31q-48 -31 -71 -70z" />
<glyph unicode="o" horiz-adv-x="621" d="M123 420q73 75 188 75t188 -75q73 -73 73 -179t-73 -179q-74 -74 -188 -74t-188 74q-73 73 -73 179t73 179zM498 241q0 80 -53 135q-53 54 -134 54t-134 -54q-53 -55 -53 -135q0 -79 53 -134q53 -54 134 -54t134 54q53 55 53 134z" />
<glyph unicode="p" horiz-adv-x="636" d="M157 77v-277h-72v683h72v-77q68 89 187 89q107 0 175 -74t68 -179q0 -106 -68 -180t-175 -74q-119 0 -187 89zM157 321v-159q21 -48 68 -78.5t102 -30.5q81 0 133 54q53 56 53 135t-53 134q-52 54 -133 54q-54 0 -101 -30.5t-69 -78.5z" />
<glyph unicode="q" d="M552 483v-683h-72v277q-68 -89 -187 -89q-107 0 -175 74t-68 180q0 105 68 179t175 74q119 0 187 -89v77h72zM480 162v159q-22 48 -69 78.5t-101 30.5q-80 0 -133 -54q-53 -55 -53 -134t53 -135q53 -54 133 -54q55 0 102 30.5t68 78.5z" />
<glyph unicode="r" horiz-adv-x="369" d="M157 0h-72v483h72v-92q27 47 80 75.5t112 28.5v-73q-33 0 -60 -9q-46 -12 -81 -41.5t-51 -66.5v-305z" />
<glyph unicode="s" horiz-adv-x="509" d="M249 -12q-58 0 -113.5 14.5t-86.5 35.5v74q88 -59 198 -59q62 0 97.5 20.5t35.5 56.5q0 31 -34 51q-10 8 -51 18q-12 4 -33 8q-27 7 -33 8q-91 23 -130 54.5t-39 91.5q0 63 51 98.5t143 35.5q109 0 176 -43v-71q-82 49 -173 49q-61 0 -92.5 -19t-31.5 -52q0 -36 37 -54 q7 -2 17.5 -6.5t21.5 -7.5l22 -6q24 -8 48 -11q90 -22 132.5 -54t42.5 -91q0 -66 -58 -103q-58 -38 -147 -38z" />
<glyph unicode="t" horiz-adv-x="430" d="M277 -12q-67 0 -101.5 39.5t-34.5 109.5v283h-114v63h114v149h72v-149h169v-63h-169v-261q0 -58 19 -80q20 -23 65 -23q44 0 79 20v-66q-31 -22 -99 -22z" />
<glyph unicode="u" horiz-adv-x="611" d="M454 157v326h72v-483h-72v74q-77 -86 -193 -86q-89 0 -136.5 52.5t-47.5 148.5v294h72v-278q0 -149 137 -149q50 0 96 30q49 32 72 71z" />
<glyph unicode="v" horiz-adv-x="567" d="M316 -3h-66l-222 486h81l176 -389l175 389h78z" />
<glyph unicode="w" horiz-adv-x="819" d="M274 -3h-63l-173 486h74l135 -376l132 378h61l133 -378l134 376h73l-173 -486h-63l-136 379z" />
<glyph unicode="x" horiz-adv-x="554" d="M116 0h-83l203 255l-179 228h85l138 -172l138 172h84l-180 -226l203 -257h-85l-161 202z" />
<glyph unicode="y" horiz-adv-x="555" d="M112 -204q-52 0 -77 14v67q31 -16 66 -16q44 0 76 36.5t67 120.5l-215 465h80l171 -380l166 380h78l-239 -537q-65 -150 -173 -150z" />
<glyph unicode="z" horiz-adv-x="504" d="M465 0h-427v48l308 372h-287v63h390v-50l-307 -370h323v-63z" />
<glyph unicode="{" horiz-adv-x="363" d="M327 -206h-57q-65 0 -101.5 36.5t-36.5 102.5v152q0 54 -11 88q-13 42 -66 48v58q53 6 66 46q11 34 11 87v155q0 66 36.5 102.5t101.5 36.5h57v-61h-41q-84 0 -84 -86v-165q0 -61 -15.5 -95.5t-53.5 -48.5q38 -14 53.5 -48.5t15.5 -95.5v-165q0 -86 84 -86h41v-61z" />
<glyph unicode="|" horiz-adv-x="306" d="M184 -111h-62v871h62v-871z" />
<glyph unicode="}" horiz-adv-x="363" d="M93 -206h-57v61h41q84 0 84 86v165q0 61 15.5 95.5t53.5 48.5q-38 14 -53.5 48.5t-15.5 95.5v165q0 86 -84 86h-41v61h57q65 0 101.5 -36.5t36.5 -102.5v-155q0 -53 11 -87q13 -40 66 -46v-58q-53 -6 -66 -48q-11 -34 -11 -88v-152q0 -66 -36.5 -102.5t-101.5 -36.5z" />
<glyph unicode="~" horiz-adv-x="585" d="M409 200q-43 0 -117 25q-72 25 -116 25q-67 0 -106 -44v70q29 38 106 38q45 0 117 -25t116 -25q69 0 106 43v-69q-27 -38 -106 -38z" />
<glyph unicode="&#xa1;" horiz-adv-x="284" d="M108 269h67l13 -469h-93zM105 400q-15 15 -15 37t15 37t37 15t37 -15t15 -37t-15 -37t-37 -15t-37 15z" />
<glyph unicode="&#xa2;" horiz-adv-x="524" d="M275 493v107h63v-106q68 -6 116 -34v-67q-65 37 -136 37q-84 0 -139 -54q-55 -52 -55 -135q0 -81 55 -135q56 -53 139 -53q80 0 145 42v-66q-58 -34 -125 -40v-106h-63v107q-97 10 -162 81q-63 71 -63 171q0 98 63 169q64 72 162 82z" />
<glyph unicode="&#xa3;" horiz-adv-x="580" d="M530 0h-470v67h20q29 0 40.5 21.5t11.5 64.5v142h-72v67h72v124q0 107 60.5 166.5t168.5 59.5q96 0 163 -43v-73q-67 47 -153 47q-80 0 -122.5 -43t-42.5 -124v-114h274v-67h-274v-173q0 -38 -24 -55h348v-67z" />
<glyph unicode="&#xa4;" horiz-adv-x="563" d="M485 351q0 -71 -40 -124l65 -65l-41 -39l-66 64q-53 -42 -123 -42q-68 0 -123 42l-65 -64l-40 39l64 65q-40 53 -40 124t40 123l-64 65l40 40l65 -64q55 42 123 42q70 0 123 -42l66 64l41 -40l-66 -65q41 -53 41 -123zM178 248q42 -42 102 -42t102 42q42 44 42 103 q0 60 -42 102q-42 43 -102 43t-102 -43q-41 -43 -41 -102t41 -103z" />
<glyph unicode="&#xa5;" horiz-adv-x="629" d="M351 0h-74v141h-209v63h209v93h-209v63h184l-229 340h86l207 -312l207 312h83l-229 -340h184v-63h-210v-93h210v-63h-210v-141z" />
<glyph unicode="&#xa6;" horiz-adv-x="306" d="M184 -111h-62v353h62v-353zM184 407h-62v353h62v-353z" />
<glyph unicode="&#xa7;" horiz-adv-x="645" d="M469 114q80 -45 80 -118q0 -69 -61 -111t-167 -42q-117 0 -217 54v77q113 -62 221 -62q69 0 109 24t40 64q0 35 -42 61q-19 13 -66 27q-20 7 -41 13l-43 14q-114 35 -166.5 77t-52.5 108q0 49 30.5 85.5t83.5 55.5q-80 45 -80 118q0 69 61 111t167 42q116 0 217 -54v-77 q-113 62 -221 62q-69 0 -109.5 -24t-40.5 -64q-5 -30 42 -61q21 -13 66 -27l42 -14l43 -13q114 -38 166.5 -79t52.5 -106q0 -49 -30.5 -85.5t-83.5 -55.5zM274 187l48 -15l83 -27q49 10 79 37.5t30 65.5q0 44 -59 83q-10 8 -41 20q-31 13 -43 16l-47 16l-83 27 q-49 -10 -79 -37.5t-30 -65.5q0 -26 15 -44.5t44 -39.5q14 -9 40 -20z" />
<glyph unicode="&#xa8;" horiz-adv-x="524" d="M132 612q-14 14 -14 34t14 33q14 14 33 14t33 -14q14 -13 14 -33t-14 -34q-14 -13 -33 -13t-33 13zM332 612q-14 14 -14 34t14 33q14 14 33 14t33 -14q14 -13 14 -33t-14 -34q-14 -13 -33 -13t-33 13z" />
<glyph unicode="&#xa9;" horiz-adv-x="865" d="M431 15q139 0 237 98q97 97 97 237t-97 237q-96 98 -236 98q-138 0 -236 -99q-97 -97 -97 -237q0 -139 96 -237q97 -97 236 -97zM70 351q0 149 106 255t256 106q151 0 256 -106q106 -106 106 -257q0 -149 -106 -255t-257 -106t-256 106t-105 257zM455 155q-82 0 -140 56 q-57 57 -57 139t56 138q58 56 141 56q58 0 101 -25v-57q-46 29 -101 29q-58 0 -98 -40q-39 -41 -39 -101t39 -101q40 -40 100 -40q63 0 109 36v-58q-47 -32 -111 -32z" />
<glyph unicode="&#xaa;" horiz-adv-x="516" d="M347 429v51q-55 36 -120 36q-50 0 -79 -19.5t-29 -53.5q0 -36 28 -55.5t72 -19.5q37 0 72 17.5t56 43.5zM438 371q14 0 21 4v-44q-13 -8 -37 -8q-59 0 -70 59q-57 -65 -148 -65q-61 0 -101 33.5t-40 89.5t42.5 89t109.5 33q70 0 132 -35v36q0 91 -122 91q-65 0 -121 -37 v54q56 34 133 34q76 0 121 -35.5t45 -100.5v-153q0 -45 35 -45z" />
<glyph unicode="&#xab;" horiz-adv-x="550" d="M273 40h-75l-151 183v37l151 183h75l-164 -202zM504 40h-77l-151 183v37l151 183h77l-164 -202z" />
<glyph unicode="&#xac;" horiz-adv-x="568" d="M498 152h-66v171h-362v66h428v-237z" />
<glyph unicode="&#xad;" horiz-adv-x="481" d="M381 238h-281v67h281v-67z" />
<glyph unicode="&#xae;" horiz-adv-x="865" d="M351 168h-57v375h171q57 0 90.5 -29t33.5 -77q0 -39 -22 -66t-61 -36l119 -167h-65l-115 162h-94v-162zM351 494v-117h112q32 0 50 15t18 43q0 59 -68 59h-112zM431 15q139 0 237 98q97 97 97 237t-97 237q-96 98 -236 98q-138 0 -236 -99q-97 -97 -97 -237 q0 -139 96 -237q97 -97 236 -97zM70 351q0 149 106 255t256 106q151 0 256 -106q106 -106 106 -257q0 -149 -106 -255t-257 -106t-256 106t-105 257z" />
<glyph unicode="&#xaf;" horiz-adv-x="518" d="M384 618h-252v55h252v-55z" />
<glyph unicode="&#xb0;" horiz-adv-x="428" d="M115 560q0 -41 29 -70.5t70 -29.5t70 29.5t29 70.5q0 42 -29 71.5t-70 29.5t-70 -29.5t-29 -71.5zM106 667q46 45 108 45t107 -45q46 -45 46 -107t-46 -107q-46 -44 -107 -44t-108 44q-45 45 -45 107t45 107z" />
<glyph unicode="&#xb1;" horiz-adv-x="619" d="M342 194h-65v169h-207v66h207v172h65v-172h207v-66h-207v-169zM549 54h-479v65h479v-65z" />
<glyph unicode="&#xb2;" horiz-adv-x="359" d="M312 322h-268v46l121 110q40 36 55.5 59.5t15.5 49.5q0 27 -20 43.5t-53 16.5q-57 0 -109 -43v63q50 38 114 38q55 0 93 -31q39 -32 39 -80q0 -38 -19.5 -70.5t-64.5 -73.5l-78 -75h174v-53z" />
<glyph unicode="&#xb3;" horiz-adv-x="327" d="M142 317q-70 0 -116 29v58q56 -32 111 -32q39 0 65.5 20.5t26.5 53.5q0 31 -23 50t-64 19q-28 0 -50 -8v41l105 99h-157v53h238v-47l-101 -96q49 -4 82.5 -33.5t33.5 -79.5q0 -57 -44 -92t-107 -35z" />
<glyph unicode="&#xb4;" horiz-adv-x="496" d="M249 576h-70l96 134h92z" />
<glyph unicode="&#xb5;" horiz-adv-x="619" d="M462 157v326h72v-483h-72v74q-77 -86 -193 -86q-65 0 -112 30v-218h-72v683h72v-278q0 -149 137 -149q50 0 96 30q49 32 72 71z" />
<glyph unicode="&#xb6;" horiz-adv-x="525" d="M427 0h-74v316h-84q-103 0 -162 52.5t-59 139.5q0 88 59 140t162 52h158v-700z" />
<glyph unicode="&#xb7;" horiz-adv-x="236" d="M81 344q-15 15 -15 37t15 37t37 15t37 -15t15 -37t-15 -37t-37 -15t-37 15z" />
<glyph unicode="&#xb8;" horiz-adv-x="482" d="M225 -132h-87l97 138h61z" />
<glyph unicode="&#xb9;" horiz-adv-x="244" d="M190 322h-63v312l-104 -58v63l106 61h61v-378z" />
<glyph unicode="&#xba;" horiz-adv-x="466" d="M135 411q39 -40 98 -40t98 40q40 40 40 100q0 59 -40 99q-39 41 -98 41t-98 -40q-39 -41 -39 -100t39 -100zM33 511q0 81 56 137q55 57 144 57t144 -57q56 -56 56 -137q0 -82 -56 -138t-144 -56t-144 56t-56 138z" />
<glyph unicode="&#xbb;" horiz-adv-x="549" d="M276 443h75l151 -183v-37l-151 -183h-75l164 202zM45 443h77l151 -183v-37l-151 -183h-77l164 202z" />
<glyph unicode="&#xbc;" horiz-adv-x="745" d="M181 0h-69l413 700h68zM190 322h-63v312l-104 -58v63l106 61h61v-378zM664 0h-61v98h-197v45l196 235h62v-229h59v-51h-59v-98zM603 303l-130 -154h130v154z" />
<glyph unicode="&#xbd;" horiz-adv-x="802" d="M181 0h-69l413 700h68zM190 322h-63v312l-104 -58v63l106 61h61v-378zM755 0h-268v46l121 110q40 36 55.5 59.5t15.5 49.5q0 27 -20 43.5t-53 16.5q-57 0 -109 -43v63q50 38 114 38q55 0 93 -31q39 -32 39 -80q0 -38 -19.5 -70.5t-64.5 -73.5l-78 -75h174v-53z" />
<glyph unicode="&#xbe;" horiz-adv-x="794" d="M142 317q-70 0 -116 29v58q56 -32 111 -32q39 0 65.5 20.5t26.5 53.5q0 31 -23 50t-64 19q-28 0 -50 -8v41l105 99h-157v53h238v-47l-101 -96q49 -4 82.5 -33.5t33.5 -79.5q0 -57 -44 -92t-107 -35zM713 0h-61v98h-197v45l196 235h62v-229h59v-51h-59v-98zM652 303 l-130 -154h130v154zM231 0h-69l413 700h68z" />
<glyph unicode="&#xbf;" horiz-adv-x="476" d="M231 269h70v-132q-73 -15 -126 -55q-54 -39 -54 -97q0 -56 42 -89.5t110 -33.5q90 0 172 58v-68q-76 -56 -183 -56q-91 0 -153 52q-62 51 -62 135q0 69 50 118t134 75v93zM264 489q22 0 37 -15t15 -37t-15 -37t-37 -15q-21 0 -36 15t-15 37t15 37t36 15z" />
<glyph unicode="&#xc0;" horiz-adv-x="753" d="M107 0h-77l312 704h69l313 -704h-78l-87 193h-367zM376 611l-159 -353h318zM412 763h-70l-118 133h92z" />
<glyph unicode="&#xc1;" horiz-adv-x="753" d="M107 0h-77l312 704h69l313 -704h-78l-87 193h-367zM376 611l-159 -353h318zM414 763h-69l95 133h92z" />
<glyph unicode="&#xc2;" horiz-adv-x="753" d="M107 0h-77l312 704h69l313 -704h-78l-87 193h-367zM376 611l-159 -353h318zM300 763h-71l111 133h72l111 -133h-71l-76 92z" />
<glyph unicode="&#xc3;" horiz-adv-x="753" d="M107 0h-77l312 704h69l313 -704h-78l-87 193h-367zM376 611l-159 -353h318zM447 772q-28 0 -74 28q-47 29 -64 29q-36 0 -41 -53h-49q2 48 25.5 79t61.5 31q28 0 74 -28t64 -28q19 0 27 12t14 40h49q-1 -49 -24.5 -79.5t-62.5 -30.5z" />
<glyph unicode="&#xc4;" horiz-adv-x="753" d="M107 0h-77l312 704h69l313 -704h-78l-87 193h-367zM376 611l-159 -353h318zM244 794q-14 14 -14 34t14 33q14 14 33 14t33 -14q14 -13 14 -33t-14 -34q-14 -13 -33 -13t-33 13zM444 794q-14 14 -14 34t14 33q14 14 33 14t33 -14q14 -13 14 -33t-14 -34q-14 -13 -33 -13 t-33 13z" />
<glyph unicode="&#xc5;" horiz-adv-x="753" d="M107 0h-77l312 704h69l313 -704h-78l-87 193h-367zM376 611l-159 -353h318zM377 926q39 0 67 -28t28 -68t-28 -68t-67 -28q-40 0 -68.5 28t-28.5 68t28.5 68t68.5 28zM377 774q23 0 39 16.5t16 39.5q0 24 -16 40t-39 16q-24 0 -40.5 -16t-16.5 -40q0 -23 16.5 -39.5 t40.5 -16.5z" />
<glyph unicode="&#xc6;" horiz-adv-x="1029" d="M983 0h-490v193h-285l-118 -193h-82l429 700h532v-67h-402v-224h329v-67h-329v-275h416v-67zM493 633h-15l-231 -375h246v375z" />
<glyph unicode="&#xc7;" horiz-adv-x="690" d="M401 -132h-87l85 121q-143 11 -236 111t-93 250q0 157 102 259q103 103 257 103q114 0 196 -52v-76q-92 59 -195 59q-120 0 -203 -84q-81 -82 -81 -209q0 -128 82 -210q83 -83 204 -83q122 0 208 70v-77q-72 -52 -177 -60z" />
<glyph unicode="&#xc8;" horiz-adv-x="640" d="M594 0h-495v700h480v-67h-406v-224h333v-67h-333v-275h421v-67zM386 763h-70l-118 133h92z" />
<glyph unicode="&#xc9;" horiz-adv-x="640" d="M594 0h-495v700h480v-67h-406v-224h333v-67h-333v-275h421v-67zM348 763h-69l95 133h92z" />
<glyph unicode="&#xca;" horiz-adv-x="640" d="M269 763h-71l111 133h72l111 -133h-71l-76 92zM594 0h-495v700h480v-67h-406v-224h333v-67h-333v-275h421v-67z" />
<glyph unicode="&#xcb;" horiz-adv-x="640" d="M594 0h-495v700h480v-67h-406v-224h333v-67h-333v-275h421v-67zM208 794q-14 14 -14 34t14 33q14 14 33 14t33 -14q14 -13 14 -33t-14 -34q-14 -13 -33 -13t-33 13zM408 794q-14 14 -14 34t14 33q14 14 33 14t33 -14q14 -13 14 -33t-14 -34q-14 -13 -33 -13t-33 13z" />
<glyph unicode="&#xcc;" horiz-adv-x="281" d="M175 763h-70l-118 133h92zM178 0h-74v700h74v-700z" />
<glyph unicode="&#xcd;" horiz-adv-x="281" d="M178 0h-74v700h74v-700zM175 763h-69l95 133h92z" />
<glyph unicode="&#xce;" horiz-adv-x="281" d="M65 763h-71l111 133h72l111 -133h-71l-76 92zM178 0h-74v700h74v-700z" />
<glyph unicode="&#xcf;" horiz-adv-x="280" d="M176 0h-74v700h74v-700zM6 794q-13 14 -13 34t13 33q14 14 34 14t33 -14q14 -13 14 -33t-14 -34q-13 -13 -33 -13t-34 13zM206 794q-13 14 -13 34t13 33q14 14 34 14t33 -14q14 -13 14 -33t-14 -34q-13 -13 -33 -13t-34 13z" />
<glyph unicode="&#xd0;" horiz-adv-x="828" d="M378 0h-229v324h-111v67h111v309h229q170 0 274 -97q105 -98 105 -253q0 -156 -105 -253q-104 -97 -274 -97zM223 324v-257h146q144 0 229 77q84 76 84 206t-84 206q-85 77 -229 77h-146v-242h162v-67h-162z" />
<glyph unicode="&#xd1;" horiz-adv-x="775" d="M458 772q-28 0 -74 28q-47 29 -64 29q-36 0 -41 -53h-49q2 48 25.5 79t61.5 31q28 0 74 -28t64 -28q19 0 27 12t14 40h49q-1 -49 -24.5 -79.5t-62.5 -30.5zM171 0h-72v700h64l442 -572v572h72v-700h-63l-443 574v-574z" />
<glyph unicode="&#xd2;" horiz-adv-x="845" d="M170 608q101 104 252 104q150 0 251 -104t101 -258q0 -155 -101 -259q-100 -103 -251 -103q-152 0 -252 103t-100 259q0 155 100 258zM225 141q79 -84 197 -84t197 84q80 85 80 209t-80 209q-79 84 -197 84t-197 -84q-80 -85 -80 -209t80 -209zM457 763h-70l-118 133h92z " />
<glyph unicode="&#xd3;" horiz-adv-x="845" d="M170 608q101 104 252 104q150 0 251 -104t101 -258q0 -155 -101 -259q-100 -103 -251 -103q-152 0 -252 103t-100 259q0 155 100 258zM225 141q79 -84 197 -84t197 84q80 85 80 209t-80 209q-79 84 -197 84t-197 -84q-80 -85 -80 -209t80 -209zM440 763h-69l95 133h92z " />
<glyph unicode="&#xd4;" horiz-adv-x="845" d="M346 763h-71l111 133h72l111 -133h-71l-76 92zM170 608q101 104 252 104q150 0 251 -104t101 -258q0 -155 -101 -259q-100 -103 -251 -103q-152 0 -252 103t-100 259q0 155 100 258zM225 141q79 -84 197 -84t197 84q80 85 80 209t-80 209q-79 84 -197 84t-197 -84 q-80 -85 -80 -209t80 -209z" />
<glyph unicode="&#xd5;" horiz-adv-x="845" d="M170 608q101 104 252 104q150 0 251 -104t101 -258q0 -155 -101 -259q-100 -103 -251 -103q-152 0 -252 103t-100 259q0 155 100 258zM225 141q79 -84 197 -84t197 84q80 85 80 209t-80 209q-79 84 -197 84t-197 -84q-80 -85 -80 -209t80 -209zM493 772q-28 0 -74 28 q-47 29 -64 29q-36 0 -41 -53h-49q2 48 25.5 79t61.5 31q28 0 74 -28t64 -28q19 0 27 12t14 40h49q-1 -49 -24.5 -79.5t-62.5 -30.5z" />
<glyph unicode="&#xd6;" horiz-adv-x="845" d="M170 608q101 104 252 104q150 0 251 -104t101 -258q0 -155 -101 -259q-100 -103 -251 -103q-152 0 -252 103t-100 259q0 155 100 258zM225 141q79 -84 197 -84t197 84q80 85 80 209t-80 209q-79 84 -197 84t-197 -84q-80 -85 -80 -209t80 -209zM290 794q-14 14 -14 34 t14 33q14 14 33 14t33 -14q14 -13 14 -33t-14 -34q-14 -13 -33 -13t-33 13zM490 794q-14 14 -14 34t14 33q14 14 33 14t33 -14q14 -13 14 -33t-14 -34q-14 -13 -33 -13t-33 13z" />
<glyph unicode="&#xd7;" horiz-adv-x="544" d="M273 278l-157 -156l-46 46l157 157l-157 156l46 46l156 -156l157 156l45 -46l-156 -156l156 -156l-45 -47z" />
<glyph unicode="&#xd8;" horiz-adv-x="845" d="M422 712q117 0 208 -67l46 55h73l-76 -92q101 -104 101 -258q0 -155 -101 -259q-100 -103 -251 -103q-118 0 -209 66l-45 -54h-73l76 91q-101 104 -101 259t100 258q101 104 252 104zM145 350q0 -120 73 -202l366 441q-70 54 -162 54q-118 0 -197 -84q-80 -85 -80 -209z M422 57q118 0 197 84q80 85 80 209q0 119 -73 201l-366 -441q73 -53 162 -53z" />
<glyph unicode="&#xd9;" horiz-adv-x="748" d="M374 -12q-128 0 -207 81q-79 80 -79 229v402h74v-403q0 -113 56.5 -176.5t155.5 -63.5t155.5 63.5t56.5 176.5v403h74v-402q0 -147 -80 -229q-80 -81 -206 -81zM419 763h-70l-118 133h92z" />
<glyph unicode="&#xda;" horiz-adv-x="748" d="M374 -12q-128 0 -207 81q-79 80 -79 229v402h74v-403q0 -113 56.5 -176.5t155.5 -63.5t155.5 63.5t56.5 176.5v403h74v-402q0 -147 -80 -229q-80 -81 -206 -81zM403 763h-69l95 133h92z" />
<glyph unicode="&#xdb;" horiz-adv-x="748" d="M297 763h-71l111 133h72l111 -133h-71l-76 92zM374 -12q-128 0 -207 81q-79 80 -79 229v402h74v-403q0 -113 56.5 -176.5t155.5 -63.5t155.5 63.5t56.5 176.5v403h74v-402q0 -147 -80 -229q-80 -81 -206 -81z" />
<glyph unicode="&#xdc;" horiz-adv-x="748" d="M374 -12q-128 0 -207 81q-79 80 -79 229v402h74v-403q0 -113 56.5 -176.5t155.5 -63.5t155.5 63.5t56.5 176.5v403h74v-402q0 -147 -80 -229q-80 -81 -206 -81zM242 794q-14 14 -14 34t14 33q14 14 33 14t33 -14q14 -13 14 -33t-14 -34q-14 -13 -33 -13t-33 13zM442 794 q-14 14 -14 34t14 33q14 14 33 14t33 -14q14 -13 14 -33t-14 -34q-14 -13 -33 -13t-33 13z" />
<glyph unicode="&#xdd;" horiz-adv-x="664" d="M369 0h-74v321l-272 379h86l224 -310l224 310h84l-272 -378v-322zM358 763h-69l95 133h92z" />
<glyph unicode="&#xde;" horiz-adv-x="665" d="M173 0h-74v700h73v-156h221q104 0 164 -53t60 -141q0 -90 -60 -143.5t-164 -53.5h-220v-153zM173 477v-257h215q74 0 115 33.5t41 94.5q0 62 -40.5 95.5t-115.5 33.5h-215z" />
<glyph unicode="&#xdf;" horiz-adv-x="617" d="M350 -12q-57 0 -93 14v68q37 -17 81 -17q71 0 114.5 39t43.5 104q0 73 -52.5 118t-138.5 45h-21v54h21q62 0 97 29.5t35 83.5q0 52 -37 84.5t-97 32.5q-66 0 -106 -41.5t-40 -110.5v-491h-72v491q0 99 60 158q61 59 157 59q92 0 150 -50q57 -50 57 -125q0 -110 -98 -143 q69 -16 113 -69t44 -132q0 -93 -61 -147t-157 -54z" />
<glyph unicode="&#xe0;" horiz-adv-x="594" d="M248 53q50 0 95 23t73 58v67q-74 48 -157 48q-66 0 -104.5 -26t-38.5 -71q0 -47 37 -73t95 -26zM228 -12q-77 0 -131 42q-53 44 -53 118q0 73 56 117q56 43 142 43q94 0 174 -47v48q0 121 -159 121q-85 0 -158 -49v70q71 44 173 44q99 0 157.5 -46.5t58.5 -132.5v-199 q0 -28 12.5 -44t33.5 -16q16 0 28 6v-56q-16 -11 -48 -11q-36 0 -60.5 19.5t-30.5 57.5q-73 -85 -195 -85zM346 576h-69l-118 134h91z" />
<glyph unicode="&#xe1;" horiz-adv-x="594" d="M248 53q50 0 95 23t73 58v67q-74 48 -157 48q-66 0 -104.5 -26t-38.5 -71q0 -47 37 -73t95 -26zM228 -12q-77 0 -131 42q-53 44 -53 118q0 73 56 117q56 43 142 43q94 0 174 -47v48q0 121 -159 121q-85 0 -158 -49v70q71 44 173 44q99 0 157.5 -46.5t58.5 -132.5v-199 q0 -28 12.5 -44t33.5 -16q16 0 28 6v-56q-16 -11 -48 -11q-36 0 -60.5 19.5t-30.5 57.5q-73 -85 -195 -85zM293 576h-70l96 134h92z" />
<glyph unicode="&#xe2;" horiz-adv-x="594" d="M248 53q50 0 95 23t73 58v67q-74 48 -157 48q-66 0 -104.5 -26t-38.5 -71q0 -47 37 -73t95 -26zM228 -12q-77 0 -131 42q-53 44 -53 118q0 73 56 117q56 43 142 43q94 0 174 -47v48q0 121 -159 121q-85 0 -158 -49v70q71 44 173 44q99 0 157.5 -46.5t58.5 -132.5v-199 q0 -28 12.5 -44t33.5 -16q16 0 28 6v-56q-16 -11 -48 -11q-36 0 -60.5 19.5t-30.5 57.5q-73 -85 -195 -85zM198 576h-71l112 134h73l110 -134h-71l-77 92z" />
<glyph unicode="&#xe3;" horiz-adv-x="594" d="M248 53q50 0 95 23t73 58v67q-74 48 -157 48q-66 0 -104.5 -26t-38.5 -71q0 -47 37 -73t95 -26zM228 -12q-77 0 -131 42q-53 44 -53 118q0 73 56 117q56 43 142 43q94 0 174 -47v48q0 121 -159 121q-85 0 -158 -49v70q71 44 173 44q99 0 157.5 -46.5t58.5 -132.5v-199 q0 -28 12.5 -44t33.5 -16q16 0 28 6v-56q-16 -11 -48 -11q-36 0 -60.5 19.5t-30.5 57.5q-73 -85 -195 -85zM350 589q-28 0 -74 28t-64 28q-37 0 -41 -52h-49q2 49 25.5 79.5t61.5 30.5q28 0 74 -28t64 -28q19 0 27 12t14 40h49q-1 -49 -24.5 -79.5t-62.5 -30.5z" />
<glyph unicode="&#xe4;" horiz-adv-x="594" d="M248 53q50 0 95 23t73 58v67q-74 48 -157 48q-66 0 -104.5 -26t-38.5 -71q0 -47 37 -73t95 -26zM228 -12q-77 0 -131 42q-53 44 -53 118q0 73 56 117q56 43 142 43q94 0 174 -47v48q0 121 -159 121q-85 0 -158 -49v70q71 44 173 44q99 0 157.5 -46.5t58.5 -132.5v-199 q0 -28 12.5 -44t33.5 -16q16 0 28 6v-56q-16 -11 -48 -11q-36 0 -60.5 19.5t-30.5 57.5q-73 -85 -195 -85zM144 612q-13 14 -13 34t13 33q14 14 34 14t33 -14q14 -13 14 -33t-14 -34q-13 -13 -33 -13t-34 13zM344 612q-13 14 -13 34t13 33q14 14 34 14t33 -14q14 -13 14 -33 t-14 -34q-13 -13 -33 -13t-34 13z" />
<glyph unicode="&#xe5;" horiz-adv-x="594" d="M248 53q50 0 95 23t73 58v67q-74 48 -157 48q-66 0 -104.5 -26t-38.5 -71q0 -47 37 -73t95 -26zM228 -12q-77 0 -131 42q-53 44 -53 118q0 73 56 117q56 43 142 43q94 0 174 -47v48q0 121 -159 121q-85 0 -158 -49v70q71 44 173 44q99 0 157.5 -46.5t58.5 -132.5v-199 q0 -28 12.5 -44t33.5 -16q16 0 28 6v-56q-16 -11 -48 -11q-36 0 -60.5 19.5t-30.5 57.5q-73 -85 -195 -85zM213 714q28 28 68 28t68 -28t28 -68t-28 -68t-68 -28t-68 28t-28 68t28 68zM281 590q24 0 40 16.5t16 39.5q0 24 -16 40t-40 16q-23 0 -39.5 -16t-16.5 -40 q0 -23 16.5 -39.5t39.5 -16.5z" />
<glyph unicode="&#xe6;" horiz-adv-x="935" d="M885 244v-20h-397q6 -78 63 -124q58 -47 143 -47q86 0 155 45v-64q-59 -46 -169 -46q-71 0 -129.5 30t-92.5 83q-91 -113 -226 -113q-81 0 -135 42q-53 44 -53 118q0 73 56 117q56 43 142 43q98 0 175 -47v46q0 123 -160 123q-86 0 -158 -48v69q74 44 175 44 q67 0 117.5 -28t71.5 -79q31 51 82 79t114 28q58 0 103 -23.5t71 -61.5t39 -80.5t13 -85.5zM248 53q56 0 105.5 27t79.5 70q-13 35 -14 49q-79 51 -160 51q-66 0 -104.5 -26.5t-38.5 -71.5q0 -47 36 -73t96 -26zM489 283h323q-3 56 -42 101q-37 46 -114 46q-72 0 -118 -44 q-45 -45 -49 -103z" />
<glyph unicode="&#xe7;" horiz-adv-x="524" d="M50 242q0 108 74 180q73 73 184 73q84 0 146 -35v-67q-65 37 -136 37q-84 0 -139 -54q-55 -52 -55 -135q0 -81 55 -135q56 -53 139 -53q80 0 145 42v-66q-51 -30 -112 -38l-63 -123h-87l85 121q-100 7 -169 79q-67 70 -67 174z" />
<glyph unicode="&#xe8;" horiz-adv-x="571" d="M316 -12q-113 0 -190 71q-76 70 -76 182q0 108 68 181q69 73 177 73q58 0 103 -23.5t71 -61.5t39 -80.5t13 -85.5v-20h-397q6 -78 62.5 -124.5t143.5 -46.5q84 0 155 45v-64q-59 -46 -169 -46zM125 283h323q-3 56 -42 101q-37 46 -114 46q-72 0 -118 -44 q-45 -45 -49 -103zM367 576h-69l-118 134h91z" />
<glyph unicode="&#xe9;" horiz-adv-x="571" d="M316 -12q-113 0 -190 71q-76 70 -76 182q0 108 68 181q69 73 177 73q58 0 103 -23.5t71 -61.5t39 -80.5t13 -85.5v-20h-397q6 -78 62.5 -124.5t143.5 -46.5q84 0 155 45v-64q-59 -46 -169 -46zM125 283h323q-3 56 -42 101q-37 46 -114 46q-72 0 -118 -44 q-45 -45 -49 -103zM301 576h-70l96 134h92z" />
<glyph unicode="&#xea;" horiz-adv-x="571" d="M316 -12q-113 0 -190 71q-76 70 -76 182q0 108 68 181q69 73 177 73q58 0 103 -23.5t71 -61.5t39 -80.5t13 -85.5v-20h-397q6 -78 62.5 -124.5t143.5 -46.5q84 0 155 45v-64q-59 -46 -169 -46zM125 283h323q-3 56 -42 101q-37 46 -114 46q-72 0 -118 -44 q-45 -45 -49 -103zM214 576h-71l112 134h73l110 -134h-71l-77 92z" />
<glyph unicode="&#xeb;" horiz-adv-x="571" d="M316 -12q-113 0 -190 71q-76 70 -76 182q0 108 68 181q69 73 177 73q58 0 103 -23.5t71 -61.5t39 -80.5t13 -85.5v-20h-397q6 -78 62.5 -124.5t143.5 -46.5q84 0 155 45v-64q-59 -46 -169 -46zM125 283h323q-3 56 -42 101q-37 46 -114 46q-72 0 -118 -44 q-45 -45 -49 -103zM158 612q-14 14 -14 34t14 33q14 14 33 14t33 -14q14 -13 14 -33t-14 -34q-14 -13 -33 -13t-33 13zM358 612q-14 14 -14 34t14 33q14 14 33 14t33 -14q14 -13 14 -33t-14 -34q-14 -13 -33 -13t-33 13z" />
<glyph unicode="&#xec;" horiz-adv-x="253" d="M163 0h-73v483h73v-483zM155 576h-69l-118 134h91z" />
<glyph unicode="&#xed;" horiz-adv-x="253" d="M163 0h-73v483h73v-483zM166 577h-69l95 133h92z" />
<glyph unicode="&#xee;" horiz-adv-x="253" d="M50 576h-71l112 134h73l110 -134h-71l-77 92zM163 0h-73v483h73v-483z" />
<glyph unicode="&#xef;" horiz-adv-x="258" d="M-4 612q-14 14 -14 34t14 33q14 14 33 14t33 -14q14 -13 14 -33t-14 -34q-14 -13 -33 -13t-33 13zM196 612q-14 14 -14 34t14 33q14 14 33 14t33 -14q14 -13 14 -33t-14 -34q-14 -13 -33 -13t-33 13zM165 0h-73v483h73v-483z" />
<glyph unicode="&#xf0;" horiz-adv-x="598" d="M320 645l108 45l31 -43l-109 -45l113 -162q46 -64 66 -110t20 -98q0 -101 -70 -172q-71 -72 -179 -72q-110 0 -180 70t-70 169q0 97 65 165t166 68q67 0 113 -24l-104 143l-132 -53l-31 43l132 52l-58 79h79zM300 53q76 0 125 51q51 51 51 125q0 75 -51 124 q-49 51 -125 51t-127 -51q-50 -50 -50 -124t50 -126q52 -50 127 -50z" />
<glyph unicode="&#xf1;" horiz-adv-x="610" d="M85 0v483h72v-74q77 86 193 86q89 0 136.5 -52.5t47.5 -148.5v-294h-72v278q0 149 -137 149q-50 0 -97 -31q-48 -31 -71 -70v-326h-72zM380 589q-28 0 -74 28t-64 28q-37 0 -41 -52h-49q2 49 25.5 79.5t61.5 30.5q28 0 74 -28t64 -28q19 0 27 12t14 40h49 q-1 -49 -24.5 -79.5t-62.5 -30.5z" />
<glyph unicode="&#xf2;" horiz-adv-x="621" d="M123 420q73 75 188 75t188 -75q73 -73 73 -179t-73 -179q-74 -74 -188 -74t-188 74q-73 73 -73 179t73 179zM498 241q0 80 -53 135q-53 54 -134 54t-134 -54q-53 -55 -53 -135q0 -79 53 -134q53 -54 134 -54t134 54q53 55 53 134zM361 576h-69l-118 134h91z" />
<glyph unicode="&#xf3;" horiz-adv-x="621" d="M123 420q73 75 188 75t188 -75q73 -73 73 -179t-73 -179q-74 -74 -188 -74t-188 74q-73 73 -73 179t73 179zM498 241q0 80 -53 135q-53 54 -134 54t-134 -54q-53 -55 -53 -135q0 -79 53 -134q53 -54 134 -54t134 54q53 55 53 134zM337 576h-70l96 134h92z" />
<glyph unicode="&#xf4;" horiz-adv-x="621" d="M235 576h-71l112 134h73l110 -134h-71l-77 92zM123 420q73 75 188 75t188 -75q73 -73 73 -179t-73 -179q-74 -74 -188 -74t-188 74q-73 73 -73 179t73 179zM498 241q0 80 -53 135q-53 54 -134 54t-134 -54q-53 -55 -53 -135q0 -79 53 -134q53 -54 134 -54t134 54 q53 55 53 134z" />
<glyph unicode="&#xf5;" horiz-adv-x="621" d="M123 420q73 75 188 75t188 -75q73 -73 73 -179t-73 -179q-74 -74 -188 -74t-188 74q-73 73 -73 179t73 179zM498 241q0 80 -53 135q-53 54 -134 54t-134 -54q-53 -55 -53 -135q0 -79 53 -134q53 -54 134 -54t134 54q53 55 53 134zM382 589q-28 0 -74 28t-64 28 q-37 0 -41 -52h-49q2 49 25.5 79.5t61.5 30.5q28 0 74 -28t64 -28q19 0 27 12t14 40h49q-1 -49 -24.5 -79.5t-62.5 -30.5z" />
<glyph unicode="&#xf6;" horiz-adv-x="621" d="M123 420q73 75 188 75t188 -75q73 -73 73 -179t-73 -179q-74 -74 -188 -74t-188 74q-73 73 -73 179t73 179zM498 241q0 80 -53 135q-53 54 -134 54t-134 -54q-53 -55 -53 -135q0 -79 53 -134q53 -54 134 -54t134 54q53 55 53 134zM178 612q-13 14 -13 34t13 33 q14 14 34 14t33 -14q14 -13 14 -33t-14 -34q-13 -13 -33 -13t-34 13zM378 612q-13 14 -13 34t13 33q14 14 34 14t33 -14q14 -13 14 -33t-14 -34q-13 -13 -33 -13t-34 13z" />
<glyph unicode="&#xf7;" horiz-adv-x="596" d="M526 292h-456v67h456v-67zM259 491q-16 17 -16 39t16 38q17 17 39 17t38 -17q17 -16 17 -38t-17 -39q-16 -16 -38 -16t-39 16zM259 85q-16 17 -16 39t16 38q17 17 39 17t38 -17q17 -16 17 -38t-17 -39q-16 -16 -38 -16t-39 16z" />
<glyph unicode="&#xf8;" horiz-adv-x="621" d="M142 0h-69l51 61q-74 72 -74 180q0 106 73 179q73 75 188 75q80 0 144 -40l24 28h69l-51 -61q75 -73 75 -181q0 -106 -73 -179q-74 -74 -188 -74q-85 0 -146 40zM311 53q81 0 134 54q53 55 53 134q0 74 -47 127l-241 -287q43 -28 101 -28zM124 241q0 -73 45 -126l242 287 q-43 28 -100 28q-81 0 -134 -54q-53 -55 -53 -135z" />
<glyph unicode="&#xf9;" horiz-adv-x="611" d="M526 483v-483h-72v74q-77 -86 -193 -86q-89 0 -136.5 52.5t-47.5 148.5v294h72v-278q0 -149 137 -149q50 0 96 30q49 32 72 71v326h72zM365 576h-69l-118 134h91z" />
<glyph unicode="&#xfa;" horiz-adv-x="611" d="M526 483v-483h-72v74q-77 -86 -193 -86q-89 0 -136.5 52.5t-47.5 148.5v294h72v-278q0 -149 137 -149q50 0 96 30q49 32 72 71v326h72zM311 576h-70l96 134h92z" />
<glyph unicode="&#xfb;" horiz-adv-x="611" d="M526 483v-483h-72v74q-77 -86 -193 -86q-89 0 -136.5 52.5t-47.5 148.5v294h72v-278q0 -149 137 -149q50 0 96 30q49 32 72 71v326h72zM225 576h-71l112 134h73l110 -134h-71l-77 92z" />
<glyph unicode="&#xfc;" horiz-adv-x="611" d="M526 483v-483h-72v74q-77 -86 -193 -86q-89 0 -136.5 52.5t-47.5 148.5v294h72v-278q0 -149 137 -149q50 0 96 30q49 32 72 71v326h72zM168 612q-13 14 -13 34t13 33q14 14 34 14t33 -14q14 -13 14 -33t-14 -34q-13 -13 -33 -13t-34 13zM368 612q-13 14 -13 34t13 33 q14 14 34 14t33 -14q14 -13 14 -33t-14 -34q-13 -13 -33 -13t-34 13z" />
<glyph unicode="&#xfd;" horiz-adv-x="555" d="M112 -204q-52 0 -77 14v67q31 -16 66 -16q44 0 76 36.5t67 120.5l-215 465h80l171 -380l166 380h78l-239 -537q-65 -150 -173 -150zM297 576h-70l96 134h92z" />
<glyph unicode="&#xfe;" horiz-adv-x="636" d="M157 77v-277h-72v900h72v-294q68 89 187 89q107 0 175 -74t68 -179q0 -106 -68 -180t-175 -74q-119 0 -187 89zM157 321v-159q21 -48 68 -78.5t102 -30.5q81 0 133 54q53 56 53 135t-53 134q-52 54 -133 54q-54 0 -101 -30.5t-69 -78.5z" />
<glyph unicode="&#xff;" horiz-adv-x="555" d="M112 -204q-52 0 -77 14v67q31 -16 66 -16q44 0 76 36.5t67 120.5l-215 465h80l171 -380l166 380h78l-239 -537q-65 -150 -173 -150zM140 612q-13 14 -13 34t13 33q14 14 34 14t33 -14q14 -13 14 -33t-14 -34q-13 -13 -33 -13t-34 13zM340 612q-13 14 -13 34t13 33 q14 14 34 14t33 -14q14 -13 14 -33t-14 -34q-13 -13 -33 -13t-34 13z" />
<glyph unicode="&#x100;" horiz-adv-x="753" d="M107 0h-77l312 704h69l313 -704h-78l-87 193h-367zM376 611l-159 -353h318zM504 802h-252v55h252v-55z" />
<glyph unicode="&#x101;" horiz-adv-x="594" d="M248 53q50 0 95 23t73 58v67q-74 48 -157 48q-66 0 -104.5 -26t-38.5 -71q0 -47 37 -73t95 -26zM228 -12q-77 0 -131 42q-53 44 -53 118q0 73 56 117q56 43 142 43q94 0 174 -47v48q0 121 -159 121q-85 0 -158 -49v70q71 44 173 44q99 0 157.5 -46.5t58.5 -132.5v-199 q0 -28 12.5 -44t33.5 -16q16 0 28 6v-56q-16 -11 -48 -11q-36 0 -60.5 19.5t-30.5 57.5q-73 -85 -195 -85zM410 618h-252v55h252v-55z" />
<glyph unicode="&#x102;" horiz-adv-x="753" d="M107 0h-77l312 704h69l313 -704h-78l-87 193h-367zM376 611l-159 -353h318zM239 896h57q1 -37 24 -62t58 -25q34 0 57 25t24 62h57q-2 -62 -41 -101q-41 -39 -97 -39q-58 0 -98 39t-41 101z" />
<glyph unicode="&#x103;" horiz-adv-x="594" d="M248 53q50 0 95 23t73 58v67q-74 48 -157 48q-66 0 -104.5 -26t-38.5 -71q0 -47 37 -73t95 -26zM228 -12q-77 0 -131 42q-53 44 -53 118q0 73 56 117q56 43 142 43q94 0 174 -47v48q0 121 -159 121q-85 0 -158 -49v70q71 44 173 44q99 0 157.5 -46.5t58.5 -132.5v-199 q0 -28 12.5 -44t33.5 -16q16 0 28 6v-56q-16 -11 -48 -11q-36 0 -60.5 19.5t-30.5 57.5q-73 -85 -195 -85zM279 570q-57 0 -98 39q-39 39 -41 101h57q1 -37 24 -61.5t58 -24.5q34 0 57 24.5t24 61.5h57q-1 -59 -42 -100q-40 -40 -96 -40z" />
<glyph unicode="&#x104;" horiz-adv-x="753" d="M745 -195q-51 0 -81.5 28t-30.5 71q0 53 40 96h-27l-87 193h-367l-85 -193h-77l312 704h69l313 -704q-37 -38 -37 -83q0 -29 19 -47t50 -18q19 0 40 7v-48q-20 -6 -51 -6zM376 611l-159 -353h318z" />
<glyph unicode="&#x105;" horiz-adv-x="586" d="M583 -188q-51 0 -81.5 28t-30.5 71q0 48 31 86q-68 4 -79 76q-73 -85 -195 -85q-77 0 -131 42q-53 44 -53 118q0 73 56 117q56 43 142 43q94 0 174 -47v48q0 121 -159 121q-85 0 -158 -49v70q71 44 173 44q99 0 157.5 -46.5t58.5 -132.5v-199q0 -28 12.5 -44t33.5 -16 q16 0 28 6v-56q-37 -38 -37 -83q0 -29 19 -47t50 -18q19 0 40 7v-48q-20 -6 -51 -6zM248 53q50 0 95 23t73 58v67q-74 48 -157 48q-66 0 -104.5 -26t-38.5 -71q0 -47 37 -73t95 -26z" />
<glyph unicode="&#x106;" horiz-adv-x="690" d="M429 -12q-153 0 -257 102q-102 102 -102 260q0 157 102 259q103 103 257 103q114 0 196 -52v-76q-92 59 -195 59q-120 0 -203 -84q-82 -82 -82 -209q0 -128 82 -210q83 -83 205 -83t208 70v-77q-86 -62 -211 -62zM426 763h-69l95 133h92z" />
<glyph unicode="&#x107;" horiz-adv-x="523" d="M307 -12q-111 0 -184 72q-73 73 -73 182q0 108 74 180q73 73 184 73q84 0 146 -35v-67q-65 37 -136 37q-84 0 -139 -54q-55 -52 -55 -135q0 -81 55 -135q56 -53 139 -53q80 0 145 42v-66q-68 -41 -156 -41zM305 576h-70l96 134h92z" />
<glyph unicode="&#x108;" horiz-adv-x="690" d="M327 763h-71l111 133h72l111 -133h-71l-76 92zM429 -12q-153 0 -257 102q-102 102 -102 260q0 157 102 259q103 103 257 103q114 0 196 -52v-76q-92 59 -195 59q-120 0 -203 -84q-82 -82 -82 -209q0 -128 82 -210q83 -83 205 -83t208 70v-77q-86 -62 -211 -62z" />
<glyph unicode="&#x109;" horiz-adv-x="523" d="M209 576h-71l112 134h73l110 -134h-71l-77 92zM307 -12q-111 0 -184 72q-73 73 -73 182q0 108 74 180q73 73 184 73q84 0 146 -35v-67q-65 37 -136 37q-84 0 -139 -54q-55 -52 -55 -135q0 -81 55 -135q56 -53 139 -53q80 0 145 42v-66q-68 -41 -156 -41z" />
<glyph unicode="&#x10a;" horiz-adv-x="690" d="M429 -12q-153 0 -257 102q-102 102 -102 260q0 157 102 259q103 103 257 103q114 0 196 -52v-76q-92 59 -195 59q-120 0 -203 -84q-82 -82 -82 -209q0 -128 82 -210q83 -83 205 -83t208 70v-77q-86 -62 -211 -62zM386 794q-13 14 -13 33t13 33q14 14 34 14t33 -14 q14 -14 14 -33t-14 -33q-13 -14 -33 -14t-34 14z" />
<glyph unicode="&#x10b;" horiz-adv-x="524" d="M307 -12q-111 0 -184 72q-73 73 -73 182q0 108 74 180q73 73 184 73q84 0 146 -35v-67q-65 37 -136 37q-84 0 -139 -54q-55 -52 -55 -135q0 -81 55 -135q56 -53 139 -53q80 0 145 42v-66q-68 -41 -156 -41zM270 612q-14 14 -14 34t14 33q14 14 33 14t33 -14 q14 -13 14 -33t-14 -34q-14 -13 -33 -13t-33 13z" />
<glyph unicode="&#x10c;" horiz-adv-x="690" d="M450 763h-73l-110 133h71l76 -91l77 91h70zM429 -12q-153 0 -257 102q-102 102 -102 260q0 157 102 259q103 103 257 103q114 0 196 -52v-76q-92 59 -195 59q-120 0 -203 -84q-82 -82 -82 -209q0 -128 82 -210q83 -83 205 -83t208 70v-77q-86 -62 -211 -62z" />
<glyph unicode="&#x10d;" horiz-adv-x="523" d="M332 576h-73l-110 134h72l75 -92l77 92h70zM307 -12q-111 0 -184 72q-73 73 -73 182q0 108 74 180q73 73 184 73q84 0 146 -35v-67q-65 37 -136 37q-84 0 -139 -54q-55 -52 -55 -135q0 -81 55 -135q56 -53 139 -53q80 0 145 42v-66q-68 -41 -156 -41z" />
<glyph unicode="&#x10e;" horiz-adv-x="778" d="M379 763h-73l-110 133h71l76 -91l77 91h70zM328 0h-229v700h229q170 0 274 -97q105 -98 105 -253q0 -156 -105 -253q-104 -97 -274 -97zM173 633v-566h146q144 0 229 77q84 76 84 206t-84 206q-85 77 -229 77h-146z" />
<glyph unicode="&#x10f;" horiz-adv-x="759" d="M480 406v294h72v-700h-72v77q-68 -89 -187 -89q-107 0 -175 74t-68 179q0 106 68 180t175 74q119 0 187 -89zM480 162v159q-21 48 -68 78.5t-102 30.5q-81 0 -133 -55q-53 -55 -53 -134t53 -134q53 -54 133 -54q54 0 101 30.5t69 78.5zM696 523h-57l56 177h75z" />
<glyph unicode="&#x110;" horiz-adv-x="828" d="M378 0h-229v324h-111v67h111v309h229q170 0 274 -97q105 -98 105 -253q0 -156 -105 -253q-104 -97 -274 -97zM223 324v-257h146q144 0 229 77q84 76 84 206t-84 206q-85 77 -229 77h-146v-242h162v-67h-162z" />
<glyph unicode="&#x111;" horiz-adv-x="634" d="M480 620v80h72v-80h107v-63h-107v-557h-72v77q-68 -89 -187 -89q-107 0 -175 74t-68 179q0 106 68 180t175 74q119 0 187 -89v151h-144v63h144zM480 162v159q-21 48 -68 78.5t-102 30.5q-81 0 -133 -55q-53 -55 -53 -134t53 -134q53 -54 133 -54q54 0 101 30.5t69 78.5z " />
<glyph unicode="&#x112;" horiz-adv-x="640" d="M594 0h-495v700h480v-67h-406v-224h333v-67h-333v-275h421v-67zM472 802h-252v55h252v-55z" />
<glyph unicode="&#x113;" horiz-adv-x="571" d="M316 -12q-113 0 -190 71q-76 70 -76 182q0 108 68 181q69 73 177 73q58 0 103 -23.5t71 -61.5t39 -80.5t13 -85.5v-20h-397q6 -78 62.5 -124.5t143.5 -46.5q84 0 155 45v-64q-59 -46 -169 -46zM125 283h323q-3 56 -42 101q-37 46 -114 46q-72 0 -118 -44 q-45 -45 -49 -103zM418 618h-252v55h252v-55z" />
<glyph unicode="&#x114;" horiz-adv-x="640" d="M594 0h-495v700h480v-67h-406v-224h333v-67h-333v-275h421v-67zM208 896h57q1 -37 24 -62t58 -25q34 0 57 25t24 62h57q-1 -62 -41 -101t-97 -39t-98 39q-39 39 -41 101z" />
<glyph unicode="&#x115;" horiz-adv-x="571" d="M316 -12q-113 0 -190 71q-76 70 -76 182q0 108 68 181q69 73 177 73q58 0 103 -23.5t71 -61.5t39 -80.5t13 -85.5v-20h-397q6 -78 62.5 -124.5t143.5 -46.5q84 0 155 45v-64q-59 -46 -169 -46zM125 283h323q-3 56 -42 101q-37 46 -114 46q-72 0 -118 -44 q-45 -45 -49 -103zM291 570q-57 0 -98 39q-39 39 -41 101h57q1 -37 24 -61.5t58 -24.5q34 0 57 24.5t24 61.5h57q-1 -59 -42 -100q-40 -40 -96 -40z" />
<glyph unicode="&#x116;" horiz-adv-x="640" d="M594 0h-495v700h480v-67h-406v-224h333v-67h-333v-275h421v-67zM312 794q-14 14 -14 33t14 33t33 14t33 -14t14 -33t-14 -33t-33 -14t-33 14z" />
<glyph unicode="&#x117;" horiz-adv-x="571" d="M316 -12q-113 0 -190 71q-76 70 -76 182q0 108 68 181q69 73 177 73q58 0 103 -23.5t71 -61.5t39 -80.5t13 -85.5v-20h-397q6 -78 62.5 -124.5t143.5 -46.5q84 0 155 45v-64q-59 -46 -169 -46zM125 283h323q-3 56 -42 101q-37 46 -114 46q-72 0 -118 -44 q-45 -45 -49 -103zM258 612q-13 14 -13 34t13 33q14 14 34 14t33 -14q14 -13 14 -33t-14 -34q-13 -13 -33 -13t-34 13z" />
<glyph unicode="&#x118;" horiz-adv-x="643" d="M543 0h-444v700h480v-67h-406v-224h333v-67h-333v-275h421v-67q-37 -38 -37 -83q0 -29 19 -47t50 -18q19 0 40 7v-48q-20 -6 -51 -6q-51 0 -81.5 28t-30.5 71q0 53 40 96z" />
<glyph unicode="&#x119;" horiz-adv-x="571" d="M506 -161q-51 0 -81.5 28t-30.5 71q0 30 15 62q-42 -12 -93 -12q-113 0 -190 71q-76 70 -76 182q0 108 68 181q69 73 177 73q58 0 103 -23.5t71 -61.5t39 -80.5t13 -85.5v-20h-397q6 -78 62.5 -124.5t143.5 -46.5q84 0 155 45v-64q-37 -38 -37 -83q0 -29 19 -47t50 -18 q19 0 40 7v-48q-19 -6 -51 -6zM125 283h323q-3 56 -42 101q-37 46 -114 46q-72 0 -118 -44q-45 -45 -49 -103z" />
<glyph unicode="&#x11a;" horiz-adv-x="640" d="M381 763h-73l-110 133h71l76 -91l77 91h70zM594 0h-495v700h480v-67h-406v-224h333v-67h-333v-275h421v-67z" />
<glyph unicode="&#x11b;" horiz-adv-x="571" d="M316 -12q-113 0 -190 71q-76 70 -76 182q0 108 68 181q69 73 177 73q58 0 103 -23.5t71 -61.5t39 -80.5t13 -85.5v-20h-397q6 -78 62.5 -124.5t143.5 -46.5q84 0 155 45v-64q-59 -46 -169 -46zM125 283h323q-3 56 -42 101q-37 46 -114 46q-72 0 -118 -44 q-45 -45 -49 -103zM326 576h-73l-110 134h72l75 -92l77 92h70z" />
<glyph unicode="&#x11c;" horiz-adv-x="780" d="M427 -12q-151 0 -255 102q-102 102 -102 260q0 157 102 259q103 103 257 103q133 0 222 -67v-75q-97 73 -218 73q-123 0 -206 -83q-82 -82 -82 -211q0 -127 81 -210q82 -82 201 -82q126 0 199 73v272h73v-301q-46 -52 -117.5 -82.5t-154.5 -30.5zM329 763h-71l111 133h72 l111 -133h-71l-76 92z" />
<glyph unicode="&#x11d;" horiz-adv-x="636" d="M480 31v51q-65 -86 -187 -86q-107 0 -175 72q-68 74 -68 177t68 177q67 73 175 73q124 0 187 -86v74h72v-452q0 -114 -75 -174q-73 -61 -187 -61q-110 0 -187 44v70q82 -49 180 -49q90 0 143.5 43t53.5 127zM480 167v157q-20 47 -67 76.5t-103 29.5q-80 0 -133 -53 t-53 -132t53 -132q52 -52 133 -52q56 0 103 29.5t67 76.5zM236 576h-71l112 134h73l110 -134h-71l-77 92z" />
<glyph unicode="&#x11e;" horiz-adv-x="780" d="M427 -12q-151 0 -255 102q-102 102 -102 260q0 157 102 259q103 103 257 103q133 0 222 -67v-75q-97 73 -218 73q-123 0 -206 -83q-82 -82 -82 -211q0 -127 81 -210q82 -82 201 -82q126 0 199 73v272h73v-301q-46 -52 -117.5 -82.5t-154.5 -30.5zM281 901h57 q1 -37 24 -62t58 -25q34 0 57 25t24 62h57q-2 -61 -41 -101q-41 -39 -97 -39q-58 0 -98 39q-40 40 -41 101z" />
<glyph unicode="&#x11f;" horiz-adv-x="636" d="M480 31v51q-65 -86 -187 -86q-107 0 -175 72q-68 74 -68 177t68 177q67 73 175 73q124 0 187 -86v74h72v-452q0 -114 -75 -174q-73 -61 -187 -61q-110 0 -187 44v70q82 -49 180 -49q90 0 143.5 43t53.5 127zM480 167v157q-20 47 -67 76.5t-103 29.5q-80 0 -133 -53 t-53 -132t53 -132q52 -52 133 -52q56 0 103 29.5t67 76.5zM309 570q-57 0 -98 39q-39 39 -41 101h57q1 -37 24 -61.5t58 -24.5q34 0 57 24.5t24 61.5h57q-1 -59 -42 -100q-40 -40 -96 -40z" />
<glyph unicode="&#x120;" horiz-adv-x="780" d="M427 -12q-151 0 -255 102q-102 102 -102 260q0 157 102 259q103 103 257 103q133 0 222 -67v-75q-97 73 -218 73q-123 0 -206 -83q-82 -82 -82 -211q0 -127 81 -210q82 -82 201 -82q126 0 199 73v272h73v-301q-46 -52 -117.5 -82.5t-154.5 -30.5zM390 794q-14 14 -14 33 t14 33t33 14t33 -14t14 -33t-14 -33t-33 -14t-33 14z" />
<glyph unicode="&#x121;" horiz-adv-x="636" d="M480 31v51q-65 -86 -187 -86q-107 0 -175 72q-68 74 -68 177t68 177q67 73 175 73q124 0 187 -86v74h72v-452q0 -114 -75 -174q-73 -61 -187 -61q-110 0 -187 44v70q82 -49 180 -49q90 0 143.5 43t53.5 127zM480 167v157q-20 47 -67 76.5t-103 29.5q-80 0 -133 -53 t-53 -132t53 -132q52 -52 133 -52q56 0 103 29.5t67 76.5zM276 612q-14 14 -14 34t14 33q14 14 33 14t33 -14q14 -13 14 -33t-14 -34q-14 -13 -33 -13t-33 13z" />
<glyph unicode="&#x122;" horiz-adv-x="780" d="M427 -12q-151 0 -255 102q-102 102 -102 260q0 157 102 259q103 103 257 103q133 0 222 -67v-75q-97 73 -218 73q-123 0 -206 -83q-82 -82 -82 -211q0 -127 81 -210q82 -82 201 -82q126 0 199 73v272h73v-301q-46 -52 -117.5 -82.5t-154.5 -30.5zM402 -231h-57l56 177h75 z" />
<glyph unicode="&#x123;" horiz-adv-x="636" d="M480 31v51q-65 -86 -187 -86q-107 0 -175 72q-68 74 -68 177t68 177q67 73 175 73q124 0 187 -86v74h72v-452q0 -114 -75 -174q-73 -61 -187 -61q-110 0 -187 44v70q82 -49 180 -49q90 0 143.5 43t53.5 127zM480 167v157q-20 47 -67 76.5t-103 29.5q-80 0 -133 -53 t-53 -132t53 -132q52 -52 133 -52q56 0 103 29.5t67 76.5zM330 734h57l-56 -177h-75z" />
<glyph unicode="&#x124;" horiz-adv-x="761" d="M304 763h-71l111 133h72l111 -133h-71l-76 92zM173 0h-74v700h74v-291h416v291h74v-700h-74v342h-416v-342z" />
<glyph unicode="&#x125;" horiz-adv-x="607" d="M82 0v700h72v-291q77 86 193 86q89 0 136.5 -52.5t47.5 -148.5v-294h-72v278q0 149 -137 149q-50 0 -97 -31q-48 -31 -71 -70v-326h-72zM43 763h-71l111 133h72l111 -133h-71l-76 92z" />
<glyph unicode="&#x126;" horiz-adv-x="861" d="M222 0h-74v537h-88v53h88v110h74v-110h417v110h74v-110h88v-53h-88v-537h-74v342h-417v-342zM222 537v-128h417v128h-417z" />
<glyph unicode="&#x127;" horiz-adv-x="641" d="M188 265v-265h-72v557h-102v63h102v80h72v-80h143v-63h-143v-209q77 86 193 86q89 0 136.5 -52.5t47.5 -148.5v-233h-72v217q0 149 -137 149q-50 0 -97 -31q-48 -31 -71 -70z" />
<glyph unicode="&#x128;" horiz-adv-x="281" d="M212 772q-28 0 -74 28q-47 29 -64 29q-36 0 -41 -53h-49q2 48 25.5 79t61.5 31q28 0 74 -28t64 -28q19 0 27 12t14 40h49q-1 -49 -24.5 -79.5t-62.5 -30.5zM178 0h-74v700h74v-700z" />
<glyph unicode="&#x129;" horiz-adv-x="253" d="M197 589q-28 0 -74 28t-64 28q-37 0 -41 -52h-49q2 49 25.5 79.5t61.5 30.5q28 0 74 -28t64 -28q19 0 27 12t14 40h49q-1 -49 -24.5 -79.5t-62.5 -30.5zM163 0h-73v483h73v-483z" />
<glyph unicode="&#x12a;" horiz-adv-x="281" d="M178 0h-74v700h74v-700zM267 802h-252v55h252v-55z" />
<glyph unicode="&#x12b;" horiz-adv-x="253" d="M163 0h-73v483h73v-483zM252 618h-252v55h252v-55z" />
<glyph unicode="&#x12c;" horiz-adv-x="281" d="M3 896h57q1 -37 24 -62t58 -25q34 0 57 25t24 62h57q-2 -62 -41 -101q-40 -39 -97 -39q-58 0 -98 39t-41 101zM178 0h-74v700h74v-700z" />
<glyph unicode="&#x12d;" horiz-adv-x="253" d="M127 570q-57 0 -98 39q-39 39 -41 101h57q1 -37 24 -61.5t58 -24.5q34 0 57 24.5t24 61.5h57q-1 -59 -42 -100q-40 -40 -96 -40zM163 0h-73v483h73v-483z" />
<glyph unicode="&#x12e;" horiz-adv-x="281" d="M127 0h-23v700h74v-700q-37 -38 -37 -83q0 -29 19 -47t50 -18q19 0 40 7v-48q-20 -6 -51 -6q-51 0 -81.5 28t-30.5 71q0 53 40 96z" />
<glyph unicode="&#x12f;" horiz-adv-x="264" d="M117 0h-21v483h72v-483q-37 -38 -37 -83q0 -29 19 -47t50 -18q19 0 40 7v-48q-20 -6 -51 -6q-51 0 -81.5 28t-30.5 71q0 53 40 96zM96 613q-14 15 -14 36t14 36q15 15 36 15t36 -15t15 -36t-15 -36q-15 -14 -36 -14t-36 14z" />
<glyph unicode="&#x130;" horiz-adv-x="281" d="M178 0h-74v700h74v-700zM108 794q-14 14 -14 33t14 33t33 14t33 -14t14 -33t-14 -33t-33 -14t-33 14z" />
<glyph unicode="&#x131;" horiz-adv-x="253" d="M163 0h-73v483h73v-483z" />
<glyph unicode="&#x132;" horiz-adv-x="604" d="M178 254h-74v446h74v-446zM275 -12q-106 0 -171 46v76q67 -53 160 -53q175 0 175 169v474h74v-480q0 -115 -62.5 -173.5t-175.5 -58.5z" />
<glyph unicode="&#x134;" horiz-adv-x="502" d="M298 763h-71l111 133h72l111 -133h-71l-76 92zM191 -12q-98 0 -160 45v77q59 -53 147 -53q161 0 161 169v474h74v-487q0 -112 -58 -168.5t-164 -56.5z" />
<glyph unicode="&#x135;" horiz-adv-x="266" d="M26 -204q-54 0 -85 18v66q32 -19 70 -19q85 0 85 97v525h72v-536q0 -75 -38 -113t-104 -38zM56 576h-71l112 134h73l110 -134h-71l-77 92z" />
<glyph unicode="&#x136;" horiz-adv-x="661" d="M99 700h74v-304l324 304h98l-344 -320l397 -380h-104l-371 356v-356h-74v700zM334 -231h-57l56 177h75z" />
<glyph unicode="&#x137;" horiz-adv-x="539" d="M83 700h72v-416l230 199h98l-255 -218l291 -265h-103l-261 238v-238h-72v700zM261 -231h-57l56 177h75z" />
<glyph unicode="&#x138;" horiz-adv-x="541" d="M85 483h72v-199l230 199h98l-255 -218l291 -265h-103l-261 238v-238h-72v483z" />
<glyph unicode="&#x139;" horiz-adv-x="597" d="M564 0h-465v700h74v-633h391v-67zM172 763h-69l95 133h92z" />
<glyph unicode="&#x13a;" horiz-adv-x="292" d="M196 -12q-50 0 -80.5 29t-30.5 90v593h72v-576q0 -71 63 -71q25 0 47 13v-64q-26 -14 -71 -14zM160 763h-69l95 133h92z" />
<glyph unicode="&#x13b;" horiz-adv-x="597" d="M564 0h-465v700h74v-633h391v-67zM316 -231h-57l56 177h75z" />
<glyph unicode="&#x13c;" horiz-adv-x="292" d="M196 -12q-50 0 -80.5 29t-30.5 90v593h72v-576q0 -71 63 -71q25 0 47 13v-64q-26 -14 -71 -14zM158 -231h-57l56 177h75z" />
<glyph unicode="&#x13d;" horiz-adv-x="613" d="M564 0h-465v700h74v-633h391v-67zM499 523h-57l56 177h75z" />
<glyph unicode="&#x13e;" horiz-adv-x="368" d="M193 -12q-50 0 -80.5 29t-30.5 90v593h72v-576q0 -71 63 -71q25 0 47 13v-64q-26 -14 -71 -14zM304 523h-57l56 177h75z" />
<glyph unicode="&#x13f;" horiz-adv-x="597" d="M475 343q-15 15 -15 37t15 37t37 15t37 -15t15 -37t-15 -37t-37 -15t-37 15zM564 0h-465v700h74v-633h391v-67z" />
<glyph unicode="&#x140;" horiz-adv-x="399" d="M197 -12q-50 0 -80.5 29t-30.5 90v593h72v-576q0 -71 63 -71q25 0 47 13v-64q-26 -14 -71 -14zM265 343q-15 15 -15 37t15 37t37 15t37 -15t15 -37t-15 -37t-37 -15t-37 15z" />
<glyph unicode="&#x141;" horiz-adv-x="610" d="M17 266v71l95 58v305h74v-259l157 96v-71l-157 -96v-303h391v-67h-465v325z" />
<glyph unicode="&#x142;" horiz-adv-x="384" d="M41 263v71l101 62v304h72v-260l102 64v-71l-102 -63v-246q0 -71 64 -71q26 0 46 13v-65q-26 -14 -70 -14q-51 0 -81.5 29t-30.5 90v219z" />
<glyph unicode="&#x143;" horiz-adv-x="775" d="M171 0h-72v700h64l442 -572v572h72v-700h-63l-443 574v-574zM416 763h-69l95 133h92z" />
<glyph unicode="&#x144;" horiz-adv-x="610" d="M85 0v483h72v-74q77 86 193 86q89 0 136.5 -52.5t47.5 -148.5v-294h-72v278q0 149 -137 149q-50 0 -97 -31q-48 -31 -71 -70v-326h-72zM318 576h-70l96 134h92z" />
<glyph unicode="&#x145;" horiz-adv-x="775" d="M171 0h-72v700h64l442 -572v572h72v-700h-63l-443 574v-574zM377 -231h-57l56 177h75z" />
<glyph unicode="&#x146;" horiz-adv-x="610" d="M157 326v-326h-72v483h72v-74q77 86 193 86q89 0 136.5 -52.5t47.5 -148.5v-294h-72v278q0 149 -137 149q-50 0 -97 -31q-48 -31 -71 -70zM286 -231h-57l56 177h75z" />
<glyph unicode="&#x147;" horiz-adv-x="775" d="M423 763h-73l-110 133h71l76 -91l77 91h70zM171 0h-72v700h64l442 -572v572h72v-700h-63l-443 574v-574z" />
<glyph unicode="&#x148;" horiz-adv-x="610" d="M85 0v483h72v-74q77 86 193 86q89 0 136.5 -52.5t47.5 -148.5v-294h-72v278q0 149 -137 149q-50 0 -97 -31q-48 -31 -71 -70v-326h-72zM345 576h-73l-110 134h72l75 -92l77 92h70z" />
<glyph unicode="&#x149;" horiz-adv-x="697" d="M172 0v483h72v-74q77 86 193 86q89 0 136.5 -52.5t47.5 -148.5v-294h-72v278q0 149 -137 149q-50 0 -97 -31q-48 -31 -71 -70v-326h-72zM82 523h-57l56 177h75z" />
<glyph unicode="&#x14a;" horiz-adv-x="775" d="M499 -204q-69 0 -113 23v74q43 -28 96 -28q122 0 122 135v13l-432 562v-575h-73v700h63l442 -574v574h73v-709q0 -97 -46.5 -146t-131.5 -49z" />
<glyph unicode="&#x14b;" horiz-adv-x="610" d="M157 326v-326h-72v483h72v-74q77 86 193 86q89 0 136.5 -52.5t47.5 -148.5v-328q0 -170 -141 -170q-55 0 -86 18v67q35 -20 70 -20q45 0 65 27t20 87v303q0 149 -137 149q-50 0 -97 -31q-48 -31 -71 -70z" />
<glyph unicode="&#x14c;" horiz-adv-x="845" d="M170 608q101 104 252 104q150 0 251 -104t101 -258q0 -155 -101 -259q-100 -103 -251 -103q-152 0 -252 103t-100 259q0 155 100 258zM225 141q79 -84 197 -84t197 84q80 85 80 209t-80 209q-79 84 -197 84t-197 -84q-80 -85 -80 -209t80 -209zM548 802h-252v55h252v-55z " />
<glyph unicode="&#x14d;" horiz-adv-x="621" d="M123 420q73 75 188 75t188 -75q73 -73 73 -179t-73 -179q-74 -74 -188 -74t-188 74q-73 73 -73 179t73 179zM498 241q0 80 -53 135q-53 54 -134 54t-134 -54q-53 -55 -53 -135q0 -79 53 -134q53 -54 134 -54t134 54q53 55 53 134zM437 618h-252v55h252v-55z" />
<glyph unicode="&#x14e;" horiz-adv-x="845" d="M170 608q101 104 252 104q150 0 251 -104t101 -258q0 -155 -101 -259q-100 -103 -251 -103q-152 0 -252 103t-100 259q0 155 100 258zM225 141q79 -84 197 -84t197 84q80 85 80 209t-80 209q-79 84 -197 84t-197 -84q-80 -85 -80 -209t80 -209zM284 901h57q1 -37 24 -62 t58 -25q34 0 57 25t24 62h57q-1 -61 -41 -101q-40 -39 -97 -39t-98 39q-39 40 -41 101z" />
<glyph unicode="&#x14f;" horiz-adv-x="621" d="M123 420q73 75 188 75t188 -75q73 -73 73 -179t-73 -179q-74 -74 -188 -74t-188 74q-73 73 -73 179t73 179zM498 241q0 80 -53 135q-53 54 -134 54t-134 -54q-53 -55 -53 -135q0 -79 53 -134q53 -54 134 -54t134 54q53 55 53 134zM312 573q-57 0 -98 39q-40 40 -41 101 h57q1 -37 24 -61.5t58 -24.5q34 0 57 24.5t24 61.5h57q-1 -59 -42 -100q-40 -40 -96 -40z" />
<glyph unicode="&#x150;" horiz-adv-x="845" d="M170 608q101 104 252 104q150 0 251 -104t101 -258q0 -155 -101 -259q-100 -103 -251 -103q-152 0 -252 103t-100 259q0 155 100 258zM225 141q79 -84 197 -84t197 84q80 85 80 209t-80 209q-79 84 -197 84t-197 -84q-80 -85 -80 -209t80 -209zM535 763h-70l96 133h91z M363 763h-70l96 133h92z" />
<glyph unicode="&#x151;" horiz-adv-x="621" d="M123 420q73 75 188 75t188 -75q73 -73 73 -179t-73 -179q-74 -74 -188 -74t-188 74q-73 73 -73 179t73 179zM498 241q0 80 -53 135q-53 54 -134 54t-134 -54q-53 -55 -53 -135q0 -79 53 -134q53 -54 134 -54t134 54q53 55 53 134zM422 576h-70l96 134h91zM250 576h-70 l95 134h92z" />
<glyph unicode="&#x152;" horiz-adv-x="1127" d="M1081 0h-631q-169 0 -275 97q-105 97 -105 253t105 253q106 97 275 97h617v-67h-403v-224h330v-67h-330v-275h417v-67zM459 67h132v566h-132q-147 0 -230 -77t-83 -206q0 -131 82 -207t231 -76z" />
<glyph unicode="&#x153;" horiz-adv-x="1017" d="M967 244v-20h-397q6 -78 62.5 -124.5t143.5 -46.5q86 0 155 45v-64q-59 -46 -169 -46q-74 0 -135 32.5t-94 89.5q-30 -56 -89 -89t-133 -33q-114 0 -188 74q-73 73 -73 179t73 179q73 75 188 75q73 0 131.5 -33.5t89.5 -90.5q28 58 83 91t126 33q58 0 103 -23.5t71 -61.5 t39 -80.5t13 -85.5zM311 53q81 0 134 54q54 54 54 134q0 81 -54 135q-53 54 -134 54q-80 0 -134 -55q-53 -55 -53 -134t53 -134q54 -54 134 -54zM571 283h323q-3 56 -42 101q-37 46 -114 46q-72 0 -118 -44q-44 -44 -49 -103z" />
<glyph unicode="&#x154;" horiz-adv-x="736" d="M173 0h-74v700h313q102 0 161.5 -51.5t59.5 -138.5q0 -75 -43.5 -125t-121.5 -63l226 -322h-87l-220 315h-214v-315zM173 633v-251h235q72 0 111.5 32.5t39.5 92.5t-40 93t-111 33h-235zM343 763h-69l95 133h92z" />
<glyph unicode="&#x155;" horiz-adv-x="369" d="M157 0h-72v483h72v-92q27 47 80 75.5t112 28.5v-73q-33 0 -60 -9q-46 -12 -81 -41.5t-51 -66.5v-305zM206 576h-70l96 134h92z" />
<glyph unicode="&#x156;" horiz-adv-x="736" d="M173 0h-74v700h313q102 0 161.5 -51.5t59.5 -138.5q0 -75 -43.5 -125t-121.5 -63l226 -322h-87l-220 315h-214v-315zM173 633v-251h235q72 0 111.5 32.5t39.5 92.5t-40 93t-111 33h-235zM343 -231h-57l56 177h75z" />
<glyph unicode="&#x157;" horiz-adv-x="369" d="M157 0h-72v483h72v-92q27 47 80 75.5t112 28.5v-73q-33 0 -60 -9q-46 -12 -81 -41.5t-51 -66.5v-305zM83 -231h-57l56 177h75z" />
<glyph unicode="&#x158;" horiz-adv-x="736" d="M173 0h-74v700h313q102 0 161.5 -51.5t59.5 -138.5q0 -75 -43.5 -125t-121.5 -63l226 -322h-87l-220 315h-214v-315zM173 633v-251h235q72 0 111.5 32.5t39.5 92.5t-40 93t-111 33h-235zM374 763h-73l-110 133h71l76 -91l77 91h70z" />
<glyph unicode="&#x159;" horiz-adv-x="366" d="M244 576h-73l-110 134h72l75 -92l77 92h70zM154 0h-72v483h72v-92q27 47 80 75.5t112 28.5v-73q-33 0 -60 -9q-46 -12 -81 -41.5t-51 -66.5v-305z" />
<glyph unicode="&#x15a;" horiz-adv-x="627" d="M307 -12q-76 0 -145.5 20.5t-113.5 53.5v83q42 -36 109 -62q72 -26 145 -26q83 0 136 36t53 96q6 56 -58 95q-13 10 -42 20l-44 15q-3 1 -12 3.5t-19.5 6t-21.5 6.5q-62 18 -74 22q-32 11 -62 25q-33 16 -52 35q-44 46 -44 114q0 79 64 130t178 51q126 0 218 -58v-76 q-104 65 -216 65q-81 0 -125 -32t-44 -82q-6 -40 45 -79q8 -7 33 -16l34 -13l43 -12l42 -12q55 -17 69 -22q29 -10 61 -27q33 -17 54 -38q49 -45 49 -120q0 -94 -76 -148q-75 -54 -184 -54zM314 763h-69l95 133h92z" />
<glyph unicode="&#x15b;" horiz-adv-x="509" d="M249 -12q-58 0 -113.5 14.5t-86.5 35.5v74q88 -59 198 -59q62 0 97.5 20.5t35.5 56.5q0 31 -34 51q-10 8 -51 18q-12 4 -33 8q-27 7 -33 8q-91 23 -130 54.5t-39 91.5q0 63 51 98.5t143 35.5q109 0 176 -43v-71q-82 49 -173 49q-61 0 -92.5 -19t-31.5 -52q0 -36 37 -54 q7 -2 17.5 -6.5t21.5 -7.5l22 -6q24 -8 48 -11q90 -22 132.5 -54t42.5 -91q0 -66 -58 -103q-58 -38 -147 -38zM254 576h-70l96 134h92z" />
<glyph unicode="&#x15c;" horiz-adv-x="627" d="M307 -12q-76 0 -145.5 20.5t-113.5 53.5v83q42 -36 109 -62q72 -26 145 -26q83 0 136 36t53 96q6 56 -58 95q-13 10 -42 20l-44 15q-3 1 -12 3.5t-19.5 6t-21.5 6.5q-62 18 -74 22q-32 11 -62 25q-33 16 -52 35q-44 46 -44 114q0 79 64 130t178 51q126 0 218 -58v-76 q-104 65 -216 65q-81 0 -125 -32t-44 -82q-6 -40 45 -79q8 -7 33 -16l34 -13l43 -12l42 -12q55 -17 69 -22q29 -10 61 -27q33 -17 54 -38q49 -45 49 -120q0 -94 -76 -148q-75 -54 -184 -54zM236 763h-71l111 133h72l111 -133h-71l-76 92z" />
<glyph unicode="&#x15d;" horiz-adv-x="509" d="M249 -12q-58 0 -113.5 14.5t-86.5 35.5v74q88 -59 198 -59q62 0 97.5 20.5t35.5 56.5q0 31 -34 51q-10 8 -51 18q-12 4 -33 8q-27 7 -33 8q-91 23 -130 54.5t-39 91.5q0 63 51 98.5t143 35.5q109 0 176 -43v-71q-82 49 -173 49q-61 0 -92.5 -19t-31.5 -52q0 -36 37 -54 q7 -2 17.5 -6.5t21.5 -7.5l22 -6q24 -8 48 -11q90 -22 132.5 -54t42.5 -91q0 -66 -58 -103q-58 -38 -147 -38zM177 576h-71l112 134h73l110 -134h-71l-77 92z" />
<glyph unicode="&#x15e;" horiz-adv-x="627" d="M294 -132h-87l84 120q-148 5 -243 74v83q42 -36 109 -62q72 -26 145 -26q83 0 136 36t53 96q6 56 -58 95q-13 10 -42 20l-44 15q-3 1 -12 3.5t-19.5 6t-21.5 6.5q-62 18 -74 22q-32 11 -62 25q-33 16 -52 35q-44 46 -44 114q0 79 64 130t178 51q126 0 218 -58v-76 q-104 65 -216 65q-81 0 -125 -32t-44 -82q-6 -40 45 -79q8 -7 33 -16l34 -13l43 -12l42 -12q55 -17 69 -22q29 -10 61 -27q33 -17 54 -38q49 -45 49 -120q0 -82 -59 -135q-58 -51 -151 -63z" />
<glyph unicode="&#x15f;" horiz-adv-x="509" d="M230 -132h-87l84 121q-112 5 -178 49v74q88 -59 198 -59q62 0 97.5 20.5t35.5 56.5q0 31 -34 51q-10 8 -51 18q-12 4 -33 8q-27 7 -33 8q-91 23 -130 54.5t-39 91.5q0 63 51 98.5t143 35.5q109 0 176 -43v-71q-82 49 -173 49q-61 0 -92.5 -19t-31.5 -52q0 -36 37 -54 q7 -2 17.5 -6.5t21.5 -7.5l22 -6q24 -8 48 -11q90 -22 132.5 -54t42.5 -91q0 -56 -43.5 -93t-117.5 -45z" />
<glyph unicode="&#x160;" horiz-adv-x="627" d="M307 -12q-76 0 -145.5 20.5t-113.5 53.5v83q42 -36 109 -62q72 -26 145 -26q83 0 136 36t53 96q6 56 -58 95q-13 10 -42 20l-44 15q-3 1 -12 3.5t-19.5 6t-21.5 6.5q-62 18 -74 22q-32 11 -62 25q-33 16 -52 35q-44 46 -44 114q0 79 64 130t178 51q126 0 218 -58v-76 q-104 65 -216 65q-81 0 -125 -32t-44 -82q-6 -40 45 -79q8 -7 33 -16l34 -13l43 -12l42 -12q55 -17 69 -22q29 -10 61 -27q33 -17 54 -38q49 -45 49 -120q0 -94 -76 -148q-75 -54 -184 -54zM337 763h-73l-110 133h71l76 -91l77 91h70z" />
<glyph unicode="&#x161;" horiz-adv-x="509" d="M249 -12q-58 0 -113.5 14.5t-86.5 35.5v74q88 -59 198 -59q62 0 97.5 20.5t35.5 56.5q0 31 -34 51q-10 8 -51 18q-12 4 -33 8q-27 7 -33 8q-91 23 -130 54.5t-39 91.5q0 63 51 98.5t143 35.5q109 0 176 -43v-71q-82 49 -173 49q-61 0 -92.5 -19t-31.5 -52q0 -36 37 -54 q7 -2 17.5 -6.5t21.5 -7.5l22 -6q24 -8 48 -11q90 -22 132.5 -54t42.5 -91q0 -66 -58 -103q-58 -38 -147 -38zM289 576h-73l-110 134h72l75 -92l77 92h70z" />
<glyph unicode="&#x162;" horiz-adv-x="630" d="M190 -132l87 132v633h-241v67h559v-67h-244v-633l-74 -132h-87z" />
<glyph unicode="&#x163;" horiz-adv-x="430" d="M141 137v283h-114v63h114v149h72v-149h169v-63h-169v-261q0 -58 19 -80q20 -23 65 -23q44 0 79 20v-66q-26 -17 -79 -21l-62 -121h-87l87 125q-94 21 -94 144z" />
<glyph unicode="&#x164;" horiz-adv-x="630" d="M351 763h-73l-110 133h71l76 -91l77 91h70zM351 0h-74v633h-241v67h559v-67h-244v-633z" />
<glyph unicode="&#x165;" horiz-adv-x="557" d="M288 -12q-67 0 -101.5 39.5t-34.5 109.5v283h-114v63h114v149h72v-149h169v-63h-169v-261q0 -57 19.5 -80t64.5 -23q44 0 79 20v-66q-31 -22 -99 -22zM493 523h-57l56 177h75z" />
<glyph unicode="&#x166;" horiz-adv-x="630" d="M351 0h-74v338h-134v67h134v228h-241v67h559v-67h-244v-228h135v-67h-135v-338z" />
<glyph unicode="&#x167;" horiz-adv-x="430" d="M277 -12q-67 0 -101.5 39.5t-34.5 109.5v94h-114v63h114v126h-114v63h114v149h72v-149h169v-63h-169v-126h169v-63h-169v-72q0 -58 19 -80q20 -23 65 -23q44 0 79 20v-66q-31 -22 -99 -22z" />
<glyph unicode="&#x168;" horiz-adv-x="748" d="M445 772q-28 0 -74 28q-47 29 -64 29q-36 0 -41 -53h-49q2 48 25.5 79t61.5 31q28 0 74 -28t64 -28q19 0 27 12t14 40h49q-1 -49 -24.5 -79.5t-62.5 -30.5zM374 -12q-128 0 -207 81q-79 80 -79 229v402h74v-403q0 -113 56.5 -176.5t155.5 -63.5t155.5 63.5t56.5 176.5 v403h74v-402q0 -147 -80 -229q-80 -81 -206 -81z" />
<glyph unicode="&#x169;" horiz-adv-x="611" d="M526 483v-483h-72v74q-77 -86 -193 -86q-89 0 -136.5 52.5t-47.5 148.5v294h72v-278q0 -149 137 -149q50 0 96 30q49 32 72 71v326h72zM372 589q-28 0 -74 28t-64 28q-37 0 -41 -52h-49q2 49 25.5 79.5t61.5 30.5q28 0 74 -28t64 -28q19 0 27 12t14 40h49 q-1 -49 -24.5 -79.5t-62.5 -30.5z" />
<glyph unicode="&#x16a;" horiz-adv-x="748" d="M374 -12q-128 0 -207 81q-79 80 -79 229v402h74v-403q0 -113 56.5 -176.5t155.5 -63.5t155.5 63.5t56.5 176.5v403h74v-402q0 -147 -80 -229q-80 -81 -206 -81zM501 802h-252v55h252v-55z" />
<glyph unicode="&#x16b;" horiz-adv-x="611" d="M526 483v-483h-72v74q-77 -86 -193 -86q-89 0 -136.5 52.5t-47.5 148.5v294h72v-278q0 -149 137 -149q50 0 96 30q49 32 72 71v326h72zM427 618h-252v55h252v-55z" />
<glyph unicode="&#x16c;" horiz-adv-x="748" d="M374 -12q-128 0 -207 81q-79 80 -79 229v402h74v-403q0 -113 56.5 -176.5t155.5 -63.5t155.5 63.5t56.5 176.5v403h74v-402q0 -147 -80 -229q-80 -81 -206 -81zM236 896h57q1 -37 24 -62t58 -25q34 0 57 25t24 62h57q-1 -62 -41 -101t-97 -39t-98 39q-39 39 -41 101z" />
<glyph unicode="&#x16d;" horiz-adv-x="611" d="M526 483v-483h-72v74q-77 -86 -193 -86q-89 0 -136.5 52.5t-47.5 148.5v294h72v-278q0 -149 137 -149q50 0 96 30q49 32 72 71v326h72zM302 570q-58 0 -98 39t-41 101h57q1 -37 24 -61.5t58 -24.5q34 0 57 24.5t24 61.5h57q-1 -59 -42 -100q-40 -40 -96 -40z" />
<glyph unicode="&#x16e;" horiz-adv-x="748" d="M376 926q39 0 67 -28t28 -68t-28 -68t-67 -28q-40 0 -68.5 28t-28.5 68t28.5 68t68.5 28zM376 774q23 0 39 16.5t16 39.5q0 24 -16 40t-39 16q-24 0 -40.5 -16t-16.5 -40q0 -23 16.5 -39.5t40.5 -16.5zM374 -12q-128 0 -207 81q-79 80 -79 229v402h74v-403 q0 -113 56.5 -176.5t155.5 -63.5t155.5 63.5t56.5 176.5v403h74v-402q0 -147 -80 -229q-80 -81 -206 -81z" />
<glyph unicode="&#x16f;" horiz-adv-x="611" d="M526 483v-483h-72v74q-77 -86 -193 -86q-89 0 -136.5 52.5t-47.5 148.5v294h72v-278q0 -149 137 -149q50 0 96 30q49 32 72 71v326h72zM233 714q28 28 68 28t68 -28t28 -68t-28 -68t-68 -28t-68 28t-28 68t28 68zM301 590q24 0 40 16.5t16 39.5q0 24 -16 40t-40 16 q-23 0 -39.5 -16t-16.5 -40q0 -23 16.5 -39.5t39.5 -16.5z" />
<glyph unicode="&#x170;" horiz-adv-x="748" d="M374 -12q-128 0 -207 81q-79 80 -79 229v402h74v-403q0 -113 56.5 -176.5t155.5 -63.5t155.5 63.5t56.5 176.5v403h74v-402q0 -147 -80 -229q-80 -81 -206 -81zM477 763h-70l96 133h91zM305 763h-70l96 133h92z" />
<glyph unicode="&#x171;" horiz-adv-x="612" d="M526 483v-483h-72v74q-77 -86 -193 -86q-89 0 -136.5 52.5t-47.5 148.5v294h72v-278q0 -149 137 -149q50 0 96 30q49 32 72 71v326h72zM410 576h-70l96 134h91zM238 576h-70l95 134h92z" />
<glyph unicode="&#x172;" horiz-adv-x="748" d="M490 -189q-50 -2 -81.5 28t-30.5 71t30 81q-15 -3 -34 -3q-128 0 -207 81q-79 80 -79 229v402h74v-403q0 -113 56.5 -176.5t155.5 -63.5t155.5 63.5t56.5 176.5v403h74v-402q0 -100 -35.5 -166t-111.5 -112q-81 -48 -81 -97q0 -29 19 -47t50 -18q19 0 40 7v-48 q-19 -6 -51 -6z" />
<glyph unicode="&#x173;" horiz-adv-x="612" d="M547 -195q-51 0 -81.5 28t-30.5 71q0 53 40 96h-21v74q-77 -86 -193 -86q-89 0 -136.5 52.5t-47.5 148.5v294h72v-278q0 -149 137 -149q50 0 96 30q49 32 72 71v326h72v-483q-37 -38 -37 -83q0 -29 19 -47t50 -18q19 0 40 7v-48q-20 -6 -51 -6z" />
<glyph unicode="&#x174;" horiz-adv-x="1053" d="M346 -4h-65l-242 704h82l195 -583l181 586h60l182 -586l194 583h80l-241 -704h-65l-180 578zM450 763h-71l111 133h72l111 -133h-71l-76 92z" />
<glyph unicode="&#x175;" horiz-adv-x="827" d="M274 -3h-63l-173 486h74l135 -376l132 378h61l133 -378l134 376h73l-173 -486h-63l-136 379zM333 576h-71l112 134h73l110 -134h-71l-77 92z" />
<glyph unicode="&#x176;" horiz-adv-x="664" d="M369 0h-74v321l-272 379h86l224 -310l224 310h84l-272 -378v-322zM256 763h-71l111 133h72l111 -133h-71l-76 92z" />
<glyph unicode="&#x177;" horiz-adv-x="555" d="M112 -204q-52 0 -77 14v67q31 -16 66 -16q44 0 76 36.5t67 120.5l-215 465h80l171 -380l166 380h78l-239 -537q-65 -150 -173 -150zM204 576h-71l112 134h73l110 -134h-71l-77 92z" />
<glyph unicode="&#x178;" horiz-adv-x="664" d="M369 0h-74v321l-272 379h86l224 -310l224 310h84l-272 -378v-322zM202 794q-14 14 -14 34t14 33q14 14 33 14t33 -14q14 -13 14 -33t-14 -34q-14 -13 -33 -13t-33 13zM402 794q-14 14 -14 34t14 33q14 14 33 14t33 -14q14 -13 14 -33t-14 -34q-14 -13 -33 -13t-33 13z " />
<glyph unicode="&#x179;" horiz-adv-x="642" d="M593 0h-544v53l429 580h-405v67h504v-52l-425 -581h441v-67zM340 763h-69l95 133h92z" />
<glyph unicode="&#x17a;" horiz-adv-x="504" d="M465 0h-427v48l308 372h-287v63h390v-50l-307 -370h323v-63zM261 576h-70l96 134h92z" />
<glyph unicode="&#x17b;" horiz-adv-x="642" d="M593 0h-544v53l429 580h-405v67h504v-52l-425 -581h441v-67zM288 794q-14 14 -14 33t14 33t33 14t33 -14t14 -33t-14 -33t-33 -14t-33 14z" />
<glyph unicode="&#x17c;" horiz-adv-x="504" d="M465 0h-427v48l308 372h-287v63h390v-50l-307 -370h323v-63zM218 612q-14 14 -14 34t14 33q14 14 33 14t33 -14q14 -13 14 -33t-14 -34q-14 -13 -33 -13t-33 13z" />
<glyph unicode="&#x17d;" horiz-adv-x="642" d="M357 763h-73l-110 133h71l76 -91l77 91h70zM593 0h-544v53l429 580h-405v67h504v-52l-425 -581h441v-67z" />
<glyph unicode="&#x17e;" horiz-adv-x="504" d="M286 576h-73l-110 134h72l75 -92l77 92h70zM465 0h-427v48l308 372h-287v63h390v-50l-307 -370h323v-63z" />
<glyph unicode="&#x17f;" horiz-adv-x="343" d="M195 550v-550h-72v420h-96v63h96v81q0 67 36 105.5t102 38.5q61 0 102 -19v-66q-48 20 -84 20q-84 0 -84 -93z" />
<glyph unicode="&#x192;" horiz-adv-x="523" d="M26 -204q-49 0 -85 17v65q40 -17 72 -17q55 0 90 37.5t45 107.5l50 333h-128v63h139l18 115q32 191 191 191q52 0 87 -16v-66q-40 17 -74 17q-57 0 -89 -33t-44 -108l-16 -100h160v-63h-170l-54 -350q-15 -90 -63.5 -141.5t-128.5 -51.5z" />
<glyph unicode="&#x218;" horiz-adv-x="627" d="M307 -12q-76 0 -145.5 20.5t-113.5 53.5v83q42 -36 109 -62q72 -26 145 -26q83 0 136 36t53 96q6 56 -58 95q-13 10 -42 20l-44 15q-3 1 -12 3.5t-19.5 6t-21.5 6.5q-62 18 -74 22q-32 11 -62 25q-33 16 -52 35q-44 46 -44 114q0 79 64 130t178 51q126 0 218 -58v-76 q-104 65 -216 65q-81 0 -125 -32t-44 -82q-6 -40 45 -79q8 -7 33 -16l34 -13l43 -12l42 -12q55 -17 69 -22q29 -10 61 -27q33 -17 54 -38q49 -45 49 -120q0 -94 -76 -148q-75 -54 -184 -54zM286 -231h-57l56 177h75z" />
<glyph unicode="&#x219;" horiz-adv-x="509" d="M249 -12q-58 0 -113.5 14.5t-86.5 35.5v74q88 -59 198 -59q62 0 97.5 20.5t35.5 56.5q0 31 -34 51q-10 8 -51 18q-12 4 -33 8q-27 7 -33 8q-91 23 -130 54.5t-39 91.5q0 63 51 98.5t143 35.5q109 0 176 -43v-71q-82 49 -173 49q-61 0 -92.5 -19t-31.5 -52q0 -36 37 -54 q7 -2 17.5 -6.5t21.5 -7.5l22 -6q24 -8 48 -11q90 -22 132.5 -54t42.5 -91q0 -66 -58 -103q-58 -38 -147 -38zM229 -231h-57l56 177h75z" />
<glyph unicode="&#x21a;" horiz-adv-x="630" d="M351 0h-74v633h-241v67h559v-67h-244v-633zM278 -231h-57l56 177h75z" />
<glyph unicode="&#x21b;" horiz-adv-x="430" d="M277 -12q-67 0 -101.5 39.5t-34.5 109.5v283h-114v63h114v149h72v-149h169v-63h-169v-261q0 -58 19 -80q20 -23 65 -23q44 0 79 20v-66q-31 -22 -99 -22zM241 -231h-57l56 177h75z" />
<glyph unicode="&#x2c6;" horiz-adv-x="532" d="M190 576h-71l112 134h73l110 -134h-71l-77 92z" />
<glyph unicode="&#x2c7;" horiz-adv-x="498" d="M285 576h-73l-110 134h72l75 -92l77 92h70z" />
<glyph unicode="&#x2c9;" horiz-adv-x="516" d="M424 618h-331v53h331v-53z" />
<glyph unicode="&#x2d8;" horiz-adv-x="506" d="M252 570q-58 0 -98 39t-41 101h57q1 -37 24 -61.5t58 -24.5q34 0 57 24.5t24 61.5h57q-1 -59 -42 -100q-40 -40 -96 -40z" />
<glyph unicode="&#x2d9;" horiz-adv-x="545" d="M238 612q-13 14 -13 34t13 33q14 14 34 14t33 -14q14 -13 14 -33t-14 -34q-13 -13 -33 -13t-34 13z" />
<glyph unicode="&#x2da;" horiz-adv-x="538" d="M195 714q28 28 68 28t68 -28t28 -68t-28 -68t-68 -28t-68 28t-28 68t28 68zM263 590q24 0 40 16.5t16 39.5q0 24 -16 40t-40 16q-23 0 -39.5 -16t-16.5 -40q0 -23 16.5 -39.5t39.5 -16.5z" />
<glyph unicode="&#x2db;" horiz-adv-x="513" d="M308 -189q-51 0 -81.5 28t-30.5 71q0 53 40 96h51q-37 -38 -37 -83q0 -29 19 -47t50 -18q19 0 40 7v-48q-19 -6 -51 -6z" />
<glyph unicode="&#x2dc;" horiz-adv-x="519" d="M329 589q-28 0 -74 28t-64 28q-37 0 -41 -52h-49q2 49 25.5 79.5t61.5 30.5q28 0 74 -28t64 -28q19 0 27 12t14 40h49q-1 -49 -24.5 -79.5t-62.5 -30.5z" />
<glyph unicode="&#x2dd;" horiz-adv-x="574" d="M354 576h-70l96 134h91zM182 576h-70l95 134h92z" />
<glyph unicode="&#x301;" horiz-adv-x="20" d="M-250 576h-70l96 134h92z" />
<glyph unicode="&#x37e;" horiz-adv-x="242" d="M73 -152h-58l80 255h84zM96 381q-15 15 -15 37t15 37t37 15t37 -15t15 -37t-15 -37t-37 -15t-37 15z" />
<glyph unicode="&#x394;" horiz-adv-x="753" d="M724 0h-694l312 700h69zM376 607l-242 -540h484z" />
<glyph unicode="&#x3a9;" horiz-adv-x="804" d="M310 0h-208v67h117q-54 54 -87 134t-33 167q0 148 84 246t219 98t219 -98t84 -246q0 -88 -33 -168t-88 -133h117v-67h-208v57q57 47 97 128q40 79 40 172q0 126 -65 206t-163 80q-100 0 -165 -80q-64 -79 -64 -206q0 -93 39 -172q42 -82 98 -128v-57z" />
<glyph unicode="&#x3bc;" horiz-adv-x="619" d="M462 157v326h72v-483h-72v74q-77 -86 -193 -86q-65 0 -112 30v-218h-72v683h72v-278q0 -149 137 -149q50 0 96 30q49 32 72 71z" />
<glyph unicode="&#x3c0;" horiz-adv-x="685" d="M564 -6q-110 0 -110 131v295h-248v-420h-72v420h-93v63h583v-63h-98v-274q0 -46 13.5 -66.5t44.5 -20.5q24 0 40 10v-61q-23 -14 -60 -14z" />
<glyph unicode="&#x401;" horiz-adv-x="640" d="M594 0h-495v700h480v-67h-406v-224h333v-67h-333v-275h421v-67zM214 794q-14 14 -14 34t14 33q14 14 33 14t33 -14q14 -13 14 -33t-14 -34q-14 -13 -33 -13t-33 13zM414 794q-14 14 -14 34t14 33q14 14 33 14t33 -14q14 -13 14 -33t-14 -34q-14 -13 -33 -13t-33 13z" />
<glyph unicode="&#x402;" horiz-adv-x="757" d="M490 -10q-64 0 -106 16v68q48 -17 97 -17q71 0 113 39t42 103q0 62 -49 105q-50 44 -135 44q-106 0 -192 -44v-304h-74v633h-150v67h486v-67h-262v-258q93 42 202 42q111 0 178 -61q69 -61 69 -158q0 -92 -60 -150q-58 -58 -159 -58z" />
<glyph unicode="&#x403;" horiz-adv-x="605" d="M173 0h-74v700h469v-67h-395v-633zM344 763h-69l95 133h92z" />
<glyph unicode="&#x404;" horiz-adv-x="688" d="M428 -12q-151 0 -255 104q-103 103 -103 258q0 154 102 258q104 104 256 104q112 0 194 -52v-76q-92 59 -196 59q-107 0 -186 -71q-76 -70 -87 -181h325v-67h-328q8 -117 86 -192q80 -75 192 -75q125 0 210 70v-78q-82 -61 -210 -61z" />
<glyph unicode="&#x405;" horiz-adv-x="626" d="M306 -12q-76 0 -145.5 20.5t-113.5 53.5v83q42 -36 109 -62q72 -26 145 -26q83 0 136 36t53 96q6 56 -58 95q-13 10 -42 20l-44 15q-3 1 -12 3.5t-19.5 6t-21.5 6.5q-62 18 -74 22q-32 11 -62 25q-33 16 -52 35q-44 46 -44 114q0 79 64 130q65 51 178 51q126 0 218 -58 v-76q-104 65 -216 65q-81 0 -125 -32t-44 -82q-6 -40 45 -79q8 -7 33 -16l34 -13l43 -12l42 -12q55 -17 69 -22q29 -10 61 -27q33 -17 54 -38q49 -45 49 -120q0 -94 -76 -148q-75 -54 -184 -54z" />
<glyph unicode="&#x406;" horiz-adv-x="281" d="M178 0h-74v700h74v-700z" />
<glyph unicode="&#x407;" horiz-adv-x="280" d="M176 0h-74v700h74v-700zM6 794q-13 14 -13 34t13 33q14 14 34 14t33 -14q14 -13 14 -33t-14 -34q-13 -13 -33 -13t-34 13zM206 794q-13 14 -13 34t13 33q14 14 34 14t33 -14q14 -13 14 -33t-14 -34q-13 -13 -33 -13t-34 13z" />
<glyph unicode="&#x408;" horiz-adv-x="507" d="M196 -12q-98 0 -160 45v77q59 -53 147 -53q161 0 161 169v474h74v-487q0 -112 -58 -168.5t-164 -56.5z" />
<glyph unicode="&#x409;" horiz-adv-x="1113" d="M620 372v-305h189q86 0 134 39.5t48 112.5t-47.5 113t-134.5 40h-189zM189 528l3 172h428v-261h194q119 0 184 -61q67 -61 67 -159q0 -100 -67 -159.5t-184 -59.5h-268v633h-282l-5 -160q-6 -197 -30 -296q-21 -90 -65.5 -132.5t-122.5 -45.5q-23 0 -28 1v68q10 -2 28 -2 q46 0 74.5 33.5t45.5 96.5q10 35 16 94q7 66 8 110q2 40 4 128z" />
<glyph unicode="&#x40a;" horiz-adv-x="1136" d="M173 0h-74v700h74v-261h396v261h74v-261h194q119 0 184 -61q67 -61 67 -159q0 -100 -67 -159.5t-184 -59.5h-268v372h-396v-372zM643 372v-305h189q87 0 134.5 39.5t47.5 112.5t-47.5 113t-134.5 40h-189z" />
<glyph unicode="&#x40b;" horiz-adv-x="779" d="M260 0h-74v633h-150v67h486v-67h-262v-253q102 37 204 37q122 0 183.5 -51.5t61.5 -163.5v-202h-74v185q0 90 -43 126.5t-144 36.5q-99 0 -188 -40v-308z" />
<glyph unicode="&#x40c;" horiz-adv-x="661" d="M99 700h74v-304l324 304h98l-344 -320l397 -380h-104l-371 356v-356h-74v700zM344 763h-69l95 133h92z" />
<glyph unicode="&#x40e;" horiz-adv-x="646" d="M177 -12q-54 0 -88 14v69q36 -14 76 -14q53 0 86 44q16 21 28 42q7 12 28 54l-282 503h82l236 -427l197 427h79l-258 -552q-40 -85 -84.5 -122.5t-99.5 -37.5zM323 749q-75 0 -120.5 41.5t-46.5 110.5h64q0 -42 28 -68t75 -26q45 0 72.5 26t28.5 68h64q-2 -69 -48 -111 q-47 -41 -117 -41z" />
<glyph unicode="&#x40f;" horiz-adv-x="741" d="M405 -156h-70v156h-236v700h74v-633h396v633h74v-700h-238v-156z" />
<glyph unicode="&#x410;" horiz-adv-x="753" d="M107 0h-77l312 704h69l313 -704h-78l-87 193h-367zM376 611l-159 -353h318z" />
<glyph unicode="&#x411;" horiz-adv-x="697" d="M385 0h-286v700h478v-67h-404v-198h212q117 0 182 -60q66 -60 66 -158q0 -99 -66 -158t-182 -59zM173 368v-301h205q86 0 133.5 39.5t47.5 111.5q0 71 -47.5 110.5t-133.5 39.5h-205z" />
<glyph unicode="&#x412;" horiz-adv-x="726" d="M433 0h-334v700h303q93 0 147 -45.5t54 -124.5q0 -54 -24.5 -93t-67.5 -55q70 -11 111 -61t41 -126q0 -89 -62 -142t-168 -53zM173 339v-272h247q78 0 121 36t43 101q0 64 -43 99.5t-121 35.5h-247zM173 633v-229h217q67 0 103.5 29t36.5 84q0 56 -36.5 86t-103.5 30 h-217z" />
<glyph unicode="&#x413;" horiz-adv-x="605" d="M173 0h-74v700h469v-67h-395v-633z" />
<glyph unicode="&#x414;" horiz-adv-x="776" d="M86 -156h-69v223h66q65 91 93 213q29 124 29 336v84h432v-633h106v-223h-69v156h-588v-156zM166 67h397v566h-285v-47q0 -358 -112 -519z" />
<glyph unicode="&#x415;" horiz-adv-x="640" d="M594 0h-495v700h480v-67h-406v-224h333v-67h-333v-275h421v-67z" />
<glyph unicode="&#x416;" horiz-adv-x="987" d="M68 700h94l293 -311v311h74v-313l295 313h94l-314 -332l354 -368h-99l-330 344v-344h-74v342l-328 -342h-98l353 368z" />
<glyph unicode="&#x417;" horiz-adv-x="626" d="M281 -12q-140 0 -236 54v76q103 -61 225 -61q100 0 158.5 40.5t58.5 108.5q0 61 -54 100t-141 39h-86v67h94q74 0 115.5 30.5t41.5 85.5q0 54 -47 84.5t-124 30.5q-103 0 -208 -49v70q103 48 211 48q106 0 173 -49q68 -50 68 -131q0 -62 -36 -100q-35 -37 -78 -50 q58 -18 102 -63q45 -43 45 -118q0 -93 -76 -153q-77 -60 -206 -60z" />
<glyph unicode="&#x418;" horiz-adv-x="770" d="M161 0h-62v700h73v-576l435 576h65v-700h-73v578z" />
<glyph unicode="&#x419;" horiz-adv-x="770" d="M161 0h-62v700h73v-576l435 576h65v-700h-73v578zM385 749q-75 0 -120.5 41.5t-46.5 110.5h64q0 -42 28 -68t75 -26q45 0 72.5 26t28.5 68h64q-2 -69 -48 -111q-47 -41 -117 -41z" />
<glyph unicode="&#x41a;" horiz-adv-x="661" d="M99 700h74v-304l324 304h98l-344 -320l397 -380h-104l-371 356v-356h-74v700z" />
<glyph unicode="&#x41b;" horiz-adv-x="728" d="M13 0v68q10 -2 28 -2q46 0 73.5 32t44.5 93q12 41 16 90q6 56 9 106q2 37 4 122l4 191h438v-700h-74v633h-292l-5 -160q-6 -197 -30 -296q-21 -90 -65.5 -132.5t-122.5 -45.5q-23 0 -28 1z" />
<glyph unicode="&#x41c;" horiz-adv-x="848" d="M172 0h-73v700h73l253 -339l253 339h72v-700h-73v588l-229 -306h-45l-231 306v-588z" />
<glyph unicode="&#x41d;" horiz-adv-x="761" d="M173 0h-74v700h74v-291h416v291h74v-700h-74v342h-416v-342z" />
<glyph unicode="&#x41e;" horiz-adv-x="845" d="M170 608q101 104 252 104q150 0 251 -104t101 -258q0 -155 -101 -259q-100 -103 -251 -103q-152 0 -252 103t-100 259q0 155 100 258zM225 141q79 -84 197 -84t197 84q80 85 80 209t-80 209q-79 84 -197 84t-197 -84q-80 -85 -80 -209t80 -209z" />
<glyph unicode="&#x41f;" horiz-adv-x="746" d="M173 0h-74v700h549v-700h-74v633h-401v-633z" />
<glyph unicode="&#x420;" horiz-adv-x="665" d="M173 0h-74v700h294q104 0 164 -53t60 -141q0 -90 -60 -143.5t-164 -53.5h-220v-309zM173 633v-257h215q74 0 115 33.5t41 94.5q0 62 -40.5 95.5t-115.5 33.5h-215z" />
<glyph unicode="&#x421;" horiz-adv-x="690" d="M429 -12q-153 0 -257 102q-102 102 -102 260q0 157 102 259q103 103 257 103q114 0 196 -52v-76q-92 59 -195 59q-120 0 -203 -84q-82 -82 -82 -209q0 -128 82 -210q83 -83 205 -83t208 70v-77q-86 -62 -211 -62z" />
<glyph unicode="&#x422;" horiz-adv-x="630" d="M351 0h-74v633h-241v67h559v-67h-244v-633z" />
<glyph unicode="&#x423;" horiz-adv-x="646" d="M177 -12q-54 0 -88 14v69q36 -14 76 -14q53 0 86 44q16 21 28 42q7 12 28 54l-282 503h82l236 -427l197 427h79l-258 -552q-40 -85 -84.5 -122.5t-99.5 -37.5z" />
<glyph unicode="&#x424;" horiz-adv-x="912" d="M492 -21h-74v72q-171 3 -260 89q-88 85 -88 211q0 124 88 212t260 91v64h74v-64q172 -3 260 -90q89 -87 89 -212q0 -124 -89 -211q-88 -87 -260 -90v-72zM418 118v469q-137 -1 -205 -69q-67 -67 -67 -166q0 -98 67 -165q68 -68 205 -69zM492 587v-469q72 1 126.5 21 t85.5 53.5t46 73.5t15 86q0 99 -67 166q-68 68 -206 69z" />
<glyph unicode="&#x425;" horiz-adv-x="708" d="M116 0h-87l281 380l-235 320h87l193 -260l194 260h85l-235 -319l281 -381h-88l-238 321z" />
<glyph unicode="&#x426;" horiz-adv-x="781" d="M748 -156h-68v156h-581v700h74v-633h396v633h74v-633h105v-223z" />
<glyph unicode="&#x427;" horiz-adv-x="691" d="M593 0h-74v315q-98 -37 -204 -37q-122 0 -183.5 51.5t-61.5 163.5v207h74v-188q0 -91 43 -128t144 -37q94 0 188 41v312h74v-700z" />
<glyph unicode="&#x428;" horiz-adv-x="1021" d="M849 700h74v-700h-824v700h74v-633h301v633h74v-633h301v633z" />
<glyph unicode="&#x429;" horiz-adv-x="1062" d="M1029 -156h-70v156h-860v700h74v-633h301v633h74v-633h301v633h74v-633h106v-223z" />
<glyph unicode="&#x42a;" horiz-adv-x="791" d="M492 0h-283v633h-192v67h266v-261h209q119 0 184 -61q67 -61 67 -159q0 -100 -67 -159.5t-184 -59.5zM283 372v-305h204q86 0 134 39.5t48 112.5t-47.5 113t-134.5 40h-204z" />
<glyph unicode="&#x42b;" horiz-adv-x="887" d="M789 0h-74v700h74v-700zM357 0h-258v700h74v-261h184q119 0 184 -61q67 -61 67 -159q0 -100 -67 -159.5t-184 -59.5zM173 372v-305h179q86 0 134 39.5t48 112.5t-47.5 113t-134.5 40h-179z" />
<glyph unicode="&#x42c;" horiz-adv-x="681" d="M382 0h-283v700h74v-261h209q119 0 184 -61q67 -61 67 -159q0 -100 -67 -159.5t-184 -59.5zM173 372v-305h204q86 0 134 39.5t48 112.5t-47.5 113t-134.5 40h-204z" />
<glyph unicode="&#x42d;" horiz-adv-x="689" d="M260 -12q-128 0 -210 61v78q85 -70 210 -70q112 0 191 75q79 76 87 192h-328v67h325q-11 111 -88 181q-77 71 -185 71q-104 0 -196 -59v76q82 52 194 52q153 0 255 -104q103 -103 103 -258t-103 -258q-104 -104 -255 -104z" />
<glyph unicode="&#x42e;" horiz-adv-x="1043" d="M644 -12q-135 0 -227 95q-92 97 -101 241h-143v-324h-74v700h74v-309h144q13 138 105 230q91 91 222 91q141 0 234 -104q94 -103 94 -258t-94 -258q-93 -104 -234 -104zM463 138q73 -81 181 -81t180 81q73 80 73 212t-73 212q-72 81 -180 81t-181 -81q-73 -80 -73 -212 t73 -212z" />
<glyph unicode="&#x42f;" horiz-adv-x="736" d="M129 0h-86l226 322q-78 13 -121.5 63t-43.5 125q0 87 59 138.5t161 51.5h314v-700h-74v315h-214zM329 382h235v251h-235q-72 0 -112 -33t-40 -93t40 -92.5t112 -32.5z" />
<glyph unicode="&#x430;" horiz-adv-x="594" d="M248 53q50 0 95 23t73 58v67q-74 48 -157 48q-66 0 -104.5 -26t-38.5 -71q0 -47 37 -73t95 -26zM228 -12q-77 0 -131 42q-53 44 -53 118q0 73 56 117q56 43 142 43q94 0 174 -47v48q0 121 -159 121q-85 0 -158 -49v70q71 44 173 44q99 0 157.5 -46.5t58.5 -132.5v-199 q0 -28 12.5 -44t33.5 -16q16 0 28 6v-56q-16 -11 -48 -11q-36 0 -60.5 19.5t-30.5 57.5q-73 -85 -195 -85z" />
<glyph unicode="&#x431;" horiz-adv-x="613" d="M321 -12q-124 0 -193 86t-69 234q0 190 97 279q33 33 115 66q36 13 72 22q37 10 79 19q13 3 44.5 9t44.5 8v-67q-103 -20 -159 -33q-111 -26 -165 -83q-56 -59 -60 -179q30 52 86.5 82t127.5 30q95 0 159 -64q64 -63 64 -162q0 -109 -70 -178t-173 -69zM321 53 q71 0 120 49q50 50 50 128q0 75 -48 120q-47 46 -118 46q-65 0 -117 -39q-52 -37 -75 -90q5 -102 53.5 -158t134.5 -56z" />
<glyph unicode="&#x432;" horiz-adv-x="577" d="M356 0h-271v483h254q69 0 107.5 -33.5t38.5 -89.5q0 -78 -60 -106q92 -27 92 -124q0 -61 -42 -95.5t-119 -34.5zM157 218v-155h184q49 0 76 20t27 57t-27 57.5t-76 20.5h-184zM157 420v-142h162q45 0 70 18.5t25 52.5q0 71 -95 71h-162z" />
<glyph unicode="&#x433;" horiz-adv-x="484" d="M157 0h-72v483h363v-63h-291v-420z" />
<glyph unicode="&#x434;" horiz-adv-x="648" d="M91 -143h-69v206h61q80 106 82 352l1 68h359v-420h90v-206h-70v143h-454v-143zM163 63h290v357h-220v-29q0 -216 -70 -328z" />
<glyph unicode="&#x435;" horiz-adv-x="571" d="M316 -12q-113 0 -190 71q-76 70 -76 182q0 108 68 181q69 73 177 73q58 0 103 -23.5t71 -61.5t39 -80.5t13 -85.5v-20h-397q6 -78 62.5 -124.5t143.5 -46.5q84 0 155 45v-64q-59 -46 -169 -46zM125 283h323q-3 56 -42 101q-37 46 -114 46q-72 0 -118 -44 q-45 -45 -49 -103z" />
<glyph unicode="&#x436;" horiz-adv-x="768" d="M52 483h91l204 -206v206h72v-206l204 206h91l-226 -224l250 -259h-95l-224 234v-234h-72v234l-224 -234h-94l250 259z" />
<glyph unicode="&#x437;" horiz-adv-x="524" d="M239 -12q-105 0 -178 33v70q81 -38 169 -38q74 0 116.5 23.5t42.5 65.5q0 38 -35 59t-96 21h-84v63h84q56 0 84.5 19t28.5 51q0 75 -136 75q-81 0 -159 -33v67q69 31 173 31q83 0 139 -35t56 -92q-3 -47 -23 -70.5t-55 -38.5q98 -32 98 -122q0 -67 -61.5 -108t-163.5 -41 z" />
<glyph unicode="&#x438;" horiz-adv-x="618" d="M152 0h-67v483h72v-377l309 377h67v-483h-72v376z" />
<glyph unicode="&#x439;" horiz-adv-x="618" d="M152 0h-67v483h72v-377l309 377h67v-483h-72v376zM310 565q-73 0 -118 41.5t-46 110.5h64q0 -42 27 -68t72 -26q44 0 71 26t28 68h63q-1 -68 -46 -110t-115 -42z" />
<glyph unicode="&#x43a;" horiz-adv-x="541" d="M85 483h72v-199l230 199h98l-255 -218l291 -265h-103l-261 238v-238h-72v483z" />
<glyph unicode="&#x43b;" horiz-adv-x="600" d="M21 0v66q5 -1 19 -1q63 0 86 80q19 64 24 184l4 154h361v-483h-72v420h-220l-3 -93q-2 -54 -4 -78q-9 -98 -29 -144q-18 -48 -55 -78.5t-90 -27.5q-16 0 -21 1z" />
<glyph unicode="&#x43c;" horiz-adv-x="697" d="M155 0h-70v483h70l193 -224l194 224h70v-483h-70v384l-180 -209h-28l-179 209v-384z" />
<glyph unicode="&#x43d;" horiz-adv-x="611" d="M157 0h-72v483h72v-203h297v203h72v-483h-72v215h-297v-215z" />
<glyph unicode="&#x43e;" horiz-adv-x="621" d="M123 420q73 75 188 75t188 -75q73 -73 73 -179t-73 -179q-74 -74 -188 -74t-188 74q-73 73 -73 179t73 179zM498 241q0 80 -53 135q-53 54 -134 54t-134 -54q-53 -55 -53 -135q0 -79 53 -134q53 -54 134 -54t134 54q53 55 53 134z" />
<glyph unicode="&#x43f;" horiz-adv-x="604" d="M157 0h-72v483h434v-483h-72v420h-290v-420z" />
<glyph unicode="&#x440;" horiz-adv-x="636" d="M157 77v-277h-72v683h72v-77q68 89 187 89q107 0 175 -74t68 -179q0 -106 -68 -180t-175 -74q-119 0 -187 89zM157 321v-159q21 -48 68 -78.5t102 -30.5q81 0 133 54q53 56 53 135t-53 134q-52 54 -133 54q-54 0 -101 -30.5t-69 -78.5z" />
<glyph unicode="&#x441;" horiz-adv-x="524" d="M307 -12q-111 0 -184 72q-73 73 -73 182q0 108 74 180q73 73 184 73q84 0 146 -35v-67q-65 37 -136 37q-84 0 -139 -54q-55 -52 -55 -135q0 -81 55 -135q56 -53 139 -53q80 0 145 42v-66q-68 -41 -156 -41z" />
<glyph unicode="&#x442;" horiz-adv-x="474" d="M273 0h-72v420h-175v63h422v-63h-175v-420z" />
<glyph unicode="&#x443;" horiz-adv-x="555" d="M112 -204q-52 0 -77 14v67q31 -16 66 -16q44 0 76 36.5t67 120.5l-215 465h80l171 -380l166 380h78l-239 -537q-65 -150 -173 -150z" />
<glyph unicode="&#x444;" horiz-adv-x="727" d="M328 491v209h72v-209q129 -3 203 -71q75 -67 75 -179q0 -110 -74 -178q-72 -66 -204 -71v-192h-72v192q-128 1 -204 70q-74 68 -74 179q0 110 74 178q74 67 204 72zM400 428v-373q90 0 148 49q59 50 59 137t-59 137t-148 50zM328 55v373q-90 0 -149 -50q-58 -49 -58 -137 t58 -137t149 -49z" />
<glyph unicode="&#x445;" horiz-adv-x="560" d="M116 0h-83l203 255l-179 228h85l138 -172l138 172h84l-180 -226l203 -257h-85l-161 202z" />
<glyph unicode="&#x446;" horiz-adv-x="638" d="M605 -143h-69v143h-451v483h72v-420h287v420h72v-420h89v-206z" />
<glyph unicode="&#x447;" horiz-adv-x="563" d="M478 0h-72v193q-70 -30 -149 -30q-101 0 -148.5 46.5t-47.5 152.5v121h72v-115q0 -78 31.5 -109t106.5 -31q73 0 135 32v223h72v-483z" />
<glyph unicode="&#x448;" horiz-adv-x="827" d="M742 0h-657v483h72v-420h220v420h72v-420h221v420h72v-483z" />
<glyph unicode="&#x449;" horiz-adv-x="864" d="M831 -143h-65v143h-681v483h72v-420h220v420h72v-420h221v420h72v-420h89v-206z" />
<glyph unicode="&#x44a;" horiz-adv-x="639" d="M408 0h-244v420h-148v63h220v-162h169q84 0 134 -43.5t50 -116.5t-48 -117t-133 -44zM236 258v-195h159q57 0 89 25.5t32 71.5q0 47 -32 72.5t-89 25.5h-159z" />
<glyph unicode="&#x44b;" horiz-adv-x="722" d="M637 0h-72v483h72v-483zM304 0h-219v483h72v-162h144q84 0 134 -43.5t50 -116.5t-48 -117t-133 -44zM157 258v-195h134q57 0 89 25.5t32 71.5q0 47 -32 72.5t-89 25.5h-134z" />
<glyph unicode="&#x44c;" horiz-adv-x="560" d="M329 0h-244v483h72v-162h169q84 0 134 -43.5t50 -116.5t-48 -117t-133 -44zM157 258v-195h159q57 0 89 25.5t32 71.5q0 47 -32 72.5t-89 25.5h-159z" />
<glyph unicode="&#x44d;" horiz-adv-x="519" d="M214 -12q-86 0 -154 41v67q62 -43 145 -43q76 0 131 44q53 43 61 115h-233v63h233q-11 70 -63.5 112.5t-128.5 42.5q-69 0 -135 -36v67q61 34 144 34q110 0 183 -73q73 -72 73 -180q0 -109 -73 -182q-73 -72 -183 -72z" />
<glyph unicode="&#x44e;" horiz-adv-x="804" d="M513 -12q-96 0 -162 63t-75 160h-119v-211h-72v483h72v-207h120q9 96 75 157q67 62 161 62q106 0 173 -73q69 -74 69 -181t-69 -180q-67 -73 -173 -73zM513 53q75 0 123 54t48 134q0 81 -48 135t-123 54q-74 0 -122 -54t-48 -135q0 -80 48 -134t122 -54z" />
<glyph unicode="&#x44f;" horiz-adv-x="576" d="M129 0h-82l144 193q-59 10 -90.5 47.5t-31.5 95.5q0 67 45.5 107t127.5 40h249v-483h-72v180h-155zM253 243h166v177h-166q-53 0 -81.5 -23t-28.5 -66t28.5 -65.5t81.5 -22.5z" />
<glyph unicode="&#x451;" horiz-adv-x="571" d="M316 -12q-113 0 -190 71q-76 70 -76 182q0 108 68 181q69 73 177 73q58 0 103 -23.5t71 -61.5t39 -80.5t13 -85.5v-20h-397q6 -78 62.5 -124.5t143.5 -46.5q84 0 155 45v-64q-59 -46 -169 -46zM125 283h323q-3 56 -42 101q-37 46 -114 46q-72 0 -118 -44 q-45 -45 -49 -103zM158 594q-13 14 -13 33t13 33q14 14 34 14t33 -14q14 -14 14 -33t-14 -33q-13 -14 -33 -14t-34 14zM358 594q-13 14 -13 33t13 33q14 14 34 14t33 -14q14 -14 14 -33t-14 -33q-13 -14 -33 -14t-34 14z" />
<glyph unicode="&#x452;" horiz-adv-x="643" d="M190 265v-265h-72v557h-102v63h102v80h72v-80h143v-63h-143v-209q77 86 193 86q89 0 136.5 -52.5t47.5 -148.5v-267q0 -170 -141 -170q-55 0 -85 18v67q35 -20 70 -20q44 0 64 27.5t20 85.5v243q0 149 -137 149q-50 0 -97 -31q-48 -31 -71 -70z" />
<glyph unicode="&#x453;" horiz-adv-x="484" d="M157 0h-72v483h363v-63h-291v-420zM271 576h-70l96 134h92z" />
<glyph unicode="&#x454;" horiz-adv-x="521" d="M306 -12q-110 0 -183 72q-73 73 -73 182q0 108 73 180q73 73 183 73q83 0 144 -34v-67q-66 36 -135 36q-76 0 -128.5 -42.5t-63.5 -112.5h233v-63h-233q8 -72 61 -115q55 -44 131 -44q83 0 145 43v-67q-68 -41 -154 -41z" />
<glyph unicode="&#x455;" horiz-adv-x="490" d="M241 -12q-58 0 -113.5 14.5t-86.5 35.5v74q88 -59 198 -59q62 0 97.5 20.5t35.5 56.5q0 31 -34 51q-10 8 -51 18q-12 4 -33 8q-27 7 -33 8q-91 23 -130 54.5t-39 91.5q0 63 51 98.5t143 35.5q109 0 176 -43v-71q-82 49 -173 49q-61 0 -92.5 -19t-31.5 -52q0 -36 37 -54 q7 -2 17.5 -6.5t21.5 -7.5l22 -6q24 -8 48 -11q90 -22 132.5 -54t42.5 -91q0 -66 -58 -103q-58 -38 -147 -38z" />
<glyph unicode="&#x456;" horiz-adv-x="264" d="M168 0h-72v483h72v-483zM96 613q-14 15 -14 36t14 36q15 15 36 15t36 -15t15 -36t-15 -36q-15 -14 -36 -14t-36 14z" />
<glyph unicode="&#x457;" horiz-adv-x="258" d="M-4 612q-14 14 -14 34t14 33q14 14 33 14t33 -14q14 -13 14 -33t-14 -34q-14 -13 -33 -13t-33 13zM196 612q-14 14 -14 34t14 33q14 14 33 14t33 -14q14 -13 14 -33t-14 -34q-14 -13 -33 -13t-33 13zM165 0h-73v483h73v-483z" />
<glyph unicode="&#x458;" horiz-adv-x="266" d="M26 -204q-54 0 -85 18v66q32 -19 70 -19q85 0 85 97v525h72v-536q0 -75 -38 -113t-104 -38zM96 613q-14 15 -14 36t14 36q15 15 36 15t36 -15t15 -36t-15 -36q-15 -14 -36 -14t-36 14z" />
<glyph unicode="&#x459;" horiz-adv-x="901" d="M670 0h-234v420h-213l-3 -93q-2 -54 -4 -78q-9 -98 -29 -144q-18 -48 -55 -78.5t-90 -27.5q-16 0 -21 1v66q5 -1 19 -1q63 0 86 80q19 64 24 184l4 154h354v-162h159q84 0 134 -43.5t50 -116.5t-48 -117t-133 -44zM508 258v-195h149q57 0 89 25.5t32 71.5q0 47 -32 72.5 t-89 25.5h-149z" />
<glyph unicode="&#x45a;" horiz-adv-x="895" d="M157 0h-72v483h72v-181h284v181h72v-181h154q83 0 130.5 -41t47.5 -111q0 -67 -46.5 -108.5t-128.5 -41.5h-229v239h-284v-239zM513 239v-176h145q54 0 84.5 23t30.5 65t-30.5 65t-84.5 23h-145z" />
<glyph unicode="&#x45b;" horiz-adv-x="643" d="M190 265v-265h-72v557h-102v63h102v80h72v-80h143v-63h-143v-209q77 86 193 86q89 0 136.5 -52.5t47.5 -148.5v-233h-72v217q0 149 -137 149q-50 0 -97 -31q-48 -31 -71 -70z" />
<glyph unicode="&#x45c;" horiz-adv-x="541" d="M85 483h72v-199l230 199h98l-255 -218l291 -265h-103l-261 238v-238h-72v483zM295 576h-70l96 134h92z" />
<glyph unicode="&#x45e;" horiz-adv-x="555" d="M112 -204q-52 0 -77 14v67q31 -16 66 -16q44 0 76 36.5t67 120.5l-215 465h80l171 -380l166 380h78l-239 -537q-65 -150 -173 -150zM281 565q-73 0 -118 41.5t-46 110.5h64q0 -42 27 -68t72 -26q44 0 71 26t28 68h63q-1 -68 -46 -110t-115 -42z" />
<glyph unicode="&#x45f;" horiz-adv-x="601" d="M335 -143h-70v143h-180v483h72v-420h287v420h72v-483h-181v-143z" />
<glyph unicode="&#x490;" horiz-adv-x="599" d="M173 0h-74v700h396v145h67v-212h-389v-633z" />
<glyph unicode="&#x491;" horiz-adv-x="484" d="M157 0h-72v483h296v131h67v-194h-291v-420z" />
<glyph unicode="&#x1e02;" horiz-adv-x="726" d="M433 0h-334v700h303q93 0 147 -45.5t54 -124.5q0 -54 -24.5 -93t-67.5 -55q70 -11 111 -61t41 -126q0 -89 -62 -142t-168 -53zM173 339v-272h247q78 0 121 36t43 101q0 64 -43 99.5t-121 35.5h-247zM173 633v-229h217q67 0 103.5 29t36.5 84q0 56 -36.5 86t-103.5 30 h-217zM308 794q-13 14 -13 33t13 33q14 14 34 14t33 -14q14 -14 14 -33t-14 -33q-13 -14 -33 -14t-34 14z" />
<glyph unicode="&#x1e03;" horiz-adv-x="636" d="M85 0v700h72v-294q68 89 187 89q107 0 175 -74t68 -180q0 -105 -68 -179t-175 -74q-119 0 -187 89v-77h-72zM157 321v-159q22 -48 69 -78.5t101 -30.5q81 0 133 54q53 55 53 134t-53 134q-52 55 -133 55q-55 0 -102 -30.5t-68 -78.5zM292 794q-13 14 -13 33t13 33 q14 14 34 14t33 -14q14 -14 14 -33t-14 -33q-13 -14 -33 -14t-34 14z" />
<glyph unicode="&#x1e0a;" horiz-adv-x="778" d="M328 0h-229v700h229q170 0 274 -97q105 -98 105 -253q0 -156 -105 -253q-104 -97 -274 -97zM173 633v-566h146q144 0 229 77q84 76 84 206t-84 206q-85 77 -229 77h-146zM308 794q-13 14 -13 33t13 33q14 14 34 14t33 -14q14 -14 14 -33t-14 -33q-13 -14 -33 -14t-34 14z " />
<glyph unicode="&#x1e0b;" d="M480 406v294h72v-700h-72v77q-68 -89 -187 -89q-107 0 -175 74t-68 179q0 106 68 180t175 74q119 0 187 -89zM480 162v159q-21 48 -68 78.5t-102 30.5q-81 0 -133 -55q-53 -55 -53 -134t53 -134q53 -54 133 -54q54 0 101 30.5t69 78.5zM288 794q-14 14 -14 33t14 33 t33 14t33 -14t14 -33t-14 -33t-33 -14t-33 14z" />
<glyph unicode="&#x1e1e;" horiz-adv-x="622" d="M173 0h-74v700h477v-67h-403v-233h327v-67h-327v-333zM302 794q-13 14 -13 33t13 33q14 14 34 14t33 -14q14 -14 14 -33t-14 -33q-13 -14 -33 -14t-34 14z" />
<glyph unicode="&#x1e1f;" horiz-adv-x="391" d="M123 0v420h-96v63h96v81q0 67 36 105.5t102 38.5q61 0 102 -19v-66q-48 20 -84 20q-84 0 -84 -93v-67h168v-63h-168v-420h-72zM212 794q-14 14 -14 33t14 33t33 14t33 -14t14 -33t-14 -33t-33 -14t-33 14z" />
<glyph unicode="&#x1e40;" horiz-adv-x="848" d="M172 0h-73v700h73l253 -339l253 339h72v-700h-73v588l-229 -306h-45l-231 306v-588zM390 794q-13 14 -13 33t13 33q14 14 34 14t33 -14q14 -14 14 -33t-14 -33q-13 -14 -33 -14t-34 14z" />
<glyph unicode="&#x1e41;" horiz-adv-x="919" d="M157 0h-72v483h72v-72q60 84 174 84q59 0 99.5 -25t55.5 -70q28 43 76.5 69t109.5 26q81 0 126 -50.5t45 -143.5v-301h-72v285q0 142 -120 142q-44 0 -87.5 -30.5t-65.5 -73.5q0 -10 0.5 -23t1 -20t0.5 -11v-269h-72v285q0 142 -120 142q-42 0 -86 -30q-42 -28 -65 -70 v-327zM430 612q-13 14 -13 34t13 33q14 14 34 14t33 -14q14 -13 14 -33t-14 -34q-13 -13 -33 -13t-34 13z" />
<glyph unicode="&#x1e56;" horiz-adv-x="665" d="M173 0h-74v700h294q104 0 164 -53t60 -141q0 -90 -60 -143.5t-164 -53.5h-220v-309zM173 633v-257h215q74 0 115 33.5t41 94.5q0 62 -40.5 95.5t-115.5 33.5h-215zM300 794q-13 14 -13 33t13 33q14 14 34 14t33 -14q14 -14 14 -33t-14 -33q-13 -14 -33 -14t-34 14z" />
<glyph unicode="&#x1e57;" horiz-adv-x="636" d="M157 77v-277h-72v683h72v-77q68 89 187 89q107 0 175 -74t68 -179q0 -106 -68 -180t-175 -74q-119 0 -187 89zM157 321v-159q21 -48 68 -78.5t102 -30.5q81 0 133 54q53 56 53 135t-53 134q-52 54 -133 54q-54 0 -101 -30.5t-69 -78.5zM302 612q-13 14 -13 34t13 33 q14 14 34 14t33 -14q14 -13 14 -33t-14 -34q-13 -13 -33 -13t-34 13z" />
<glyph unicode="&#x1e60;" horiz-adv-x="627" d="M307 -12q-76 0 -145.5 20.5t-113.5 53.5v83q42 -36 109 -62q72 -26 145 -26q83 0 136 36t53 96q6 56 -58 95q-13 10 -42 20l-44 15q-3 1 -12 3.5t-19.5 6t-21.5 6.5q-62 18 -74 22q-32 11 -62 25q-33 16 -52 35q-44 46 -44 114q0 79 64 130t178 51q126 0 218 -58v-76 q-104 65 -216 65q-81 0 -125 -32t-44 -82q-6 -40 45 -79q8 -7 33 -16l34 -13l43 -12l42 -12q55 -17 69 -22q29 -10 61 -27q33 -17 54 -38q49 -45 49 -120q0 -94 -76 -148q-75 -54 -184 -54zM266 794q-14 14 -14 33t14 33t33 14t33 -14t14 -33t-14 -33t-33 -14t-33 14z" />
<glyph unicode="&#x1e61;" horiz-adv-x="509" d="M249 -12q-58 0 -113.5 14.5t-86.5 35.5v74q88 -59 198 -59q62 0 97.5 20.5t35.5 56.5q0 31 -34 51q-10 8 -51 18q-12 4 -33 8q-27 7 -33 8q-91 23 -130 54.5t-39 91.5q0 63 51 98.5t143 35.5q109 0 176 -43v-71q-82 49 -173 49q-61 0 -92.5 -19t-31.5 -52q0 -36 37 -54 q7 -2 17.5 -6.5t21.5 -7.5l22 -6q24 -8 48 -11q90 -22 132.5 -54t42.5 -91q0 -66 -58 -103q-58 -38 -147 -38zM212 612q-13 14 -13 34t13 33q14 14 34 14t33 -14q14 -13 14 -33t-14 -34q-13 -13 -33 -13t-34 13z" />
<glyph unicode="&#x1e6a;" horiz-adv-x="630" d="M351 0h-74v633h-241v67h559v-67h-244v-633zM282 794q-14 14 -14 33t14 33t33 14t33 -14t14 -33t-14 -33t-33 -14t-33 14z" />
<glyph unicode="&#x1e6b;" horiz-adv-x="430" d="M277 -12q-67 0 -101.5 39.5t-34.5 109.5v283h-114v63h114v149h72v-149h169v-63h-169v-261q0 -57 19.5 -80t64.5 -23q44 0 79 20v-66q-31 -22 -99 -22zM144 704q-13 14 -13 33t13 33q14 14 34 14t33 -14q14 -14 14 -33t-14 -33q-13 -14 -33 -14t-34 14z" />
<glyph unicode="&#x1e80;" horiz-adv-x="1053" d="M346 -4h-65l-242 704h82l195 -583l181 586h60l182 -586l194 583h80l-241 -704h-65l-180 578zM562 763h-70l-118 133h92z" />
<glyph unicode="&#x1e81;" horiz-adv-x="827" d="M274 -3h-63l-173 486h74l135 -376l132 378h61l133 -378l134 376h73l-173 -486h-63l-136 379zM450 576h-69l-118 134h91z" />
<glyph unicode="&#x1e82;" horiz-adv-x="1053" d="M346 -4h-65l-242 704h82l195 -583l181 586h60l182 -586l194 583h80l-241 -704h-65l-180 578zM563 763h-69l95 133h92z" />
<glyph unicode="&#x1e83;" horiz-adv-x="827" d="M274 -3h-63l-173 486h74l135 -376l132 378h61l133 -378l134 376h73l-173 -486h-63l-136 379zM447 576h-70l96 134h92z" />
<glyph unicode="&#x1e84;" horiz-adv-x="1053" d="M346 -4h-65l-242 704h82l195 -583l181 586h60l182 -586l194 583h80l-241 -704h-65l-180 578zM394 794q-13 14 -13 34t13 33q14 14 34 14t33 -14q14 -13 14 -33t-14 -34q-13 -13 -33 -13t-34 13zM594 794q-13 14 -13 34t13 33q14 14 34 14t33 -14q14 -13 14 -33t-14 -34 q-13 -13 -33 -13t-34 13z" />
<glyph unicode="&#x1e85;" horiz-adv-x="827" d="M274 -3h-63l-173 486h74l135 -376l132 378h61l133 -378l134 376h73l-173 -486h-63l-136 379zM276 612q-14 14 -14 34t14 33q14 14 33 14t33 -14q14 -13 14 -33t-14 -34q-14 -13 -33 -13t-33 13zM476 612q-14 14 -14 34t14 33q14 14 33 14t33 -14q14 -13 14 -33t-14 -34 q-14 -13 -33 -13t-33 13z" />
<glyph unicode="&#x1ef2;" horiz-adv-x="664" d="M369 0h-74v321l-272 379h86l224 -310l224 310h84l-272 -378v-322zM381 763h-70l-118 133h92z" />
<glyph unicode="&#x1ef3;" horiz-adv-x="555" d="M112 -204q-52 0 -77 14v67q31 -16 66 -16q44 0 76 36.5t67 120.5l-215 465h80l171 -380l166 380h78l-239 -537q-65 -150 -173 -150zM333 576h-69l-118 134h91z" />
<glyph unicode="&#x2013;" horiz-adv-x="730" d="M630 238h-530v67h530v-67z" />
<glyph unicode="&#x2014;" horiz-adv-x="906" d="M806 238h-706v67h706v-67z" />
<glyph unicode="&#x2015;" horiz-adv-x="730" d="M630 238h-530v67h530v-67z" />
<glyph unicode="&#x2018;" horiz-adv-x="216" d="M128 700h58l-80 -255h-84z" />
<glyph unicode="&#x2019;" horiz-adv-x="216" d="M88 445h-58l80 255h84z" />
<glyph unicode="&#x201a;" horiz-adv-x="236" d="M73 -152h-58l80 255h84z" />
<glyph unicode="&#x201c;" horiz-adv-x="367" d="M279 700h58l-80 -255h-84zM128 700h58l-80 -255h-84z" />
<glyph unicode="&#x201d;" horiz-adv-x="368" d="M240 445h-58l80 255h84zM88 445h-58l80 255h84z" />
<glyph unicode="&#x201e;" horiz-adv-x="388" d="M225 -152h-58l80 255h84zM73 -152h-58l80 255h84z" />
<glyph unicode="&#x2020;" horiz-adv-x="521" d="M295 0h-69v420h-177v63h177v217h69v-217h178v-63h-178v-420z" />
<glyph unicode="&#x2021;" horiz-adv-x="521" d="M473 483v-63h-178v-156h178v-64h-178v-200h-69v200h-177v64h177v156h-177v63h177v217h69v-217h178z" />
<glyph unicode="&#x2022;" horiz-adv-x="410" d="M205 271q-46 0 -79 32.5t-33 78.5t33 79t79 33q47 0 80 -32.5t33 -79.5q0 -46 -33 -79q-34 -32 -80 -32z" />
<glyph unicode="&#x2026;" horiz-adv-x="664" d="M81 9q-15 15 -15 37t15 37t37 15t37 -15t15 -37t-15 -37t-37 -15t-37 15zM509 9q-15 15 -15 37t15 37t37 15t37 -15t15 -37t-15 -37t-37 -15t-37 15zM296 9q-15 15 -15 37t15 37t37 15t37 -15t15 -37t-15 -37t-37 -15t-37 15z" />
<glyph unicode="&#x2030;" horiz-adv-x="1212" d="M240 0h-63l410 700h63zM215 712q73 0 121 -49q48 -48 48 -119q0 -70 -48 -120q-48 -49 -121 -49q-72 0 -120 49q-47 50 -47 120t47 119q48 49 120 49zM324 544q0 48 -31 80.5t-78 32.5t-77.5 -32.5t-30.5 -80.5q0 -49 30 -81.5t78 -32.5t78.5 32.5t30.5 81.5zM610 325 q74 0 120 -49q48 -50 48 -120t-48 -120q-46 -48 -120 -48q-72 0 -120 48q-47 50 -47 120t47 120q48 49 120 49zM532 75q30 -32 78 -32t78 32q30 31 30 81t-31 81q-30 33 -77 33q-46 0 -78 -33q-30 -31 -30 -81t30 -81zM875 276q48 49 121 49q74 0 120 -49q48 -50 48 -120 t-48 -120q-46 -48 -120 -48q-73 0 -121 48q-47 50 -47 120t47 120zM918 75q30 -32 78 -32t78 32q30 31 30 81t-31 81q-30 33 -77 33q-46 0 -78 -33q-30 -31 -30 -81t30 -81z" />
<glyph unicode="&#x2039;" horiz-adv-x="319" d="M273 40h-75l-151 183v37l151 183h75l-164 -202z" />
<glyph unicode="&#x203a;" horiz-adv-x="319" d="M121 40h-76l163 201l-163 202h76l151 -183v-37z" />
<glyph unicode="&#x2044;" horiz-adv-x="186" d="M-73 0h-69l413 700h68z" />
<glyph unicode="&#x2070;" horiz-adv-x="390" d="M312 373q-44 -56 -117 -56t-118 56q-44 58 -44 138q0 81 44 137q45 57 118 57t117 -57q45 -56 45 -137t-45 -138zM195 371q44 0 71.5 40t27.5 100t-27.5 100t-71.5 40t-71.5 -40t-27.5 -100t27.5 -100t71.5 -40z" />
<glyph unicode="&#x2074;" horiz-adv-x="360" d="M279 322h-61v98h-197v45l196 235h62v-229h59v-51h-59v-98zM218 625l-130 -154h130v154z" />
<glyph unicode="&#x2075;" horiz-adv-x="337" d="M143 317q-62 0 -109 26v59q53 -30 107 -30q40 0 67.5 21t27.5 54q0 30 -26 50t-67 20q-51 0 -94 -15l25 198h200v-53h-153l-10 -86q17 5 46 5q63 0 102.5 -32.5t39.5 -86.5q0 -59 -44.5 -94.5t-111.5 -35.5z" />
<glyph unicode="&#x2076;" horiz-adv-x="357" d="M186 317q-70 0 -109.5 48t-39.5 128q0 89 45 151q46 61 127 61q54 0 85 -22v-56q-35 24 -79 24q-49 0 -81 -35t-34 -92q34 45 99 45q54 0 89 -34.5t35 -88.5q0 -56 -40 -93q-39 -36 -97 -36zM184 368q33 0 54.5 22t21.5 56q0 33 -22 53.5t-55 20.5q-26 0 -49.5 -16 t-34.5 -40q2 -43 25.5 -69.5t59.5 -26.5z" />
<glyph unicode="&#x2077;" horiz-adv-x="319" d="M123 322h-69l166 325h-192v53h263v-49z" />
<glyph unicode="&#x2078;" horiz-adv-x="363" d="M182 317q-66 0 -109 30.5t-43 80.5q0 32 20.5 57.5t54.5 38.5q-25 10 -40 31.5t-15 47.5q0 45 37 73.5t95 28.5q57 0 94 -28.5t37 -73.5q0 -26 -15 -47.5t-40 -31.5q34 -13 54.5 -38.5t20.5 -57.5q0 -50 -43 -80.5t-108 -30.5zM182 368q38 0 63 18.5t25 46.5 q0 30 -24.5 48t-63.5 18t-64 -18t-25 -48q0 -28 25 -46.5t64 -18.5zM182 542q32 0 52 15.5t20 40.5t-20.5 41t-51.5 16q-32 0 -53 -16t-21 -41t20.5 -40.5t53.5 -15.5z" />
<glyph unicode="&#x2079;" horiz-adv-x="357" d="M174 705q70 0 109.5 -48t39.5 -128q0 -90 -46 -151q-45 -61 -126 -61q-54 0 -85 22v56q35 -24 79 -24q49 0 81 35t34 92q-33 -45 -99 -45q-53 0 -88.5 34.5t-35.5 88.5q0 56 39 92q40 37 98 37zM177 654q-34 0 -55.5 -22t-21.5 -56q0 -33 22 -53.5t55 -20.5 q26 0 49.5 15.5t34.5 40.5q-2 43 -25 69.5t-59 26.5z" />
<glyph unicode="&#x2080;" horiz-adv-x="390" d="M312 51q-44 -56 -117 -56t-118 56q-44 58 -44 138q0 81 44 137q45 57 118 57t117 -57q45 -55 45 -137q0 -81 -45 -138zM195 49q44 0 71.5 40t27.5 100t-27.5 100t-71.5 40t-71.5 -40t-27.5 -100t27.5 -100t71.5 -40z" />
<glyph unicode="&#x2081;" horiz-adv-x="244" d="M190 0h-63v312l-104 -58v63l106 61h61v-378z" />
<glyph unicode="&#x2082;" horiz-adv-x="359" d="M312 0h-268v46l121 110q40 36 55.5 59.5t15.5 49.5q0 27 -20 43.5t-53 16.5q-57 0 -109 -43v63q50 38 114 38q55 0 93 -31q39 -32 39 -80q0 -38 -19.5 -70.5t-64.5 -73.5l-78 -75h174v-53z" />
<glyph unicode="&#x2083;" horiz-adv-x="327" d="M142 -5q-70 0 -116 29v58q56 -32 111 -32q39 0 65.5 20.5t26.5 53.5q0 31 -23 50t-64 19q-28 0 -50 -8v41l105 99h-157v53h238v-47l-101 -96q49 -4 82.5 -33.5t33.5 -79.5q0 -57 -44 -92t-107 -35z" />
<glyph unicode="&#x2084;" horiz-adv-x="360" d="M279 0h-61v98h-197v45l196 235h62v-229h59v-51h-59v-98zM218 303l-130 -154h130v154z" />
<glyph unicode="&#x2085;" horiz-adv-x="337" d="M143 -5q-62 0 -109 26v59q53 -30 107 -30q40 0 67.5 21t27.5 54q0 30 -26 50t-67 20q-51 0 -94 -15l25 198h200v-53h-153l-10 -86q17 5 46 5q63 0 102.5 -32.5t39.5 -86.5q0 -59 -44.5 -94.5t-111.5 -35.5z" />
<glyph unicode="&#x2086;" horiz-adv-x="357" d="M186 -5q-70 0 -109.5 48t-39.5 128q0 89 45 151q46 61 127 61q54 0 85 -22v-56q-35 24 -79 24q-49 0 -81 -35t-34 -92q34 45 99 45q54 0 89 -34.5t35 -88.5q0 -56 -40 -93q-39 -36 -97 -36zM184 46q33 0 54.5 22t21.5 56q0 33 -22 53.5t-55 20.5q-26 0 -49.5 -16 t-34.5 -40q2 -43 25.5 -69.5t59.5 -26.5z" />
<glyph unicode="&#x2087;" horiz-adv-x="319" d="M123 0h-69l166 325h-192v53h263v-49z" />
<glyph unicode="&#x2088;" horiz-adv-x="363" d="M182 -5q-66 0 -109 30.5t-43 80.5q0 32 20.5 57.5t54.5 38.5q-25 10 -40 31.5t-15 47.5q0 45 37 73.5t95 28.5q57 0 94 -28.5t37 -73.5q0 -26 -15 -47.5t-40 -31.5q34 -13 54.5 -38.5t20.5 -57.5q0 -50 -43 -80.5t-108 -30.5zM182 46q38 0 63 18.5t25 46.5q0 30 -24.5 48 t-63.5 18t-64 -18t-25 -48q0 -28 25 -46.5t64 -18.5zM182 220q32 0 52 15.5t20 40.5t-20.5 41t-51.5 16q-32 0 -53 -16t-21 -41t20.5 -40.5t53.5 -15.5z" />
<glyph unicode="&#x2089;" horiz-adv-x="357" d="M174 383q70 0 109.5 -48t39.5 -128q0 -90 -46 -151q-45 -61 -126 -61q-54 0 -85 22v56q35 -24 79 -24q49 0 81 35t34 92q-33 -45 -99 -45q-53 0 -88.5 34.5t-35.5 88.5q0 56 39 92q40 37 98 37zM177 332q-34 0 -55.5 -22t-21.5 -56q0 -33 22 -53.5t55 -20.5 q26 0 49.5 15.5t34.5 40.5q-2 43 -25 69.5t-59 26.5z" />
<glyph unicode="&#x20a3;" horiz-adv-x="638" d="M189 0h-74v148h-114v63h114v489h477v-67h-403v-233h328v-67h-328v-122h174v-63h-174v-148z" />
<glyph unicode="&#x20a4;" horiz-adv-x="589" d="M533 0h-470v67h19q53 0 53 86v67h-72v63h72v93h-72v63h72v48q0 107 60.5 166.5t168.5 59.5q96 0 163 -43v-73q-67 47 -153 47q-80 0 -122.5 -42.5t-42.5 -124.5v-38h254v-63h-254v-93h254v-63h-254v-98q0 -38 -24 -55h348v-67z" />
<glyph unicode="&#x20a7;" horiz-adv-x="694" d="M103 472h-74v63h74v165h295q94 0 152.5 -44.5t68.5 -120.5h67v-63h-68q-11 -75 -69 -119t-151 -44h-221v-309h-74v472zM177 633v-257h216q73 0 114 33.5t41 94.5q0 62 -41 95.5t-114 33.5h-216z" />
<glyph unicode="&#x20ac;" horiz-adv-x="686" d="M126 409h-83v63h95q28 107 110 174q81 66 199 66q100 0 173 -49v-73q-76 53 -166 53q-86 0 -149 -46t-88 -125h251v-63h-266q-4 -21 -4 -52q0 -23 2 -41h268v-63h-258q21 -92 84 -144t160 -52q108 0 182 66v-76q-77 -59 -189 -59q-125 0 -208 72q-82 73 -106 193h-90v63 h82q-2 18 -2 41q0 25 3 52z" />
<glyph unicode="&#x20b4;" horiz-adv-x="608" d="M98 143q0 74 55 120h-90v63h483v-63h-293q-79 -42 -79 -107q0 -99 159 -99q98 0 175 39v-73q-79 -35 -184 -35q-106 0 -166 41.5t-60 113.5zM546 395h-483v63h317q58 34 58 90q0 95 -153 95q-88 0 -166 -35v71q68 33 173 33q104 0 163.5 -42t59.5 -113q0 -62 -43 -99h74 v-63z" />
<glyph unicode="&#x20b6;" horiz-adv-x="681" d="M197 0h-74v157h-99v63h99v93h-99v63h99v324h279q103 0 162.5 -52t59.5 -140q0 -89 -59 -142t-163 -53h-205v-93h291v-63h-291v-157zM197 633v-257h199q75 0 115 33t40 95q0 61 -40.5 95t-114.5 34h-199z" />
<glyph unicode="&#x20ce;" horiz-adv-x="681" d="M197 0h-74v157h-99v63h99v93h-99v63h99v324h279q103 0 162.5 -52t59.5 -140q0 -89 -59 -142t-163 -53h-205v-93h291v-63h-291v-157zM197 633v-257h199q75 0 115 33t40 95q0 61 -40.5 95t-114.5 34h-199z" />
<glyph unicode="&#x20cd;" horiz-adv-x="681" d="M197 0h-74v157h-99v63h99v93h-99v63h99v324h279q103 0 162.5 -52t59.5 -140q0 -89 -59 -142t-163 -53h-205v-93h291v-63h-291v-157zM197 633v-257h199q75 0 115 33t40 95q0 61 -40.5 95t-114.5 34h-199z" />
<glyph unicode="&#x20cc;" horiz-adv-x="681" d="M197 0h-74v157h-99v63h99v93h-99v63h99v324h279q103 0 162.5 -52t59.5 -140q0 -89 -59 -142t-163 -53h-205v-93h291v-63h-291v-157zM197 633v-257h199q75 0 115 33t40 95q0 61 -40.5 95t-114.5 34h-199z" />
<glyph unicode="&#x20cb;" horiz-adv-x="681" d="M197 0h-74v157h-99v63h99v93h-99v63h99v324h279q103 0 162.5 -52t59.5 -140q0 -89 -59 -142t-163 -53h-205v-93h291v-63h-291v-157zM197 633v-257h199q75 0 115 33t40 95q0 61 -40.5 95t-114.5 34h-199z" />
<glyph unicode="&#x20ca;" horiz-adv-x="681" d="M197 0h-74v157h-99v63h99v93h-99v63h99v324h279q103 0 162.5 -52t59.5 -140q0 -89 -59 -142t-163 -53h-205v-93h291v-63h-291v-157zM197 633v-257h199q75 0 115 33t40 95q0 61 -40.5 95t-114.5 34h-199z" />
<glyph unicode="&#x20c9;" horiz-adv-x="681" d="M197 0h-74v157h-99v63h99v93h-99v63h99v324h279q103 0 162.5 -52t59.5 -140q0 -89 -59 -142t-163 -53h-205v-93h291v-63h-291v-157zM197 633v-257h199q75 0 115 33t40 95q0 61 -40.5 95t-114.5 34h-199z" />
<glyph unicode="&#x20c8;" horiz-adv-x="681" d="M197 0h-74v157h-99v63h99v93h-99v63h99v324h279q103 0 162.5 -52t59.5 -140q0 -89 -59 -142t-163 -53h-205v-93h291v-63h-291v-157zM197 633v-257h199q75 0 115 33t40 95q0 61 -40.5 95t-114.5 34h-199z" />
<glyph unicode="&#x20c7;" horiz-adv-x="681" d="M197 0h-74v157h-99v63h99v93h-99v63h99v324h279q103 0 162.5 -52t59.5 -140q0 -89 -59 -142t-163 -53h-205v-93h291v-63h-291v-157zM197 633v-257h199q75 0 115 33t40 95q0 61 -40.5 95t-114.5 34h-199z" />
<glyph unicode="&#x20c6;" horiz-adv-x="681" d="M197 0h-74v157h-99v63h99v93h-99v63h99v324h279q103 0 162.5 -52t59.5 -140q0 -89 -59 -142t-163 -53h-205v-93h291v-63h-291v-157zM197 633v-257h199q75 0 115 33t40 95q0 61 -40.5 95t-114.5 34h-199z" />
<glyph unicode="&#x20c5;" horiz-adv-x="681" d="M197 0h-74v157h-99v63h99v93h-99v63h99v324h279q103 0 162.5 -52t59.5 -140q0 -89 -59 -142t-163 -53h-205v-93h291v-63h-291v-157zM197 633v-257h199q75 0 115 33t40 95q0 61 -40.5 95t-114.5 34h-199z" />
<glyph unicode="&#x20c4;" horiz-adv-x="681" d="M197 0h-74v157h-99v63h99v93h-99v63h99v324h279q103 0 162.5 -52t59.5 -140q0 -89 -59 -142t-163 -53h-205v-93h291v-63h-291v-157zM197 633v-257h199q75 0 115 33t40 95q0 61 -40.5 95t-114.5 34h-199z" />
<glyph unicode="&#x20c3;" horiz-adv-x="681" d="M197 0h-74v157h-99v63h99v93h-99v63h99v324h279q103 0 162.5 -52t59.5 -140q0 -89 -59 -142t-163 -53h-205v-93h291v-63h-291v-157zM197 633v-257h199q75 0 115 33t40 95q0 61 -40.5 95t-114.5 34h-199z" />
<glyph unicode="&#x20c2;" horiz-adv-x="681" d="M197 0h-74v157h-99v63h99v93h-99v63h99v324h279q103 0 162.5 -52t59.5 -140q0 -89 -59 -142t-163 -53h-205v-93h291v-63h-291v-157zM197 633v-257h199q75 0 115 33t40 95q0 61 -40.5 95t-114.5 34h-199z" />
<glyph unicode="&#x20c1;" horiz-adv-x="681" d="M197 0h-74v157h-99v63h99v93h-99v63h99v324h279q103 0 162.5 -52t59.5 -140q0 -89 -59 -142t-163 -53h-205v-93h291v-63h-291v-157zM197 633v-257h199q75 0 115 33t40 95q0 61 -40.5 95t-114.5 34h-199z" />
<glyph unicode="&#x20c0;" horiz-adv-x="681" d="M197 0h-74v157h-99v63h99v93h-99v63h99v324h279q103 0 162.5 -52t59.5 -140q0 -89 -59 -142t-163 -53h-205v-93h291v-63h-291v-157zM197 633v-257h199q75 0 115 33t40 95q0 61 -40.5 95t-114.5 34h-199z" />
<glyph unicode="&#x20bf;" horiz-adv-x="681" d="M197 0h-74v157h-99v63h99v93h-99v63h99v324h279q103 0 162.5 -52t59.5 -140q0 -89 -59 -142t-163 -53h-205v-93h291v-63h-291v-157zM197 633v-257h199q75 0 115 33t40 95q0 61 -40.5 95t-114.5 34h-199z" />
<glyph unicode="&#x20be;" horiz-adv-x="681" d="M197 0h-74v157h-99v63h99v93h-99v63h99v324h279q103 0 162.5 -52t59.5 -140q0 -89 -59 -142t-163 -53h-205v-93h291v-63h-291v-157zM197 633v-257h199q75 0 115 33t40 95q0 61 -40.5 95t-114.5 34h-199z" />
<glyph unicode="&#x20bd;" horiz-adv-x="681" d="M197 0h-74v157h-99v63h99v93h-99v63h99v324h279q103 0 162.5 -52t59.5 -140q0 -89 -59 -142t-163 -53h-205v-93h291v-63h-291v-157zM197 633v-257h199q75 0 115 33t40 95q0 61 -40.5 95t-114.5 34h-199z" />
<glyph unicode="&#x20bc;" horiz-adv-x="681" d="M197 0h-74v157h-99v63h99v93h-99v63h99v324h279q103 0 162.5 -52t59.5 -140q0 -89 -59 -142t-163 -53h-205v-93h291v-63h-291v-157zM197 633v-257h199q75 0 115 33t40 95q0 61 -40.5 95t-114.5 34h-199z" />
<glyph unicode="&#x20bb;" horiz-adv-x="681" d="M197 0h-74v157h-99v63h99v93h-99v63h99v324h279q103 0 162.5 -52t59.5 -140q0 -89 -59 -142t-163 -53h-205v-93h291v-63h-291v-157zM197 633v-257h199q75 0 115 33t40 95q0 61 -40.5 95t-114.5 34h-199z" />
<glyph unicode="&#x20ba;" horiz-adv-x="681" d="M197 0h-74v157h-99v63h99v93h-99v63h99v324h279q103 0 162.5 -52t59.5 -140q0 -89 -59 -142t-163 -53h-205v-93h291v-63h-291v-157zM197 633v-257h199q75 0 115 33t40 95q0 61 -40.5 95t-114.5 34h-199z" />
<glyph unicode="&#x20b9;" horiz-adv-x="681" d="M197 0h-74v157h-99v63h99v93h-99v63h99v324h279q103 0 162.5 -52t59.5 -140q0 -89 -59 -142t-163 -53h-205v-93h291v-63h-291v-157zM197 633v-257h199q75 0 115 33t40 95q0 61 -40.5 95t-114.5 34h-199z" />
<glyph unicode="&#x20b7;" horiz-adv-x="681" d="M197 0h-74v157h-99v63h99v93h-99v63h99v324h279q103 0 162.5 -52t59.5 -140q0 -89 -59 -142t-163 -53h-205v-93h291v-63h-291v-157zM197 633v-257h199q75 0 115 33t40 95q0 61 -40.5 95t-114.5 34h-199z" />
<glyph unicode="&#x2113;" horiz-adv-x="429" d="M143 182v-32q0 -94 97 -94q53 0 95 30v-68q-37 -30 -107 -30q-151 0 -151 157v350q0 99 42.5 156t116.5 57q62 0 95.5 -40.5t33.5 -112.5q0 -177 -222 -373zM143 493v-225q160 157 160 284q0 91 -66 91q-39 0 -66.5 -39.5t-27.5 -110.5z" />
<glyph unicode="&#x2116;" horiz-adv-x="1128" d="M1063 243h-299v63h299v-63zM171 0h-72v700h64l442 -572v572h72v-700h-63l-443 574v-574zM914 712q73 0 121 -49q48 -48 48 -119q0 -70 -48 -120q-48 -49 -121 -49q-72 0 -120 49q-47 50 -47 120t47 119q48 49 120 49zM1023 544q0 48 -31 80.5t-78 32.5t-77.5 -32.5 t-30.5 -80.5q0 -49 30 -81.5t78 -32.5t78.5 32.5t30.5 81.5z" />
<glyph unicode="&#x2122;" horiz-adv-x="690" d="M381 391h-49v309h46l104 -135l103 135h46v-309h-49v233l-87 -111h-26l-88 111v-233zM173 391h-49v266h-100v43h252v-43h-103v-266z" />
<glyph unicode="&#x2126;" horiz-adv-x="804" d="M310 0h-208v67h117q-54 54 -87 134t-33 167q0 148 84 246t219 98t219 -98t84 -246q0 -88 -33 -168t-88 -133h117v-67h-208v57q57 47 97 128q40 79 40 172q0 126 -65 206t-163 80q-100 0 -165 -80q-64 -79 -64 -206q0 -93 39 -172q42 -82 98 -128v-57z" />
<glyph unicode="&#x212e;" horiz-adv-x="805" d="M403 -12q-143 0 -238 94q-95 95 -95 236q0 138 94 235t239 97q134 0 224 -84q90 -81 104 -200q3 -36 3 -45h-570v-198q42 -52 104.5 -81.5t134.5 -29.5q96 0 171 49t111 133h27q-34 -90 -117 -149q-81 -57 -192 -57zM164 515v-170h478v170q-43 52 -105.5 81.5 t-133.5 29.5q-149 0 -239 -111z" />
<glyph unicode="&#x2153;" horiz-adv-x="782" d="M181 0h-69l413 700h68zM190 322h-63v312l-104 -58v63l106 61h61v-378zM597 -5q-70 0 -116 29v58q56 -32 111 -32q39 0 65.5 20.5t26.5 53.5q0 31 -23 50t-64 19q-28 0 -50 -8v41l105 99h-157v53h238v-47l-101 -96q49 -4 82.5 -33.5t33.5 -79.5q0 -57 -44 -92t-107 -35z " />
<glyph unicode="&#x2154;" horiz-adv-x="890" d="M312 322h-268v46l121 110q40 36 55.5 59.5t15.5 49.5q0 27 -20 43.5t-53 16.5q-57 0 -109 -43v63q50 38 114 38q55 0 93 -31q39 -32 39 -80q0 -38 -19.5 -70.5t-64.5 -73.5l-78 -75h174v-53zM705 -5q-70 0 -116 29v58q56 -32 111 -32q39 0 65.5 20.5t26.5 53.5 q0 31 -23 50t-64 19q-28 0 -50 -8v41l105 99h-157v53h238v-47l-101 -96q49 -4 82.5 -33.5t33.5 -79.5q0 -57 -44 -92t-107 -35zM288 0h-69l413 700h68z" />
<glyph unicode="&#x2155;" horiz-adv-x="764" d="M181 0h-69l413 700h68zM190 322h-63v312l-104 -58v63l106 61h61v-378zM570 -5q-62 0 -109 26v59q53 -30 107 -30q40 0 67.5 21t27.5 54q0 30 -25.5 50t-67.5 20q-50 0 -94 -15l25 198h200v-53h-153l-10 -86q17 5 46 5q63 0 102.5 -32.5t39.5 -86.5q0 -59 -44.5 -94.5 t-111.5 -35.5z" />
<glyph unicode="&#x2156;" horiz-adv-x="871" d="M677 -5q-62 0 -109 26v59q52 -30 107 -30q40 0 67.5 21t27.5 54q0 30 -26 50t-67 20q-51 0 -94 -15l25 198h200v-53h-153l-10 -86q17 5 46 5q63 0 102.5 -32.5t39.5 -86.5q0 -59 -44.5 -94.5t-111.5 -35.5zM312 322h-268v46l121 110q40 36 55.5 59.5t15.5 49.5 q0 27 -20 43.5t-53 16.5q-57 0 -109 -43v63q50 38 114 38q55 0 93 -31q39 -32 39 -80q0 -38 -19.5 -70.5t-64.5 -73.5l-78 -75h174v-53zM288 0h-69l413 700h68z" />
<glyph unicode="&#x2157;" horiz-adv-x="813" d="M619 -5q-62 0 -109 26v59q52 -30 107 -30q40 0 67.5 21t27.5 54q0 30 -26 50t-67 20q-51 0 -94 -15l25 198h200v-53h-153l-10 -86q17 5 46 5q63 0 102.5 -32.5t39.5 -86.5q0 -59 -44.5 -94.5t-111.5 -35.5zM142 317q-70 0 -116 29v58q56 -32 111 -32q39 0 65.5 20.5 t26.5 53.5q0 31 -23 50t-64 19q-28 0 -50 -8v41l105 99h-157v53h238v-47l-101 -96q49 -4 82.5 -33.5t33.5 -79.5q0 -57 -44 -92t-107 -35zM231 0h-69l413 700h68z" />
<glyph unicode="&#x2158;" horiz-adv-x="856" d="M273 0h-69l413 700h68zM662 -5q-62 0 -109 26v59q53 -30 107 -30q40 0 67.5 21t27.5 54q0 30 -25.5 50t-67.5 20q-50 0 -94 -15l25 198h200v-53h-153l-10 -86q17 5 46 5q63 0 102.5 -32.5t39.5 -86.5q0 -59 -44.5 -94.5t-111.5 -35.5zM279 322h-61v98h-197v45l196 235h62 v-229h59v-51h-59v-98zM218 625l-130 -154h130v154z" />
<glyph unicode="&#x2159;" horiz-adv-x="768" d="M181 0h-69l413 700h68zM190 322h-63v312l-104 -58v63l106 61h61v-378zM597 -5q-70 0 -109.5 48t-39.5 128q0 89 45 151q46 61 127 61q54 0 85 -22v-56q-35 24 -79 24q-49 0 -81 -35t-34 -92q35 45 99 45q54 0 89 -34.5t35 -88.5q0 -56 -40 -93q-39 -36 -97 -36zM595 46 q33 0 54.5 22t21.5 56q0 33 -22 53.5t-55 20.5q-26 0 -49.5 -16t-34.5 -40q2 -43 25.5 -69.5t59.5 -26.5z" />
<glyph unicode="&#x215a;" horiz-adv-x="826" d="M238 0h-69l413 700h68zM655 -5q-70 0 -109.5 48t-39.5 128q0 89 45 151q46 61 127 61q54 0 85 -22v-56q-35 24 -79 24q-49 0 -81 -35t-34 -92q35 45 99 45q54 0 89 -34.5t35 -88.5q0 -56 -40 -93q-39 -36 -97 -36zM653 46q33 0 54.5 22t21.5 56q0 33 -22 53.5t-55 20.5 q-26 0 -49.5 -16t-34.5 -40q2 -43 25.5 -69.5t59.5 -26.5zM143 317q-62 0 -109 26v59q53 -30 107 -30q40 0 67.5 21t27.5 54q0 30 -26 50t-67 20q-51 0 -94 -15l25 198h200v-53h-153l-10 -86q17 5 46 5q63 0 102.5 -32.5t39.5 -86.5q0 -59 -44.5 -94.5t-111.5 -35.5z" />
<glyph unicode="&#x215b;" horiz-adv-x="786" d="M181 0h-69l413 700h68zM190 322h-63v312l-104 -58v63l106 61h61v-378zM605 -5q-66 0 -109 30.5t-43 80.5q0 32 20.5 57.5t54.5 38.5q-25 10 -40 31.5t-15 47.5q0 45 37 73.5t95 28.5q57 0 94 -28.5t37 -73.5q0 -26 -15 -47.5t-40 -31.5q34 -13 54.5 -38.5t20.5 -57.5 q0 -50 -43 -80.5t-108 -30.5zM605 46q38 0 63 18.5t25 46.5q0 30 -24.5 48t-63.5 18t-64 -18t-25 -48q0 -28 25 -46.5t64 -18.5zM605 220q32 0 52 15.5t20 40.5t-20.5 41t-51.5 16q-32 0 -53 -16t-21 -41t20.5 -40.5t53.5 -15.5z" />
<glyph unicode="&#x215c;" horiz-adv-x="836" d="M231 0h-69l413 700h68zM655 -5q-66 0 -109 30.5t-43 80.5q0 32 20.5 57.5t54.5 38.5q-25 10 -40 31.5t-15 47.5q0 45 37 73.5t95 28.5q57 0 94 -28.5t37 -73.5q0 -26 -15 -47.5t-40 -31.5q34 -13 54.5 -38.5t20.5 -57.5q0 -50 -43 -80.5t-108 -30.5zM655 46q38 0 63 18.5 t25 46.5q0 30 -24.5 48t-63.5 18t-64 -18t-25 -48q0 -28 25 -46.5t64 -18.5zM655 220q32 0 52 15.5t20 40.5t-20.5 41t-51.5 16q-32 0 -53 -16t-21 -41t20.5 -40.5t53.5 -15.5zM142 317q-70 0 -116 29v58q56 -32 111 -32q39 0 65.5 20.5t26.5 53.5q0 31 -23 50t-64 19 q-28 0 -50 -8v41l105 99h-157v53h238v-47l-101 -96q49 -4 82.5 -33.5t33.5 -79.5q0 -57 -44 -92t-107 -35z" />
<glyph unicode="&#x215d;" horiz-adv-x="844" d="M663 -5q-66 0 -109 30.5t-43 80.5q0 32 20.5 57.5t54.5 38.5q-25 10 -40 31.5t-15 47.5q0 45 37 73.5t95 28.5q57 0 94 -28.5t37 -73.5q0 -26 -15 -47.5t-40 -31.5q34 -13 54.5 -38.5t20.5 -57.5q0 -50 -43 -80.5t-108 -30.5zM663 46q38 0 63 18.5t25 46.5q0 30 -24.5 48 t-63.5 18t-64 -18t-25 -48q0 -28 25 -46.5t64 -18.5zM663 220q32 0 52 15.5t20 40.5t-20.5 41t-51.5 16q-32 0 -53 -16t-21 -41t20.5 -40.5t53.5 -15.5zM143 317q-62 0 -109 26v59q53 -30 107 -30q40 0 67.5 21t27.5 54q0 30 -26 50t-67 20q-51 0 -94 -15l25 198h200v-53 h-153l-10 -86q17 5 46 5q63 0 102.5 -32.5t39.5 -86.5q0 -59 -44.5 -94.5t-111.5 -35.5zM238 0h-69l413 700h68z" />
<glyph unicode="&#x215e;" horiz-adv-x="776" d="M595 -5q-66 0 -109 30.5t-43 80.5q0 32 20.5 57.5t54.5 38.5q-25 10 -40 31.5t-15 47.5q0 45 37 73.5t95 28.5q57 0 94 -28.5t37 -73.5q0 -26 -15 -47.5t-40 -31.5q34 -13 54.5 -38.5t20.5 -57.5q0 -50 -43 -80.5t-108 -30.5zM595 46q38 0 63 18.5t25 46.5q0 30 -24.5 48 t-63.5 18t-64 -18t-25 -48q0 -28 25 -46.5t64 -18.5zM595 220q32 0 52 15.5t20 40.5t-20.5 41t-51.5 16q-32 0 -53 -16t-21 -41t20.5 -40.5t53.5 -15.5zM123 322h-69l166 325h-192v53h263v-49zM170 0h-69l413 700h68z" />
<glyph unicode="&#x215f;" horiz-adv-x="425" d="M190 322h-63v312l-104 -58v63l106 61h61v-378zM181 0h-69l413 700h68z" />
<glyph unicode="&#x2190;" horiz-adv-x="724" d="M248 474h78l-160 -178h479v-58h-479l160 -178h-78l-186 207z" />
<glyph unicode="&#x2191;" horiz-adv-x="571" d="M493 397v-78l-178 160v-479h-58v479l-178 -160v78l207 186z" />
<glyph unicode="&#x2192;" horiz-adv-x="724" d="M79 296h478l-159 178h78l186 -207l-186 -207h-78l159 178h-478v58z" />
<glyph unicode="&#x2193;" horiz-adv-x="571" d="M79 175v78l177 -159v478h58v-478l179 159v-78l-208 -185z" />
<glyph unicode="&#x2202;" horiz-adv-x="628" d="M273 -13q-97 0 -160 60t-63 158q0 103 68 176q68 72 169 72q68 0 121 -29.5t78 -76.5q1 5 1 26q0 47 -13.5 93.5t-38.5 86.5t-67 65t-93 25q-75 0 -143 -41v64q64 42 149 42q125 0 200 -97q76 -95 76 -254q0 -142 -63 -249q-33 -56 -90.5 -88.5t-130.5 -32.5zM277 52 q79 0 132 54t68 147q-18 61 -67 99t-111 38q-72 0 -125 -50q-52 -49 -52 -127q0 -70 44 -116q44 -45 111 -45z" />
<glyph unicode="&#x2206;" horiz-adv-x="753" d="M724 0h-694l312 700h69zM376 607l-242 -540h484z" />
<glyph unicode="&#x220f;" horiz-adv-x="760" d="M250 -129h-74v762h-113v67h634v-67h-114v-762h-74v762h-259v-762z" />
<glyph unicode="&#x2211;" horiz-adv-x="603" d="M557 0h-498v53l257 297l-253 297v53h492v-67h-388l224 -266v-33l-228 -267h394v-67z" />
<glyph unicode="&#x2212;" horiz-adv-x="619" d="M549 292h-479v67h479v-67z" />
<glyph unicode="&#x2215;" horiz-adv-x="518" d="M91 0h-67l412 700h67z" />
<glyph unicode="&#x2219;" horiz-adv-x="230" d="M78 198q-15 15 -15 37t15 37t37 15t37 -15t15 -37t-15 -37t-37 -15t-37 15z" />
<glyph unicode="&#x221a;" horiz-adv-x="678" d="M383 0h-64l-186 420h-140v63h186l171 -393l233 610h70z" />
<glyph unicode="&#x221e;" horiz-adv-x="800" d="M220 147q-71 0 -117 46t-46 121q0 72 47 119q46 46 116 46q92 0 181 -119q42 58 84.5 88.5t96.5 30.5q72 0 117 -48t45 -117q0 -72 -45 -120q-45 -47 -117 -47q-96 0 -182 119q-45 -60 -86.5 -89.5t-93.5 -29.5zM225 201q30 0 58 19q27 17 43 35t43 58q-28 40 -41 55 q-18 22 -47 39.5t-57 17.5q-50 0 -79 -32.5t-29 -78.5q0 -48 28.5 -80.5t80.5 -32.5zM576 201q51 0 80 32.5t29 80.5q0 47 -29 78.5t-80 31.5q-41 0 -73 -26.5t-72 -84.5q16 -24 40 -55q51 -57 105 -57z" />
<glyph unicode="&#x222b;" horiz-adv-x="523" d="M26 -204q-49 0 -85 17v65q40 -17 72 -17q55 0 89.5 37.5t45.5 108.5l79 510q29 191 191 191q52 0 87 -16v-66q-40 17 -74 17q-57 0 -89 -33t-44 -108l-80 -513q-15 -90 -63.5 -141.5t-128.5 -51.5z" />
<glyph unicode="&#x2248;" horiz-adv-x="664" d="M469 372q-52 0 -139 28q-89 29 -136 29q-79 0 -124 -47v67q15 19 50 31.5t74 12.5q48 0 137 -29q87 -28 138 -28q79 0 125 48v-68q-16 -19 -51 -31.5t-74 -12.5zM469 143q-52 0 -139 28q-89 29 -136 29q-78 0 -124 -48v68q15 19 50 31.5t74 12.5q48 0 137 -29 q90 -29 138 -29q79 0 125 48v-67q-16 -19 -51 -31.5t-74 -12.5z" />
<glyph unicode="&#x2260;" horiz-adv-x="619" d="M318 406h-248v66h283l62 116h66l-62 -116h130v-66h-165l-85 -162h250v-66h-285l-62 -119h-66l62 119h-128v66h163z" />
<glyph unicode="&#x2264;" horiz-adv-x="619" d="M549 243v-73l-479 188v63l479 188v-73l-401 -147zM548 54h-478v65h478v-65z" />
<glyph unicode="&#x2265;" horiz-adv-x="619" d="M549 358l-479 -188v73l401 146l-401 147v73l479 -188v-63zM549 54h-479v65h479v-65z" />
<glyph unicode="&#x22c5;" horiz-adv-x="236" d="M81 344q-15 15 -15 37t15 37t37 15t37 -15t15 -37t-15 -37t-37 -15t-37 15z" />
<glyph unicode="&#x25ca;" horiz-adv-x="562" d="M314 700l201 -350l-201 -350h-66l-200 350l200 350h66zM119 350l163 -288l162 288l-163 288z" />
<glyph unicode="&#x25fc;" horiz-adv-x="485" d="M0 485h485v-485h-485v485z" />
<glyph unicode="&#xf401;" horiz-adv-x="20" d="M-357 763h-69l95 133h92z" />
<glyph unicode="&#xf639;" d="M318 -12q-120 0 -194 104t-74 258t74 258t194 104q121 0 195 -104t74 -258q0 -155 -74 -259q-73 -103 -195 -103zM318 55q87 0 141 84t54 211t-54 211t-141 84q-86 0 -140 -84t-54 -211t54 -211t140 -84z" />
<glyph unicode="&#xf63a;" d="M556 0h-477v55l236 225q78 74 109 119q32 47 32 105q0 62 -44 100.5t-115 38.5q-111 0 -202 -94v83q89 80 209 80q97 0 161 -55q65 -56 65 -144q0 -70 -35 -128q-35 -57 -120 -137l-188 -181h369v-67z" />
<glyph unicode="&#xf63b;" d="M280 -12q-123 0 -204 51v77q85 -59 200 -59q79 0 138 44q59 45 59 121q0 72 -51.5 115.5t-138.5 43.5q-42 0 -78 -10v51l216 211h-316v67h416v-55l-209 -205q92 -2 163 -62q72 -60 72 -156q0 -104 -77 -169t-190 -65z" />
<glyph unicode="&#xf63c;" d="M484 0h-72v193h-376v59l377 448h71v-440h116v-67h-116v-193zM412 602l-290 -342h290v342z" />
<glyph unicode="&#xf63d;" d="M277 -12q-114 0 -193 46v74q83 -51 191 -51q89 0 147 46t58 118q0 71 -54.5 115.5t-144.5 44.5q-86 0 -168 -29l46 348h346v-67h-290l-28 -202q48 13 111 13q110 0 183 -63q73 -61 73 -160q0 -104 -79 -168q-80 -65 -198 -65z" />
<glyph unicode="&#xf63e;" d="M337 -12q-123 0 -194 86q-71 88 -71 242q-3 168 81 282.5t223 113.5q87 0 148 -43v-71q-66 45 -142 45q-79 0 -134 -45t-78.5 -110t-25.5 -144q28 48 81.5 76t123.5 28q95 0 160 -63q66 -61 66 -160q0 -103 -69 -170q-67 -67 -169 -67zM333 57q71 0 120 47q49 48 49 121 q0 72 -49 115t-122 43q-61 0 -114 -39q-51 -38 -71 -97q9 -91 57.5 -140.5t129.5 -49.5z" />
<glyph unicode="&#xf63f;" d="M227 0h-78l320 633h-377v67h462v-55z" />
<glyph unicode="&#xf640;" d="M434 369q70 -18 110 -65t40 -113q0 -93 -76 -148t-190 -55t-190 55t-76 148q0 66 40.5 113t110.5 65q-54 22 -85 63.5t-31 96.5q0 81 66 132t165 51q100 0 166 -51t66 -132q0 -55 -31 -96.5t-85 -63.5zM157 523q0 -56 46 -90t115 -34q70 0 116 35t46 89q0 56 -47 91 t-115 35t-115 -35q-46 -34 -46 -91zM318 51q81 0 137 41q56 42 56 103q0 63 -55 102q-56 39 -138 39t-137 -39t-55 -102q0 -61 55 -103q56 -41 137 -41z" />
<glyph unicode="&#xf641;" d="M299 712q123 0 194 -87q71 -86 71 -241q3 -168 -81 -282.5t-223 -113.5q-87 0 -148 43v71q66 -45 142 -45q79 0 134 45t78.5 110t25.5 144q-28 -48 -81.5 -76t-123.5 -28q-94 0 -161 62q-65 63 -65 161q0 102 68 170q68 67 170 67zM303 643q-71 0 -121 -48 q-48 -47 -48 -120q0 -72 49 -115t122 -43q61 0 114 39q51 38 71 97q-9 91 -57.5 140.5t-129.5 49.5z" />
<glyph unicode="&#xf643;" d="M131 420q73 75 188 75t188 -75q73 -73 73 -179t-73 -179q-74 -74 -188 -74t-188 74q-73 73 -73 179t73 179zM506 241q0 80 -53 135q-53 54 -134 54t-134 -54q-53 -55 -53 -135q0 -79 53 -134q53 -54 134 -54t134 54q53 55 53 134z" />
<glyph unicode="&#xf644;" d="M558 0h-453v67h194v336l-157 -90v71l165 99h65v-416h186v-67z" />
<glyph unicode="&#xf645;" d="M541 0h-449v55q159 86 220 124l45 30q12 8 39 31q45 41 45 85q0 47 -37 74.5t-99 27.5q-102 0 -200 -83v75q89 76 206 76q91 0 147 -45q57 -45 57 -116q0 -59 -39.5 -104t-117.5 -88l-135 -75h318v-67z" />
<glyph unicode="&#xf646;" d="M280 -204q-123 0 -204 51v77q88 -59 200 -59q81 0 138 42q58 42 58 117q0 71 -51 111.5t-138 40.5q-45 0 -78 -10v52l214 198h-314v67h415v-55l-208 -193q92 -1 163 -59q71 -57 71 -152q0 -105 -76 -166q-77 -62 -190 -62z" />
<glyph unicode="&#xf647;" d="M484 -200h-72v200h-376v58l377 425h71v-416h116v-67h-116v-200zM412 389l-289 -322h289v322z" />
<glyph unicode="&#xf648;" d="M274 -204q-113 0 -193 46v75q85 -52 191 -52q89 0 147 46q58 45 58 117q0 69 -54.5 112t-144.5 43q-86 0 -168 -29l45 329h346v-67h-290l-26 -182q49 12 110 12q111 0 183 -60q73 -60 73 -158q0 -103 -79 -167q-80 -65 -198 -65z" />
<glyph unicode="&#xf649;" d="M337 -12q-123 0 -194 86q-71 88 -71 242q-3 168 81 282.5t223 113.5q87 0 148 -43v-71q-66 45 -142 45q-79 0 -134 -45t-78.5 -110t-25.5 -144q28 48 81.5 76t123.5 28q95 0 160 -63q66 -61 66 -160q0 -103 -69 -170q-67 -67 -169 -67zM333 57q71 0 120 47q49 48 49 121 q0 72 -49 115t-122 43q-61 0 -114 -39q-51 -38 -71 -97q9 -91 57.5 -140.5t129.5 -49.5z" />
<glyph unicode="&#xf64a;" d="M234 -200h-78l312 616h-377v67h462v-55z" />
<glyph unicode="&#xf64b;" d="M434 369q70 -18 110 -65t40 -113q0 -93 -76 -148t-190 -55t-190 55t-76 148q0 66 40.5 113t110.5 65q-54 22 -85 63.5t-31 96.5q0 81 66 132t165 51q100 0 166 -51t66 -132q0 -55 -31 -96.5t-85 -63.5zM157 523q0 -56 46 -90t115 -34q70 0 116 35t46 89q0 56 -47 91 t-115 35t-115 -35q-46 -34 -46 -91zM318 51q81 0 137 41q56 42 56 103q0 63 -55 102q-56 39 -138 39t-137 -39t-55 -102q0 -61 55 -103q56 -41 137 -41z" />
<glyph unicode="&#xf64c;" d="M301 495q123 0 194 -87q71 -86 71 -241q0 -168 -81 -269q-81 -102 -223 -102q-87 0 -148 43v71q66 -45 142 -45q118 0 177 77q60 78 61 197q-28 -48 -81.5 -76t-123.5 -28q-94 0 -161 62q-65 63 -65 161q0 102 68 170q68 67 170 67zM305 426q-71 0 -121 -48 q-48 -46 -48 -120q0 -72 49 -115t122 -43q61 0 114 39q51 38 71 97q-9 91 -57.5 140.5t-129.5 49.5z" />
<glyph unicode="&#xf64e;" horiz-adv-x="575" d="M110 156h-79v51h67q-2 30 -2 35t2 29h-67v51h77q23 77 90 125q68 48 155 48q84 0 146 -35v-67q-65 37 -136 37q-60 0 -108.5 -29t-71.5 -79h213v-51h-227q-2 -24 -2 -30q0 -19 3 -34h226v-51h-210q22 -48 69.5 -75.5t107.5 -27.5q81 0 145 42v-66q-68 -41 -156 -41 q-87 0 -152 46q-66 47 -90 122z" />
<glyph unicode="&#xf653;" horiz-adv-x="502" d="M283 -10v-107h-66v106q-109 8 -168 49v74q88 -59 198 -59q62 0 97.5 20.5t35.5 56.5q0 31 -34 51q-10 8 -51 18q-12 4 -33 8q-27 7 -33 8q-91 23 -130 54.5t-39 91.5q0 55 41.5 90t115.5 42v107h66v-106q91 -8 147 -42v-71q-82 49 -173 49q-61 0 -92.5 -19t-31.5 -52 q0 -36 37 -54q7 -2 17.5 -6.5t21.5 -7.5l22 -6q24 -8 48 -11q90 -22 132.5 -54t42.5 -91q0 -58 -47 -95t-124 -44z" />
<glyph unicode="&#xf6c3;" horiz-adv-x="231" d="M115 -231h-57l56 177h75z" />
<glyph unicode="&#xf6d4;" horiz-adv-x="489" d="M254 565q-73 0 -118 41.5t-46 110.5h64q0 -42 27 -68t72 -26q44 0 71 26t28 68h63q-1 -68 -46 -110t-115 -42z" />
<glyph unicode="&#xf6dc;" d="M561 0h-461v67h199v553l-158 -90v71l165 99h65v-633h190v-67z" />
<glyph unicode="&#xf721;" horiz-adv-x="543" d="M292 -12q-86 0 -138.5 29t-52.5 81q0 45 36 72h-71v51h406v-51h-251q-46 -19 -46 -56q0 -28 32.5 -44.5t91.5 -16.5q83 0 150 27v-66q-67 -26 -157 -26zM265 495q85 0 135 -28.5t50 -80.5q0 -20 -10 -38.5t-23 -25.5h55v-51h-406v51h267q43 16 43 49q0 59 -118 59 q-82 0 -146 -27v66q67 26 153 26z" />
<glyph unicode="&#xf722;" horiz-adv-x="591" d="M189 0h-72v67h-77v51h77v60h-77v51h77v254h237q83 0 131 -42.5t48 -112.5q0 -69 -49 -109.5t-133 -40.5h-162v-60h200v-51h-200v-67zM189 420v-191h152q58 0 89 24t31 71t-31 71.5t-89 24.5h-152z" />
<glyph unicode="&#xf725;" horiz-adv-x="535" d="M123 184h-69v59h69v66q0 89 54 137.5t153 48.5q86 0 146 -36v-69q-65 40 -139 40q-142 0 -142 -127v-60h230v-59h-230v-68q0 -37 -22 -53h310v-63h-429v63h27q42 0 42 71v50z" />
<glyph unicode="&#xf727;" horiz-adv-x="572" d="M322 0h-72v84h-156v51h156v62h-156v51h139l-184 235h84l154 -199l154 199h83l-186 -235h139v-51h-155v-62h155v-51h-155v-84z" />
<glyph unicode="&#xf730;" horiz-adv-x="621" d="M123 420q73 75 188 75t188 -75q73 -73 73 -179t-73 -179q-74 -74 -188 -74t-188 74q-73 73 -73 179t73 179zM498 241q0 80 -53 135q-53 54 -134 54t-134 -54q-53 -55 -53 -135q0 -79 53 -134q53 -54 134 -54t134 54q53 55 53 134z" />
<glyph unicode="&#xf731;" horiz-adv-x="365" d="M264 0h-73v403l-157 -90v71l165 99h65v-483z" />
<glyph unicode="&#xf732;" horiz-adv-x="566" d="M504 0h-449v55q159 86 220 124l45 30q12 8 39 31q45 41 45 85q0 47 -37 74.5t-99 27.5q-102 0 -200 -83v75q89 76 206 76q92 0 147 -45q57 -45 57 -116q0 -59 -39.5 -104t-117.5 -88l-135 -75h318v-67z" />
<glyph unicode="&#xf733;" horiz-adv-x="561" d="M234 -204q-123 0 -204 51v77q88 -59 200 -59q81 0 138 42q58 42 58 117q0 71 -51 111.5t-138 40.5q-45 0 -78 -10v52l214 198h-314v67h415v-55l-208 -193q92 -1 163 -59q71 -57 71 -152q0 -105 -76 -166q-77 -62 -190 -62z" />
<glyph unicode="&#xf734;" horiz-adv-x="633" d="M484 -200h-72v200h-376v58l377 425h71v-416h116v-67h-116v-200zM412 389l-289 -322h289v322z" />
<glyph unicode="&#xf735;" horiz-adv-x="594" d="M254 -204q-113 0 -193 46v75q85 -52 191 -52q89 0 147 46q58 45 58 117q0 69 -54.5 112t-144.5 43q-86 0 -168 -29l45 329h346v-67h-290l-26 -182q49 12 110 12q111 0 183 -60q73 -60 73 -158q0 -103 -79 -167q-80 -65 -198 -65z" />
<glyph unicode="&#xf736;" horiz-adv-x="641" d="M336 -12q-123 0 -194 86q-71 88 -71 242q-3 168 81 282.5t223 113.5q87 0 148 -43v-71q-66 45 -142 45q-79 0 -134 -45t-78.5 -110t-25.5 -144q28 48 81.5 76t123.5 28q96 0 160 -63q66 -61 66 -160q0 -103 -69 -170q-67 -67 -169 -67zM332 57q71 0 120 47q49 48 49 121 q0 72 -49 115t-122 43q-62 0 -114 -39q-51 -38 -71 -97q9 -91 57.5 -140.5t129.5 -49.5z" />
<glyph unicode="&#xf737;" horiz-adv-x="541" d="M185 -200h-78l312 616h-377v67h462v-55z" />
<glyph unicode="&#xf738;" horiz-adv-x="646" d="M439 369q70 -18 110 -65t40 -113q0 -93 -76 -148t-190 -55t-190 55t-76 148q0 66 40.5 113t110.5 65q-54 22 -85 63.5t-31 96.5q0 81 66 132t165 51q100 0 166 -51t66 -132q0 -55 -31 -96.5t-85 -63.5zM162 523q0 -56 46 -90t115 -34q70 0 116 35t46 89q0 56 -47 91 t-115 35t-115 -35q-46 -34 -46 -91zM323 51q81 0 137 41q56 42 56 103q0 63 -55 102t-138 39q-81 0 -137 -39q-55 -39 -55 -102q0 -61 55 -103q56 -41 137 -41z" />
<glyph unicode="&#xf739;" horiz-adv-x="640" d="M306 495q124 0 194 -87q71 -86 71 -241q0 -168 -81 -269q-81 -102 -223 -102q-87 0 -148 43v71q66 -45 142 -45q118 0 177 77q60 78 61 197q-28 -48 -81.5 -76t-123.5 -28q-94 0 -161 62q-65 63 -65 161q0 102 68 170q68 67 170 67zM310 426q-72 0 -121 -48 q-48 -46 -48 -120q0 -72 49 -115t122 -43q62 0 114 39q51 38 71 97q-9 91 -57.5 140.5t-129.5 49.5z" />
<glyph horiz-adv-x="0" />
<glyph horiz-adv-x="333" />
<glyph d="M480 406v77h72v-483h-72v77q-68 -89 -187 -89q-107 0 -175 74t-68 179q0 106 68 180t175 74q119 0 187 -89zM480 162v159q-21 48 -68 78.5t-102 30.5q-81 0 -133 -55q-53 -55 -53 -134t53 -134q53 -54 133 -54q54 0 101 30.5t69 78.5zM385 589q-28 0 -74 28t-64 28 q-37 0 -41 -52h-49q2 49 25.5 79.5t61.5 30.5q28 0 74 -28t64 -28q19 0 27 12t14 40h49q-1 -49 -24.5 -79.5t-62.5 -30.5z" />
<glyph horiz-adv-x="1246" d="M173 0h-74v700h549v-576l435 576h65v-700h-73v578l-438 -578h-63v633h-401v-633z" />
<glyph horiz-adv-x="980" d="M514 0h-67v420h-290v-420h-72v483h434v-377l309 377h67v-483h-72v376z" />
<glyph horiz-adv-x="1089" d="M351 0h-74v633h-241v67h600v-291q77 86 193 86q89 0 136.5 -52.5t47.5 -148.5v-294h-72v278q0 149 -137 149q-50 0 -97 -31q-48 -31 -71 -70v-326h-72v633h-213v-633z" />
<glyph horiz-adv-x="601" d="M361 -204q-53 0 -85 18v66q32 -19 70 -19q85 0 85 97v462h-236v-420h-72v420h-96v63h96v81q0 67 36 105.5t102 38.5q61 0 102 -19v-66q-48 20 -84 20q-84 0 -84 -93v-67h308v-536q0 -75 -38 -113t-104 -38zM466 598q-21 0 -35.5 14.5t-14.5 36.5t14.5 36.5t35.5 14.5 q22 0 37 -14.5t15 -36.5t-15 -36.5t-37 -14.5z" />
<glyph d="M480 406v77h72v-483h-72v77q-68 -89 -187 -89q-107 0 -175 74t-68 179q0 106 68 180t175 74q119 0 187 -89zM480 162v159q-21 48 -68 78.5t-102 30.5q-81 0 -133 -55q-53 -55 -53 -134t53 -134q53 -54 133 -54q54 0 101 30.5t69 78.5zM178 612q-13 14 -13 34t13 33 q14 14 34 14t33 -14q14 -13 14 -33t-14 -34q-13 -13 -33 -13t-34 13zM378 612q-13 14 -13 34t13 33q14 14 34 14t33 -14q14 -13 14 -33t-14 -34q-13 -13 -33 -13t-34 13z" />
<glyph d="M140 156h-79v51h67q-2 30 -2 35t2 29h-67v51h77q23 77 90 125q68 48 155 48q84 0 146 -35v-67q-65 37 -136 37q-60 0 -108.5 -29t-71.5 -79h213v-51h-227q-2 -24 -2 -30q0 -19 3 -34h226v-51h-210q22 -48 69.5 -75.5t107.5 -27.5q81 0 145 42v-66q-68 -41 -156 -41 q-87 0 -152 46q-66 47 -90 122z" />
<glyph d="M480 406v77h72v-483h-72v77q-68 -89 -187 -89q-107 0 -175 74t-68 179q0 106 68 180t175 74q119 0 187 -89zM480 162v159q-21 48 -68 78.5t-102 30.5q-81 0 -133 -55q-53 -55 -53 -134t53 -134q53 -54 133 -54q54 0 101 30.5t69 78.5zM377 576h-69l-118 134h91z" />
<glyph d="M480 406v77h72v-483h-72v77q-68 -89 -187 -89q-107 0 -175 74t-68 179q0 106 68 180t175 74q119 0 187 -89zM480 162v159q-21 48 -68 78.5t-102 30.5q-81 0 -133 -55q-53 -55 -53 -134t53 -134q53 -54 133 -54q54 0 101 30.5t69 78.5zM317 576h-70l96 134h92z" />
<glyph d="M210 0h-72v67h-77v51h77v365h387v-63h-315v-154h250v-63h-250v-85h131v-51h-131v-67z" />
<glyph horiz-adv-x="561" d="M259 749q-75 0 -120.5 41.5t-46.5 110.5h64q0 -42 28 -68t75 -26q45 0 72.5 26t28.5 68h64q-2 -69 -48 -111q-47 -41 -117 -41z" />
<glyph horiz-adv-x="353" d="M157 420v-420h-72v564q0 67 36 105.5t102 38.5q61 0 102 -19v-66q-48 20 -84 20q-84 0 -84 -93v-67h168v-63h-168z" />
<glyph horiz-adv-x="496" d="M403 0h-72v483h72v-483zM214 612q-13 14 -13 34t13 33q14 14 34 14t33 -14q14 -13 14 -33t-14 -34q-13 -13 -33 -13t-34 13zM165 0h-72v483h72v-483zM-4 612q-14 14 -14 34t14 33q14 14 33 14t33 -14q14 -13 14 -33t-14 -34q-14 -13 -33 -13t-33 13zM434 612 q-14 14 -14 34t14 33q14 14 33 14t33 -14q14 -13 14 -33t-14 -34q-14 -13 -33 -13t-33 13z" />
<glyph horiz-adv-x="993" d="M152 0h-67v483h72v-377l309 377h67v-377l308 377h67v-483h-71v376l-311 -376h-65v376zM684 558q-73 0 -117.5 41.5t-45.5 111.5h64q0 -42 27 -68.5t72 -26.5q44 0 71 26.5t27 68.5h64q0 -69 -46 -111q-47 -42 -116 -42z" />
<glyph d="M354 0h-72v84h-156v51h156v62h-156v51h139l-184 235h84l154 -199l154 199h83l-186 -235h139v-51h-155v-62h155v-51h-155v-84z" />
<glyph d="M163 0h-72v293h-75v63h75v127h244q74 0 120.5 -34t57.5 -93h70v-63h-69q-10 -61 -58.5 -96t-123.5 -35h-169v-162zM322 420h-159v-195h159q57 0 89 25.5t32 72.5q0 46 -32 71.5t-89 25.5z" />
<glyph d="M480 406v77h72v-483h-72v77q-68 -89 -187 -89q-107 0 -175 74t-68 179q0 106 68 180t175 74q119 0 187 -89zM480 162v159q-21 48 -68 78.5t-102 30.5q-81 0 -133 -55q-53 -55 -53 -134t53 -134q53 -54 133 -54q54 0 101 30.5t69 78.5zM232 576h-71l112 134h73l110 -134 h-71l-77 92z" />
<glyph d="M107 143q0 74 55 120h-90v63h483v-63h-293q-79 -42 -79 -107q0 -99 159 -99q98 0 175 39v-73q-79 -35 -184 -35q-106 0 -166 41.5t-60 113.5zM555 395h-483v63h317q58 34 58 90q0 95 -153 95q-88 0 -166 -35v71q68 33 173 33q104 0 163.5 -42t59.5 -113q0 -62 -43 -99h74 v-63z" />
<glyph d="M480 406v77h72v-483h-72v77q-68 -89 -187 -89q-107 0 -175 74t-68 179q0 106 68 180t175 74q119 0 187 -89zM480 162v159q-21 48 -68 78.5t-102 30.5q-81 0 -133 -55q-53 -55 -53 -134t53 -134q53 -54 133 -54q54 0 101 30.5t69 78.5zM242 714q28 28 68 28t68 -28t28 -68 t-28 -68t-68 -28t-68 28t-28 68t28 68zM310 590q24 0 40 16.5t16 39.5q0 24 -16 40t-40 16q-23 0 -39.5 -16t-16.5 -40q0 -23 16.5 -39.5t39.5 -16.5z" />
<glyph d="M480 406v77h72v-483h-72v77q-68 -89 -187 -89q-107 0 -175 74t-68 179q0 106 68 180t175 74q119 0 187 -89zM480 162v159q-21 48 -68 78.5t-102 30.5q-81 0 -133 -55q-53 -55 -53 -134t53 -134q53 -54 133 -54q54 0 101 30.5t69 78.5zM442 618h-252v55h252v-55z" />
<glyph horiz-adv-x="1270" d="M161 0h-62v700h73v-576l435 576h65v-576l435 576h65v-700h-73v578l-438 -578h-62v578zM886 745q-73 0 -119.5 42t-47.5 111h64q0 -42 28 -68.5t74 -26.5q45 0 73.5 26.5t28.5 68.5h64q0 -68 -46 -110.5t-119 -42.5z" />
<glyph d="M330 -12q-86 0 -138.5 29t-52.5 81q0 45 36 72h-71v51h406v-51h-251q-46 -19 -46 -56q0 -28 32.5 -44.5t91.5 -16.5q83 0 150 27v-66q-67 -26 -157 -26zM303 495q85 0 135 -28.5t50 -80.5q0 -20 -10 -38.5t-23 -25.5h55v-51h-406v51h267q43 16 43 49q0 59 -118 59 q-82 0 -146 -27v66q67 26 153 26z" />
<glyph d="M157 184h-69v59h69v66q0 89 54 137.5t153 48.5q86 0 146 -36v-69q-65 40 -139 40q-142 0 -142 -127v-60h230v-59h-230v-68q0 -37 -22 -53h310v-63h-429v63h27q42 0 42 71v50z" />
<glyph horiz-adv-x="519" d="M334 772q-28 0 -74 28q-47 29 -64 29q-36 0 -41 -53h-49q2 48 25.5 79t61.5 31q28 0 74 -28t64 -28q19 0 27 12t14 40h49q-1 -49 -24.5 -79.5t-62.5 -30.5z" />
<glyph horiz-adv-x="644" d="M111 409h-83v63h95q28 107 110 174q81 66 199 66q100 0 173 -49v-73q-76 53 -166 53q-86 0 -149 -46t-88 -125h251v-63h-266q-4 -21 -4 -52q0 -23 2 -41h268v-63h-258q21 -92 84 -144t160 -52q109 0 182 66v-76q-77 -59 -189 -59q-126 0 -208 72q-82 73 -106 193h-90v63 h82q-2 18 -2 41q0 25 3 52z" />
<glyph horiz-adv-x="623" d="M544 0h-470v67h20q29 0 40.5 21.5t11.5 64.5v142h-72v67h72v124q0 107 60.5 166.5t168.5 59.5q96 0 163 -43v-73q-67 47 -153 47q-80 0 -122.5 -43t-42.5 -124v-114h274v-67h-274v-173q0 -38 -24 -55h348v-67z" />
<glyph horiz-adv-x="638" d="M356 0h-74v141h-209v63h209v93h-209v63h184l-229 340h86l207 -312l207 312h83l-229 -340h184v-63h-210v-93h210v-63h-210v-141z" />
<glyph d="M351 -10v-103l-74 1v102q-138 9 -221 72v83q42 -36 109 -62q72 -26 145 -26q83 0 136 36t53 96q6 56 -58 95q-13 10 -42 20l-44 15q-3 1 -12 3.5t-19.5 6t-21.5 6.5q-62 18 -74 22q-32 11 -62 25q-33 16 -52 35q-44 46 -44 114q0 74 55 122.5t152 56.5v103h74v-103 q100 -9 179 -56v-76q-104 65 -216 65q-81 0 -125 -32t-44 -82q-6 -40 45 -79q8 -7 33 -16l34 -13l43 -12l42 -12q55 -17 69 -22q29 -10 61 -27q33 -17 54 -38q49 -45 49 -120q0 -87 -64 -139q-62 -52 -160 -61z" />
<glyph d="M351 -10v-107h-66v106q-109 8 -168 49v74q88 -59 198 -59q62 0 97.5 20.5t35.5 56.5q0 31 -34 51q-10 8 -51 18q-12 4 -33 8q-27 7 -33 8q-91 23 -130 54.5t-39 91.5q0 55 41.5 90t115.5 42v107h66v-106q91 -8 147 -42v-71q-82 49 -173 49q-61 0 -92.5 -19t-31.5 -52 q0 -36 37 -54q7 -2 17.5 -6.5t21.5 -7.5l22 -6q24 -8 48 -11q90 -22 132.5 -54t42.5 -91q0 -58 -47 -95t-124 -44z" />
<glyph d="M210 0h-72v67h-77v51h77v60h-77v51h77v254h237q83 0 131 -42.5t48 -112.5q0 -69 -49 -109.5t-133 -40.5h-162v-60h200v-51h-200v-67zM210 420v-191h152q58 0 89 24t31 71t-31 71.5t-89 24.5h-152z" />
<glyph horiz-adv-x="1028" d="M195 420v-420h-72v420h-96v63h96v81q0 67 36 105.5t102 38.5q61 0 102 -19v-66q-48 20 -84 20q-84 0 -84 -93v-67h236v81q0 67 36 105.5t102 38.5q61 0 102 -19v-66q-48 20 -84 20q-84 0 -84 -93v-67h236v149h72v-149h169v-63h-169v-261q0 -58 19 -80q20 -23 65 -23 q44 0 79 20v-66q-31 -22 -99 -22q-67 0 -101.5 39.5t-34.5 109.5v283h-236v-420h-72v420h-236z" />
<glyph d="M573 -195q-51 0 -81.5 28t-30.5 71q0 53 40 96h-21v77q-68 -89 -187 -89q-107 0 -175 74t-68 179q0 106 68 180t175 74q119 0 187 -89v77h72v-483q-37 -38 -37 -83q0 -29 19 -47t50 -18q19 0 40 7v-48q-20 -6 -51 -6zM480 162v159q-21 48 -68 78.5t-102 30.5 q-81 0 -133 -55q-53 -55 -53 -134t53 -134q53 -54 133 -54q54 0 101 30.5t69 78.5z" />
<glyph d="M480 406v77h72v-483h-72v77q-68 -89 -187 -89q-107 0 -175 74t-68 179q0 106 68 180t175 74q119 0 187 -89zM480 162v159q-21 48 -68 78.5t-102 30.5q-81 0 -133 -55q-53 -55 -53 -134t53 -134q53 -54 133 -54q54 0 101 30.5t69 78.5zM313 570q-57 0 -98 39 q-39 39 -41 101h57q1 -37 24 -61.5t58 -24.5q34 0 57 24.5t24 61.5h57q-1 -59 -42 -100q-40 -40 -96 -40z" />
<glyph horiz-adv-x="617" d="M295 495q93 0 154 -55l132 56v-61l-94 -43q28 -44 28 -98q0 -61 -34 -110q67 -64 67 -158t-71 -162t-180 -68q-103 0 -176 62q-72 61 -75 160h74q1 -66 52 -112q50 -45 125 -45q76 0 127 48t51 117q0 65 -42 110q-59 -42 -138 -42q-99 0 -160 58t-61 142t61 142 q62 59 160 59zM295 159q63 0 106 38q43 39 43 97t-43 97q-42 39 -106 39q-65 0 -108 -39t-43 -97t43 -97q44 -38 108 -38zM223 576h-71l112 134h73l110 -134h-71l-77 92z" />
<glyph horiz-adv-x="520" d="M120 896h57q1 -37 24 -62t58 -25q34 0 57 25t24 62h57q-1 -62 -41 -101t-97 -39t-98 39q-39 39 -41 101z" />
<glyph horiz-adv-x="478" d="M202 794q-13 14 -13 33t13 33q14 14 34 14t33 -14q14 -14 14 -33t-14 -33q-13 -14 -33 -14t-34 14z" />
<glyph horiz-adv-x="532" d="M302 763h-73l-110 133h71l76 -91l77 91h70z" />
<glyph horiz-adv-x="522" d="M259 926q39 0 67 -28t28 -68t-28 -68t-67 -28q-40 0 -68.5 28t-28.5 68t28.5 68t68.5 28zM259 774q23 0 39 16.5t16 39.5q0 24 -16 40t-39 16q-24 0 -40.5 -16t-16.5 -40q0 -23 16.5 -39.5t40.5 -16.5z" />
<glyph horiz-adv-x="517" d="M335 763h-70l-118 133h92z" />
<glyph horiz-adv-x="492" d="M220 763h-69l95 133h92z" />
<glyph horiz-adv-x="533" d="M390 802h-252v55h252v-55z" />
<glyph horiz-adv-x="617" d="M295 495q93 0 154 -55l132 56v-61l-94 -43q28 -44 28 -98q0 -61 -34 -110q67 -64 67 -158t-71 -162t-180 -68q-103 0 -176 62q-72 61 -75 160h74q1 -66 52 -112q50 -45 125 -45q76 0 127 48t51 117q0 65 -42 110q-59 -42 -138 -42q-99 0 -160 58t-61 142t61 142 q62 59 160 59zM295 159q63 0 106 38q43 39 43 97t-43 97q-42 39 -106 39q-65 0 -108 -39t-43 -97t43 -97q44 -38 108 -38zM295 570q-57 0 -98 39q-39 39 -41 101h57q1 -37 24 -61.5t58 -24.5q34 0 57 24.5t24 61.5h57q-1 -59 -42 -100q-40 -40 -96 -40z" />
<glyph horiz-adv-x="617" d="M295 495q93 0 154 -55l132 56v-61l-94 -43q28 -44 28 -98q0 -61 -34 -110q67 -64 67 -158t-71 -162t-180 -68q-103 0 -176 62q-72 61 -75 160h74q1 -66 52 -112q50 -45 125 -45q76 0 127 48t51 117q0 65 -42 110q-59 -42 -138 -42q-99 0 -160 58t-61 142t61 142 q62 59 160 59zM295 159q63 0 106 38q43 39 43 97t-43 97q-42 39 -106 39q-65 0 -108 -39t-43 -97t43 -97q44 -38 108 -38zM262 612q-14 14 -14 34t14 33q14 14 33 14t33 -14q14 -13 14 -33t-14 -34q-14 -13 -33 -13t-33 13z" />
<glyph horiz-adv-x="617" d="M295 495q93 0 154 -55l132 56v-61l-94 -43q28 -44 28 -98q0 -61 -34 -110q67 -64 67 -158t-71 -162t-180 -68q-103 0 -176 62q-72 61 -75 160h74q1 -66 52 -112q50 -45 125 -45q76 0 127 48t51 117q0 65 -42 110q-59 -42 -138 -42q-99 0 -160 58t-61 142t61 142 q62 59 160 59zM295 159q63 0 106 38q43 39 43 97t-43 97q-42 39 -106 39q-65 0 -108 -39t-43 -97t43 -97q44 -38 108 -38zM307 734h57l-56 -177h-75z" />
<glyph horiz-adv-x="986" d="M152 0h-67v483h72v-377l309 377h67v-203h296v203h72v-483h-72v215h-296v-215h-72v376z" />
<glyph horiz-adv-x="1261" d="M161 0h-62v700h73v-575l435 575h65v-291h418v291h73v-700h-73v342h-418v-342h-73v577z" />
<glyph horiz-adv-x="850" d="M774 350q0 -143 -89 -246l90 -104h-83l-53 61q-94 -73 -217 -73q-152 0 -252 103t-100 259q0 155 100 258q101 104 252 104q150 0 251 -104t101 -258zM422 57q96 0 170 59l-179 207h84l139 -162q63 81 63 189q0 124 -80 209q-79 84 -197 84t-197 -84q-80 -85 -80 -209 t80 -209q79 -84 197 -84z" />
<glyph horiz-adv-x="514" d="M132 794q-14 14 -14 34t14 33q14 14 33 14t33 -14q14 -13 14 -33t-14 -34q-14 -13 -33 -13t-33 13zM332 794q-14 14 -14 34t14 33q14 14 33 14t33 -14q14 -13 14 -33t-14 -34q-14 -13 -33 -13t-33 13z" />
<glyph horiz-adv-x="986" d="M157 0h-72v483h72v-203h297v203h71v-377l309 377h67v-483h-71v375l-309 -375h-67v215h-297v-215z" />
<glyph horiz-adv-x="521" d="M182 763h-71l111 133h72l111 -133h-71l-76 92z" />
<glyph horiz-adv-x="850" d="M774 350q0 -144 -87 -244t-222 -115q23 -6 117 -48t150 -42q41 0 70 20v-68q-29 -17 -74 -17q-57 -2 -177.5 50t-155.5 50q-87 0 -150 -60v73q41 34 99 47q-122 26 -198 123t-76 231q0 155 100 258q101 104 252 104q150 0 251 -104t101 -258zM225 141q79 -84 197 -84 t197 84q80 85 80 209t-80 209q-79 84 -197 84t-197 -84q-80 -85 -80 -209t80 -209z" />
<glyph d="M182 0h-74v148h-114v63h114v489h477v-67h-403v-233h328v-67h-328v-122h174v-63h-174v-148z" />
<glyph horiz-adv-x="738" d="M277 -12q-67 0 -101.5 39.5t-34.5 109.5v283h-114v63h114v149h72v-149h236v149h72v-149h169v-63h-169v-261q0 -58 19 -80q20 -23 65 -23q44 0 79 20v-66q-31 -22 -99 -22q-67 0 -101.5 39.5t-34.5 109.5v283h-236v-261q0 -58 19 -80q20 -23 65 -23q44 0 79 20v-66 q-31 -22 -99 -22z" />
<glyph d="M551 0h-470v67h19q53 0 53 86v67h-72v63h72v93h-72v63h72v48q0 107 60.5 166.5t168.5 59.5q96 0 163 -43v-73q-67 47 -153 47q-80 0 -122.5 -42.5t-42.5 -124.5v-38h254v-63h-254v-93h254v-63h-254v-98q0 -38 -24 -55h348v-67z" />
<glyph horiz-adv-x="366" d="M213 -12q-67 0 -101.5 40t-34.5 109v495h72v-149h169v-63h-169v-261q0 -58 19 -80q20 -23 65 -23q44 0 79 20v-66q-31 -22 -99 -22z" />
<glyph horiz-adv-x="574" d="M355 763h-70l96 133h91zM183 763h-70l96 133h92z" />
<glyph d="M63 472h-74v63h74v165h295q94 0 152.5 -44.5t68.5 -120.5h67v-63h-68q-11 -75 -69 -119t-151 -44h-221v-309h-74v472zM137 633v-257h216q73 0 114 33.5t41 94.5q0 62 -41 95.5t-114 33.5h-216z" />
<glyph horiz-adv-x="1261" d="M172 0h-73v700h73v-291h418v291h73v-576l435 576h65v-700h-73v578l-438 -578h-62v342h-418v-342z" />
<glyph horiz-adv-x="841" d="M309 322h-268v46l121 110q40 36 55.5 59.5t15.5 49.5q0 27 -20 43.5t-53 16.5q-57 0 -109 -43v63q50 38 114 38q55 0 93 -31q39 -32 39 -80q0 -38 -19.5 -70.5t-64.5 -73.5l-78 -75h174v-53zM654 -5q-70 0 -116 29v58q56 -32 111 -32q39 0 65.5 20.5t26.5 53.5 q0 31 -23 50t-64 19q-28 0 -50 -8v41l105 99h-157v53h238v-47l-101 -96q49 -4 82.5 -33.5t33.5 -79.5q0 -57 -44 -92t-107 -35zM261 0h-69l413 700h68z" />
<glyph horiz-adv-x="841" d="M216 0h-69l413 700h68zM225 322h-63v312l-104 -58v63l106 61h61v-378zM633 -5q-70 0 -116 29v58q56 -32 111 -32q39 0 65.5 20.5t26.5 53.5q0 31 -23 50t-64 19q-28 0 -50 -8v41l105 99h-157v53h238v-47l-101 -96q49 -4 82.5 -33.5t33.5 -79.5q0 -57 -44 -92t-107 -35z " />
<glyph horiz-adv-x="861" d="M642 -5q-66 0 -109 30.5t-43 80.5q0 32 20.5 57.5t54.5 38.5q-25 10 -40 31.5t-15 47.5q0 45 37 73.5t95 28.5q57 0 94 -28.5t37 -73.5q0 -26 -15 -47.5t-40 -31.5q34 -13 54.5 -38.5t20.5 -57.5q0 -50 -43 -80.5t-108 -30.5zM642 46q38 0 63 18.5t25 46.5q0 30 -24.5 48 t-63.5 18t-64 -18t-25 -48q0 -28 25 -46.5t64 -18.5zM642 220q32 0 52 15.5t20 40.5t-20.5 41t-51.5 16q-32 0 -53 -16t-21 -41t20.5 -40.5t53.5 -15.5zM170 322h-69l166 325h-192v53h263v-49zM218 0h-69l413 700h68z" />
<glyph horiz-adv-x="841" d="M615 -5q-62 0 -109 26v59q52 -30 107 -30q40 0 67.5 21t27.5 54q0 30 -26 50t-67 20q-51 0 -94 -15l25 198h200v-53h-153l-10 -86q17 5 46 5q63 0 102.5 -32.5t39.5 -86.5q0 -59 -44.5 -94.5t-111.5 -35.5zM236 322h-63v312l-104 -58v63l106 61h61v-378zM226 0h-69 l413 700h68z" />
<glyph horiz-adv-x="841" d="M269 0h-69l413 700h68zM318 322h-268v46l121 110q40 36 55.5 59.5t15.5 49.5q0 27 -20 43.5t-53 16.5q-57 0 -109 -43v63q50 38 114 38q55 0 93 -31q39 -32 39 -80q0 -38 -19.5 -70.5t-64.5 -73.5l-78 -75h174v-53zM634 -5q-62 0 -109 26v59q53 -30 107 -30q40 0 67.5 21 t27.5 54q0 30 -25.5 50t-67.5 20q-50 0 -94 -15l25 198h200v-53h-153l-10 -86q17 5 46 5q63 0 102.5 -32.5t39.5 -86.5q0 -59 -44.5 -94.5t-111.5 -35.5z" />
<glyph horiz-adv-x="841" d="M250 0h-69l413 700h68zM638 -5q-62 0 -109 26v59q53 -30 107 -30q40 0 67.5 21t27.5 54q0 30 -25.5 50t-67.5 20q-50 0 -94 -15l25 198h200v-53h-153l-10 -86q17 5 46 5q63 0 102.5 -32.5t39.5 -86.5q0 -59 -44.5 -94.5t-111.5 -35.5zM161 317q-70 0 -116 29v58 q56 -32 111 -32q39 0 65.5 20.5t26.5 53.5q0 31 -23 50t-64 19q-28 0 -50 -8v41l105 99h-157v53h238v-47l-101 -96q49 -4 82.5 -33.5t33.5 -79.5q0 -57 -44 -92t-107 -35z" />
<glyph horiz-adv-x="841" d="M639 -5q-62 0 -109 26v59q52 -30 107 -30q40 0 67.5 21t27.5 54q0 30 -26 50t-67 20q-51 0 -94 -15l25 198h200v-53h-153l-10 -86q17 5 46 5q63 0 102.5 -32.5t39.5 -86.5q0 -59 -44.5 -94.5t-111.5 -35.5zM304 322h-61v98h-197v45l196 235h62v-229h59v-51h-59v-98z M243 625l-130 -154h130v154zM274 0h-69l413 700h68z" />
<glyph horiz-adv-x="841" d="M641 -5q-70 0 -109.5 48t-39.5 128q0 89 45 151q46 61 127 61q54 0 85 -22v-56q-35 24 -79 24q-49 0 -81 -35t-34 -92q35 45 99 45q54 0 89 -34.5t35 -88.5q0 -56 -40 -93q-39 -36 -97 -36zM639 46q33 0 54.5 22t21.5 56q0 33 -22 53.5t-55 20.5q-26 0 -49.5 -16 t-34.5 -40q2 -43 25.5 -69.5t59.5 -26.5zM234 322h-63v312l-104 -58v63l106 61h61v-378zM224 0h-69l413 700h68z" />
<glyph horiz-adv-x="841" d="M246 0h-69l413 700h68zM663 -5q-70 0 -109.5 48t-39.5 128q0 89 45 151q46 61 127 61q54 0 85 -22v-56q-35 24 -79 24q-49 0 -81 -35t-34 -92q35 45 99 45q54 0 89 -34.5t35 -88.5q0 -56 -40 -93q-39 -36 -97 -36zM661 46q33 0 54.5 22t21.5 56q0 33 -22 53.5t-55 20.5 q-26 0 -49.5 -16t-34.5 -40q2 -43 25.5 -69.5t59.5 -26.5zM151 317q-62 0 -109 26v59q52 -30 107 -30q40 0 67.5 21t27.5 54q0 30 -26 50t-67 20q-51 0 -94 -15l25 198h200v-53h-153l-10 -86q17 5 46 5q63 0 102.5 -32.5t39.5 -86.5q0 -59 -44.5 -94.5t-111.5 -35.5z" />
<glyph horiz-adv-x="861" d="M244 0h-69l413 700h68zM154 317q-62 0 -109 26v59q53 -30 107 -30q40 0 67.5 21t27.5 54q0 30 -25.5 50t-67.5 20q-50 0 -94 -15l25 198h200v-53h-153l-10 -86q17 5 46 5q63 0 102.5 -32.5t39.5 -86.5q0 -59 -44.5 -94.5t-111.5 -35.5zM668 -5q-66 0 -109 30.5t-43 80.5 q0 32 20.5 57.5t54.5 38.5q-25 10 -40 31.5t-15 47.5q0 45 37 73.5t95 28.5q57 0 94 -28.5t37 -73.5q0 -26 -15 -47.5t-40 -31.5q34 -13 54.5 -38.5t20.5 -57.5q0 -50 -43 -80.5t-108 -30.5zM668 46q38 0 63 18.5t25 46.5q0 30 -24.5 48t-63.5 18t-64 -18t-25 -48 q0 -28 25 -46.5t64 -18.5zM668 220q32 0 52 15.5t20 40.5t-20.5 41t-51.5 16q-32 0 -53 -16t-21 -41t20.5 -40.5t53.5 -15.5z" />
<glyph horiz-adv-x="861" d="M244 0h-69l413 700h68zM668 -5q-66 0 -109 30.5t-43 80.5q0 32 20.5 57.5t54.5 38.5q-25 10 -40 31.5t-15 47.5q0 45 37 73.5t95 28.5q57 0 94 -28.5t37 -73.5q0 -26 -15 -47.5t-40 -31.5q34 -13 54.5 -38.5t20.5 -57.5q0 -50 -43 -80.5t-108 -30.5zM668 46q38 0 63 18.5 t25 46.5q0 30 -24.5 48t-63.5 18t-64 -18t-25 -48q0 -28 25 -46.5t64 -18.5zM668 220q32 0 52 15.5t20 40.5t-20.5 41t-51.5 16q-32 0 -53 -16t-21 -41t20.5 -40.5t53.5 -15.5zM155 317q-70 0 -116 29v58q56 -32 111 -32q39 0 65.5 20.5t26.5 53.5q0 31 -23 50t-64 19 q-28 0 -50 -8v41l105 99h-157v53h238v-47l-101 -96q49 -4 82.5 -33.5t33.5 -79.5q0 -57 -44 -92t-107 -35z" />
<glyph horiz-adv-x="861" d="M644 -5q-66 0 -109 30.5t-43 80.5q0 32 20.5 57.5t54.5 38.5q-25 10 -40 31.5t-15 47.5q0 45 37 73.5t95 28.5q57 0 94 -28.5t37 -73.5q0 -26 -15 -47.5t-40 -31.5q34 -13 54.5 -38.5t20.5 -57.5q0 -50 -43 -80.5t-108 -30.5zM644 46q38 0 63 18.5t25 46.5q0 30 -24.5 48 t-63.5 18t-64 -18t-25 -48q0 -28 25 -46.5t64 -18.5zM644 220q32 0 52 15.5t20 40.5t-20.5 41t-51.5 16q-32 0 -53 -16t-21 -41t20.5 -40.5t53.5 -15.5zM229 322h-63v312l-104 -58v63l106 61h61v-378zM219 0h-69l413 700h68z" />
<glyph horiz-adv-x="841" d="M229 0h-69l413 700h68zM238 322h-63v312l-104 -58v63l106 61h61v-378zM712 0h-61v98h-197v45l196 235h62v-229h59v-51h-59v-98zM651 303l-130 -154h130v154z" />
<glyph horiz-adv-x="841" d="M211 0h-69l413 700h68zM220 322h-63v312l-104 -58v63l106 61h61v-378zM786 0h-268v46l121 110q40 36 55.5 59.5t15.5 49.5q0 27 -20 43.5t-53 16.5q-57 0 -109 -43v63q50 38 114 38q55 0 93 -31q39 -32 39 -80q0 -38 -19.5 -70.5t-64.5 -73.5l-78 -75h174v-53z" />
<glyph horiz-adv-x="841" d="M161 317q-70 0 -116 29v58q56 -32 111 -32q39 0 65.5 20.5t26.5 53.5q0 31 -23 50t-64 19q-28 0 -50 -8v41l105 99h-157v53h238v-47l-101 -96q49 -4 82.5 -33.5t33.5 -79.5q0 -57 -44 -92t-107 -35zM733 0h-61v98h-197v45l196 235h62v-229h59v-51h-59v-98zM672 303 l-130 -154h130v154zM249 0h-69l413 700h68z" />
<glyph horiz-adv-x="538" d="M435 0h-74v700h74v-700zM177 0h-74v700h74v-700zM6 794q-13 14 -13 34t13 33q14 14 34 14t33 -14q14 -13 14 -33t-14 -34q-13 -13 -33 -13t-34 13zM464 794q-13 14 -13 34t13 33q14 14 34 14t33 -14q14 -13 14 -33t-14 -34q-13 -13 -33 -13t-34 13zM236 794 q-14 14 -14 34t14 33q14 14 33 14t33 -14q14 -13 14 -33t-14 -34q-14 -13 -33 -13t-33 13z" />
<glyph horiz-adv-x="1319" d="M1058 -12q-107 0 -192.5 52t-129.5 142q-44 -90 -127 -142q-82 -52 -187 -52q-152 0 -252 103t-100 259q0 155 100 258q101 104 252 104q104 0 187 -53q83 -52 127 -141q44 88 129 141q86 53 193 53q114 0 196 -52v-76q-92 59 -195 59q-121 0 -203 -84q-82 -82 -82 -209 q0 -128 82 -210q83 -83 205 -83t208 70v-77q-86 -62 -211 -62zM225 141q79 -84 197 -84t197 84q80 85 80 209t-80 209q-79 84 -197 84t-197 -84q-80 -85 -80 -209t80 -209z" />
<glyph horiz-adv-x="1474" d="M1051 712q150 0 251 -104t101 -258q0 -155 -101 -259q-100 -103 -251 -103q-105 0 -188 52t-127 142q-44 -90 -127 -142q-82 -52 -187 -52q-152 0 -252 103t-100 259q0 155 100 258q101 104 252 104q104 0 187 -53q83 -52 127 -141q44 89 127 141q85 53 188 53zM854 141 q79 -84 197 -84q117 0 197 84q80 85 80 209t-80 209q-80 84 -197 84t-197 -84q-80 -85 -80 -209t80 -209zM225 141q79 -84 197 -84t197 84q80 85 80 209t-80 209q-79 84 -197 84t-197 -84q-80 -85 -80 -209t80 -209z" />
<glyph horiz-adv-x="972" d="M311 495q73 0 131 -32t92 -88q34 57 92 88.5t130 31.5q84 0 146 -35v-67q-65 37 -136 37q-82 0 -138 -53t-56 -136q0 -82 56 -135t138 -53q80 0 145 42v-66q-68 -41 -156 -41q-71 0 -129 31.5t-92 87.5q-34 -56 -92 -87.5t-131 -31.5q-114 0 -188 74q-73 73 -73 179 t73 179q73 75 188 75zM311 53q80 0 133 53q54 54 54 138q0 80 -54 132q-54 54 -133 54q-81 0 -134 -54q-53 -55 -53 -135q0 -79 53 -134q53 -54 134 -54z" />
<glyph horiz-adv-x="1069" d="M759 495q115 0 188 -75q73 -73 73 -179t-73 -179q-74 -74 -188 -74q-73 0 -131.5 32t-92.5 88q-34 -56 -92.5 -88t-131.5 -32q-114 0 -188 74q-73 73 -73 179t73 179q73 75 188 75q73 0 131.5 -32t92.5 -89q33 57 92 89t132 32zM311 53q80 0 133 53q54 52 54 135t-54 135 q-52 54 -133 54t-134 -54q-53 -55 -53 -135q0 -79 53 -134q53 -54 134 -54zM759 53q81 0 134 54q53 55 53 134q0 80 -53 135q-53 54 -134 54t-134 -54q-53 -55 -53 -135q0 -82 53 -135q55 -53 134 -53z" />
<glyph horiz-adv-x="542" d="M483 0h-429v63h27q42 0 42 60v26h-69v51h69v62h-69v51h69q0 85 54.5 133.5t152.5 48.5q86 0 146 -36v-68q-69 39 -142 39q-142 0 -142 -117h228v-51h-228v-62h228v-51h-228v-33q0 -37 -22 -53h313v-63z" />
<glyph horiz-adv-x="532" d="M173 0h-72v67h-77v51h77v365h387v-63h-315v-154h250v-63h-250v-85h131v-51h-131v-67z" />
<glyph horiz-adv-x="621" d="M163 0h-72v293h-75v63h75v127h244q74 0 120.5 -34t57.5 -93h70v-63h-69q-10 -61 -58.5 -96t-123.5 -35h-169v-162zM322 420h-159v-195h159q57 0 89 25.5t32 72.5q0 46 -32 71.5t-89 25.5z" />
<glyph horiz-adv-x="617" d="M295 495q93 0 154 -55l132 56v-61l-94 -43q28 -44 28 -98q0 -61 -34 -110q67 -64 67 -158t-71 -162t-180 -68q-103 0 -176 62q-72 61 -75 160h74q1 -66 52 -112q50 -45 125 -45q76 0 127 48t51 117q0 65 -42 110q-59 -42 -138 -42q-99 0 -160 58t-61 142t61 142 q62 59 160 59zM295 159q63 0 106 38q43 39 43 97t-43 97q-42 39 -106 39q-65 0 -108 -39t-43 -97t43 -97q44 -38 108 -38z" />
<glyph d="M480 406v77h72v-483h-72v77q-68 -89 -187 -89q-107 0 -175 74t-68 179q0 106 68 180t175 74q119 0 187 -89zM480 162v159q-21 48 -68 78.5t-102 30.5q-81 0 -133 -55q-53 -55 -53 -134t53 -134q53 -54 133 -54q54 0 101 30.5t69 78.5z" />
<glyph horiz-adv-x="720" d="M567 -12q-67 0 -101.5 39.5t-34.5 109.5v283h-236v-420h-72v420h-96v63h96v81q0 67 36 105.5t102 38.5q61 0 102 -19v-66q-48 20 -84 20q-84 0 -84 -93v-67h236v149h72v-149h169v-63h-169v-261q0 -58 19 -80q20 -23 65 -23q44 0 79 20v-66q-31 -22 -99 -22z" />
<glyph d="M184 0h-74v157h-99v63h99v93h-99v63h99v324h279q103 0 162.5 -52t59.5 -140q0 -89 -59 -142t-163 -53h-205v-93h291v-63h-291v-157zM184 633v-257h199q75 0 115 33t40 95q0 61 -40.5 95t-114.5 34h-199z" />
<glyph d="M517 0h-429v63h27q42 0 42 60v26h-69v51h69v62h-69v51h69q0 85 54.5 133.5t152.5 48.5q86 0 146 -36v-68q-69 39 -142 39q-142 0 -142 -117h228v-51h-228v-62h228v-51h-228v-33q0 -37 -22 -53h313v-63z" />
<glyph horiz-adv-x="1216" d="M173 0h-74v700h74v-291h416v291h303q93 0 147 -45.5t54 -124.5q0 -54 -24.5 -93t-67.5 -55q70 -11 111 -61t41 -126q0 -89 -62 -142t-168 -53h-334v342h-416v-342zM663 339v-272h247q78 0 121 36t43 101q0 64 -43 99.5t-121 35.5h-247zM663 633v-229h217q67 0 103.5 29 t36.5 84q0 56 -36.5 86t-103.5 30h-217z" />
<glyph horiz-adv-x="1268" d="M173 0h-74v700h74v-291h416v291h229q170 0 274 -97q105 -98 105 -253q0 -156 -105 -253q-104 -97 -274 -97h-229v342h-416v-342zM663 633v-566h146q144 0 229 77q84 76 84 206t-84 206q-85 77 -229 77h-146z" />
<glyph horiz-adv-x="1130" d="M173 0h-74v700h74v-291h416v291h480v-67h-406v-224h333v-67h-333v-275h421v-67h-495v342h-416v-342z" />
<glyph horiz-adv-x="1112" d="M173 0h-74v700h74v-291h416v291h477v-67h-403v-233h327v-67h-327v-333h-74v342h-416v-342z" />
<glyph horiz-adv-x="1151" d="M589 700h74v-304l324 304h98l-344 -320l397 -380h-104l-371 356v-356h-74v342h-416v-342h-74v700h74v-291h416v291z" />
<glyph horiz-adv-x="1338" d="M173 0h-74v700h74v-291h416v291h73l253 -339l253 339h72v-700h-73v588l-229 -306h-45l-230 304v-586h-74v342h-416v-342z" />
<glyph horiz-adv-x="1267" d="M173 0h-74v700h74v-291h416v291h66l442 -572v572h72v-700h-63l-443 574v-574h-74v342h-416v-342z" />
<glyph horiz-adv-x="1249" d="M173 0h-74v700h74v-291h416v291h74v-403q0 -113 56.5 -176.5t155.5 -63.5t155.5 63.5t56.5 176.5v403h74v-402q0 -147 -80 -229q-79 -81 -206 -81t-207 81q-79 80 -79 229v44h-416v-342z" />
<glyph horiz-adv-x="1155" d="M663 0h-74v342h-416v-342h-74v700h74v-291h416v291h294q104 0 164 -53t60 -141q0 -90 -60 -143.5t-164 -53.5h-220v-309zM663 633v-257h215q74 0 115 33.5t41 94.5q0 62 -40.5 95.5t-115.5 33.5h-215z" />
<glyph horiz-adv-x="1226" d="M663 0h-74v342h-416v-342h-74v700h74v-291h416v291h313q102 0 161.5 -51.5t59.5 -138.5q0 -75 -43.5 -125t-121.5 -63l226 -322h-87l-220 315h-214v-315zM663 633v-251h235q72 0 111.5 32.5t39.5 92.5t-40 93t-111 33h-235z" />
<glyph horiz-adv-x="1284" d="M171 0h-72v700h64l442 -572v572h229q170 0 274 -97q105 -98 105 -253q0 -156 -105 -253q-104 -97 -274 -97h-220l-443 574v-574zM679 633v-566h146q144 0 229 77q84 76 84 206t-84 206q-85 77 -229 77h-146z" />
<glyph horiz-adv-x="1232" d="M171 0h-72v700h64l442 -572v572h303q93 0 147 -45.5t54 -124.5q0 -54 -24.5 -93t-67.5 -55q70 -11 111 -61t41 -126q0 -89 -62 -142t-168 -53h-325l-443 574v-574zM679 339v-272h247q78 0 121 36t43 101q0 64 -43 99.5t-121 35.5h-247zM679 633v-229h217q67 0 103.5 29 t36.5 84q0 56 -36.5 86t-103.5 30h-217z" />
<glyph horiz-adv-x="1243" d="M172 0h-73v700h73l253 -339l253 339h293q104 0 164 -53t60 -141q0 -90 -60 -143.5t-164 -53.5h-220v-309h-74v588l-229 -306h-45l-231 306v-588zM751 633v-257h215q74 0 115 33.5t41 94.5q0 62 -40.5 95.5t-115.5 33.5h-215z" />
<glyph horiz-adv-x="1314" d="M172 0h-73v700h73l253 -339l253 339h312q102 0 161.5 -51.5t59.5 -138.5q0 -75 -43.5 -125t-121.5 -63l226 -322h-87l-220 315h-214v-315h-74v588l-229 -306h-45l-231 306v-588zM751 633v-251h235q72 0 111.5 32.5t39.5 92.5t-40 93t-111 33h-235z" />
<glyph horiz-adv-x="1339" d="M172 0h-73v700h73l253 -339l253 339h73v-291h416v291h74v-700h-74v342h-416v-342h-74v588l-229 -306h-45l-231 306v-588z" />
<glyph horiz-adv-x="1337" d="M963 -12q-127 0 -207 81q-79 80 -79 229v290l-229 -306h-45l-231 306v-588h-73v700h73l253 -339l253 339h73v-403q0 -113 56.5 -176.5t155.5 -63.5t155.5 63.5t56.5 176.5v403h74v-402q0 -147 -80 -229q-79 -81 -206 -81z" />
<glyph horiz-adv-x="1171" d="M171 0h-72v700h64l442 -572v572h294q104 0 164 -53t60 -141q0 -90 -60 -143.5t-164 -53.5h-220v-309h-65l-443 574v-574zM679 633v-257h215q74 0 115 33.5t41 94.5q0 62 -40.5 95.5t-115.5 33.5h-215z" />
<glyph horiz-adv-x="1242" d="M171 0h-72v700h64l442 -572v572h313q102 0 161.5 -51.5t59.5 -138.5q0 -75 -43.5 -125t-121.5 -63l226 -322h-87l-220 315h-214v-315h-65l-443 574v-574zM679 633v-251h235q72 0 111.5 32.5t39.5 92.5t-40 93t-111 33h-235z" />
<glyph horiz-adv-x="1281" d="M171 0h-72v700h64l442 -572v572h64l442 -572v572h72v-700h-63l-443 574v-574h-63l-443 574v-574z" />
<glyph horiz-adv-x="1152" d="M374 -12q-128 0 -207 81q-79 80 -79 229v402h74v-403q0 -113 56.5 -176.5t155.5 -63.5t155.5 63.5t56.5 176.5v403h294q104 0 164 -53t60 -141q0 -90 -60 -143.5t-164 -53.5h-220v-11q0 -147 -80 -229q-80 -81 -206 -81zM660 633v-257h215q74 0 115 33.5t41 94.5 q0 62 -40.5 95.5t-115.5 33.5h-215z" />
<glyph horiz-adv-x="1223" d="M374 -12q-128 0 -207 81q-79 80 -79 229v402h74v-403q0 -113 56.5 -176.5t155.5 -63.5t155.5 63.5t56.5 176.5v403h313q102 0 161.5 -51.5t59.5 -138.5q0 -75 -43.5 -125t-121.5 -63l226 -322h-87l-220 315h-214v-17q0 -147 -80 -229q-80 -81 -206 -81zM660 633v-251h235 q72 0 111.5 32.5t39.5 92.5t-40 93t-111 33h-235z" />
<glyph horiz-adv-x="1109" d="M374 -12q-128 0 -207 81q-79 80 -79 229v402h74v-403q0 -113 56.5 -176.5t155.5 -63.5t155.5 63.5t56.5 176.5v403h477v-67h-403v-233h327v-67h-327v-35q0 -147 -80 -229q-80 -81 -206 -81z" />
<glyph horiz-adv-x="1248" d="M374 -12q-128 0 -207 81q-79 80 -79 229v402h74v-403q0 -113 56.5 -176.5t155.5 -63.5t155.5 63.5t56.5 176.5v403h74v-291h416v291h74v-700h-74v342h-416v-44q0 -147 -80 -229q-80 -81 -206 -81z" />
<glyph horiz-adv-x="1148" d="M374 -12q-128 0 -207 81q-79 80 -79 229v402h74v-403q0 -113 56.5 -176.5t155.5 -63.5t155.5 63.5t56.5 176.5v403h74v-304l324 304h98l-344 -320l397 -380h-104l-371 356v-58q0 -147 -80 -229q-80 -81 -206 -81z" />
<glyph horiz-adv-x="1335" d="M374 -12q-128 0 -207 81q-79 80 -79 229v402h74v-403q0 -113 56.5 -176.5t155.5 -63.5t155.5 63.5t56.5 176.5v403h73l253 -339l253 339h72v-700h-73v588l-229 -306h-45l-230 304v-288q0 -147 -80 -229q-80 -81 -206 -81z" />
<glyph horiz-adv-x="1304" d="M172 0h-73v700h73l253 -339l253 339h302q93 0 147 -45.5t54 -124.5q0 -54 -24.5 -93t-67.5 -55q70 -11 111 -61t41 -126q0 -89 -62 -142t-168 -53h-334v588l-229 -306h-45l-231 306v-588zM751 339v-272h247q78 0 121 36t43 101q0 64 -43 99.5t-121 35.5h-247zM751 633 v-229h217q67 0 103.5 29t36.5 84q0 56 -36.5 86t-103.5 30h-217z" />
<glyph horiz-adv-x="1264" d="M374 -12q-128 0 -207 81q-79 80 -79 229v402h74v-403q0 -113 56.5 -176.5t155.5 -63.5t155.5 63.5t56.5 176.5v403h66l442 -572v572h72v-700h-63l-443 574v-276q0 -147 -80 -229q-80 -81 -206 -81z" />
<glyph horiz-adv-x="1218" d="M172 0h-73v700h73l253 -339l253 339h479v-67h-406v-224h333v-67h-333v-275h421v-67h-495v588l-229 -306h-45l-231 306v-588z" />
<glyph horiz-adv-x="730" d="M630 348h-530v67h530v-67z" />
<glyph horiz-adv-x="906" d="M806 348h-706v67h706v-67z" />
<glyph horiz-adv-x="481" d="M381 348h-281v67h281v-67z" />
<glyph horiz-adv-x="388" d="M348 -106h-253v912h253v-61h-183v-790h183v-61z" />
<glyph horiz-adv-x="388" d="M40 806h253v-912h-253v61h183v790h-183v61z" />
<glyph horiz-adv-x="367" d="M327 -106h-57q-65 0 -101.5 36.5t-36.5 102.5v152q0 54 -11 88q-13 42 -66 48v58q53 6 66 46q11 34 11 87v155q0 66 36.5 102.5t101.5 36.5h57v-61h-41q-84 0 -84 -86v-165q0 -61 -15.5 -95.5t-53.5 -48.5q38 -14 53.5 -48.5t15.5 -95.5v-165q0 -86 84 -86h41v-61z" />
<glyph horiz-adv-x="367" d="M97 -106h-57v61h41q84 0 84 86v165q0 61 15.5 95.5t53.5 48.5q-38 14 -53.5 48.5t-15.5 95.5v165q0 86 -84 86h-41v61h57q65 0 101.5 -36.5t36.5 -102.5v-155q0 -53 11 -87q13 -40 66 -46v-58q-53 -6 -66 -48q-11 -34 -11 -88v-152q0 -66 -36.5 -102.5t-101.5 -36.5z" />
<glyph horiz-adv-x="549" d="M276 551h75l151 -183v-37l-151 -183h-75l164 202zM45 551h77l151 -183v-37l-151 -183h-77l164 202z" />
<glyph horiz-adv-x="550" d="M273 148h-75l-151 183v37l151 183h75l-164 -202zM504 148h-77l-151 183v37l151 183h77l-164 -202z" />
<glyph horiz-adv-x="320" d="M122 148h-76l163 201l-163 202h76l151 -183v-37z" />
<glyph horiz-adv-x="319" d="M273 148h-75l-151 183v37l151 183h75l-164 -202z" />
<glyph horiz-adv-x="362" d="M320 -112h-77q-149 190 -149 456t149 456h77q-156 -202 -156 -456t156 -456z" />
<glyph horiz-adv-x="362" d="M119 -112h-77q156 202 156 456t-156 456h77q149 -190 149 -456t-149 -456z" />
<glyph horiz-adv-x="284" d="M189 0h-93l13 485h67zM105 617q-15 15 -15 37t15 37t37 15t37 -15t15 -37t-15 -37t-37 -15t-37 15z" />
<glyph horiz-adv-x="476" d="M211 478h70v-145q-70 -13 -126 -56q-54 -42 -54 -100q0 -57 42.5 -92t109.5 -35q87 0 172 59v-68q-76 -56 -183 -56q-91 0 -153 52q-62 53 -62 137q0 72 53 122q52 49 131 75v107zM281 684q15 -15 15 -37t-15 -37t-37 -15t-37 15t-15 37t15 37t37 15t37 -15z" />
<glyph horiz-adv-x="939" d="M904 700v-67h-244v-335q0 -147 -80 -229q-80 -81 -206 -81q-128 0 -207 81q-79 80 -79 229v402h74v-403q0 -113 56.5 -176.5t155.5 -63.5t155.5 63.5t56.5 176.5v336h-241v67h559z" />
<glyph horiz-adv-x="940" d="M595 700v-67h-241v-336q0 -113 56.5 -176.5t155.5 -63.5t155.5 63.5t56.5 176.5v403h74v-402q0 -149 -79 -229q-79 -81 -207 -81t-207 81q-79 80 -79 229v335h-244v67h559z" />
<glyph horiz-adv-x="958" d="M171 0h-72v700h64l442 -572v505h-241v67h559v-67h-244v-633h-65l-443 574v-574z" />
<glyph horiz-adv-x="939" d="M351 0h-74v633h-241v67h559v-67h-244v-224h416v291h74v-700h-74v342h-416v-342z" />
<glyph horiz-adv-x="939" d="M904 633h-241v-633h-74v342h-416v-342h-74v700h74v-291h416v224h-244v67h559v-67z" />
<glyph horiz-adv-x="1059" d="M107 0h-77l312 704h69l270 -608l263 604h81l-307 -700h-72l-87 193h-367zM376 611l-159 -353h318z" />
<glyph horiz-adv-x="1252" d="M991 -12q-107 0 -192.5 52.5t-130.5 143.5q-45 -87 -134.5 -135.5t-205.5 -48.5h-229v700h229q116 0 205.5 -49t134.5 -136q45 91 130.5 144t192.5 53q114 0 196 -52v-76q-92 59 -195 59q-120 0 -203 -84q-82 -82 -82 -209q0 -128 82 -210q83 -83 205 -83t208 70v-77 q-86 -62 -211 -62zM173 633v-566h146q144 0 229 77q84 76 84 206t-84 206q-85 77 -229 77h-146z" />
<glyph horiz-adv-x="1407" d="M984 712q150 0 251 -104t101 -258q0 -155 -101 -259q-100 -103 -251 -103q-104 0 -188.5 52.5t-127.5 143.5q-45 -87 -134.5 -135.5t-205.5 -48.5h-229v700h229q116 0 205.5 -49t134.5 -136q43 91 127.5 144t188.5 53zM787 141q79 -84 197 -84t197 84q80 85 80 209 t-80 209q-79 84 -197 84t-197 -84q-80 -85 -80 -209t80 -209zM173 633v-566h146q144 0 229 77q84 76 84 206t-84 206q-85 77 -229 77h-146z" />
<glyph horiz-adv-x="1407" d="M984 712q150 0 251 -104t101 -258q0 -121 -65 -215q-64 -93 -172 -129q65 -64 130 -64q48 0 83 23v-72q-42 -20 -92 -20q-39 0 -77 19q-37 18 -63 39q-18 14 -64 58q-7 -1 -32 -1q-104 0 -188.5 52.5t-127.5 143.5q-45 -87 -134.5 -135.5t-205.5 -48.5h-229v700h229 q116 0 205.5 -49t134.5 -136q43 91 127.5 144t188.5 53zM787 141q79 -84 197 -84t197 84q80 85 80 209t-80 209q-79 84 -197 84t-197 -84q-80 -85 -80 -209t80 -209zM173 633v-566h146q144 0 229 77q84 76 84 206t-84 206q-85 77 -229 77h-146z" />
<glyph horiz-adv-x="1342" d="M989 -12q-105 0 -191 52.5t-130 143.5q-45 -87 -134.5 -135.5t-205.5 -48.5h-229v700h229q116 0 205.5 -49t134.5 -136q45 91 130.5 144t192.5 53q133 0 222 -67v-75q-97 73 -218 73q-123 0 -206 -83q-82 -82 -82 -211q0 -127 81 -210q82 -82 201 -82q126 0 199 73v272 h73v-301q-46 -52 -117.5 -82.5t-154.5 -30.5zM173 633v-566h146q144 0 229 77q84 76 84 206t-84 206q-85 77 -229 77h-146z" />
<glyph horiz-adv-x="958" d="M173 0h-74v700h74v-334h383l-239 334h86l224 -310l224 310h84l-272 -378v-322h-74v299h-416v-299z" />
<glyph horiz-adv-x="1210" d="M564 0h-465v700h74v-633h343l283 637h69l313 -704h-78l-87 193h-367zM833 611l-159 -353h318z" />
<glyph horiz-adv-x="1356" d="M906 0h-229v588l-229 -306h-45l-231 306v-588h-73v700h73l253 -339l253 339h228q170 0 274 -97q105 -98 105 -253q0 -156 -105 -253q-104 -97 -274 -97zM751 633v-566h146q144 0 229 77q84 76 84 206t-84 206q-85 77 -229 77h-146z" />
<glyph horiz-adv-x="1200" d="M751 0h-74v588l-229 -306h-45l-231 306v-588h-73v700h73l253 -339l253 339h476v-67h-403v-233h327v-67h-327v-333z" />
<glyph horiz-adv-x="1353" d="M750 0h-73v588l-229 -306h-45l-231 306v-588h-73v700h73l253 -339l253 339h63l442 -572v572h72v-700h-63l-442 572v-572z" />
<glyph horiz-adv-x="1146" d="M1100 0h-486l-443 574v-574h-72v700h64l442 -572v572h480v-67h-406v-224h333v-67h-333v-275h421v-67z" />
<glyph horiz-adv-x="1128" d="M171 0h-72v700h64l442 -572v572h477v-67h-403v-233h327v-67h-327v-333h-65l-443 574v-574z" />
<glyph horiz-adv-x="1354" d="M171 0h-72v700h64l442 -572v572h73l253 -339l253 339h72v-700h-73v588l-229 -306h-45l-231 306v-588h-64l-443 574v-574z" />
<glyph horiz-adv-x="1474" d="M1051 712q150 0 251 -104t101 -258q0 -121 -65 -215q-64 -93 -172 -129q65 -64 130 -64q48 0 83 23v-72q-42 -20 -92 -20q-39 0 -77 19q-38 18 -63 39q-18 14 -64 58q-7 -1 -32 -1q-105 0 -188 52t-127 142q-44 -90 -127 -142q-82 -52 -187 -52q-152 0 -252 103t-100 259 q0 155 100 258q101 104 252 104q104 0 187 -53q83 -52 127 -141q44 89 127 141q85 53 188 53zM854 141q79 -84 197 -84q117 0 197 84q80 85 80 209t-80 209q-80 84 -197 84t-197 -84q-80 -85 -80 -209t80 -209zM225 141q79 -84 197 -84t197 84q80 85 80 209t-80 209 q-79 84 -197 84t-197 -84q-80 -85 -80 -209t80 -209z" />
<glyph horiz-adv-x="1409" d="M1056 -12q-106 0 -191 52q-86 53 -129 142q-44 -90 -127 -142q-82 -52 -187 -52q-152 0 -252 103t-100 259q0 155 100 258q101 104 252 104q104 0 187 -53q83 -52 127 -141q44 88 129 141q86 53 193 53q133 0 222 -67v-75q-97 73 -218 73q-123 0 -206 -83 q-82 -82 -82 -211q0 -127 81 -210q82 -82 201 -82q126 0 199 73v272h73v-301q-46 -52 -117.5 -82.5t-154.5 -30.5zM225 141q79 -84 197 -84t197 84q80 85 80 209t-80 209q-79 84 -197 84t-197 -84q-80 -85 -80 -209t80 -209z" />
<glyph horiz-adv-x="1164" d="M1115 0h-544v53l429 580h-649v-633h-74v633h-241v67h1063v-52l-425 -581h441v-67z" />
<glyph horiz-adv-x="1057" d="M411 0h-71l-306 700h81l262 -603l269 607h69l313 -704h-78l-87 193h-367zM680 611l-159 -353h318z" />
<glyph horiz-adv-x="957" d="M369 0h-74v321l-272 379h86l224 -310l224 310h84l-241 -334h385v334h74v-700h-74v299h-416v-299z" />
<glyph horiz-adv-x="1087" d="M1054 0h-465v342h-416v-342h-74v700h74v-291h416v291h74v-633h391v-67z" />
<glyph horiz-adv-x="1167" d="M605 700h74v-304l324 304h98l-344 -320l397 -380h-104l-371 356v-356h-65l-443 574v-574h-72v700h64l442 -572v572z" />
<glyph horiz-adv-x="1103" d="M171 0h-72v700h64l442 -572v572h74v-633h391v-67h-456l-443 574v-574z" />
<glyph horiz-adv-x="1175" d="M172 0h-73v700h73l253 -339l253 339h73v-633h391v-67h-465v588l-229 -306h-45l-231 306v-588z" />
<glyph horiz-adv-x="964" d="M107 0h-77l312 704h69l271 -610l175 389h78l-221 -483h-68l-87 193h-367zM376 611l-159 -353h318z" />
<glyph horiz-adv-x="951" d="M107 0h-77l312 704h69l266 -601l165 380h78l-239 -537q-65 -150 -173 -150q-52 0 -77 14v67q31 -16 66 -16q44 0 75.5 35.5t66.5 118.5l-80 178h-367zM376 611l-159 -353h318z" />
<glyph horiz-adv-x="1047" d="M173 0h-74v700h74v-291h416v291h74v-416l230 199h98l-255 -218l291 -265h-103l-261 238v-238h-74v342h-416v-342z" />
<glyph horiz-adv-x="1425" d="M663 0h-74v342h-416v-342h-74v700h74v-291h416v291h74v-289q60 84 174 84q59 0 99.5 -25t55.5 -70q28 43 76.5 69t109.5 26q81 0 126 -50.5t45 -143.5v-301h-72v285q0 142 -120 142q-44 0 -87.5 -30.5t-65.5 -73.5q0 -10 0.5 -23t1 -20t0.5 -11v-269h-72v285 q0 142 -120 142q-42 0 -86 -30q-42 -28 -65 -70v-327z" />
<glyph horiz-adv-x="1125" d="M173 0h-74v700h74v-291h416v291h74v-495q0 -149 137 -149q50 0 96 30q49 32 72 71v326h72v-483h-72v74q-77 -86 -193 -86q-90 0 -138 52.5t-48 148.5v153h-416v-342z" />
<glyph horiz-adv-x="871" d="M196 -12q-98 0 -160 45v77q59 -53 147 -53q161 0 161 169v474h74v-291q77 86 193 86q89 0 136.5 -52.5t47.5 -148.5v-294h-72v278q0 149 -137 149q-50 0 -97 -31q-48 -31 -71 -70v-113q0 -112 -58 -168.5t-164 -56.5z" />
<glyph horiz-adv-x="802" d="M196 -12q-98 0 -160 45v77q59 -53 147 -53q161 0 161 169v474h74v-416l230 199h98l-255 -218l291 -265h-103l-261 238v-25q0 -112 -58 -168.5t-164 -56.5z" />
<glyph horiz-adv-x="1180" d="M196 -12q-98 0 -160 45v77q59 -53 147 -53q161 0 161 169v474h74v-289q60 84 174 84q59 0 99.5 -25t55.5 -70q28 43 76.5 69t109.5 26q81 0 126 -50.5t45 -143.5v-301h-72v285q0 142 -120 142q-44 0 -87.5 -30.5t-65.5 -73.5q0 -10 0.5 -23t1 -20t0.5 -11v-269h-72v285 q0 142 -120 142q-43 0 -86 -30q-42 -28 -65 -70v-114q0 -112 -58 -168.5t-164 -56.5z" />
<glyph horiz-adv-x="734" d="M636 0h-537v700h74v-633h391v416h72v-483zM564 613q-14 15 -14 36t14 36q15 15 36 15t36 -15t15 -36t-15 -36q-15 -14 -36 -14t-36 14z" />
<glyph horiz-adv-x="1229" d="M172 0h-73v700h73l253 -339l253 339h72v-294q68 89 187 89q107 0 175 -74t68 -180q0 -105 -68 -179t-175 -74q-119 0 -187 89v-77h-73v588l-229 -306h-45l-231 306v-588zM750 321v-159q22 -48 69 -78.5t101 -30.5q80 0 133 54q53 55 53 134t-53 134q-52 55 -133 55 q-55 0 -102 -30.5t-68 -78.5z" />
<glyph horiz-adv-x="1203" d="M172 0h-73v700h73l253 -339l253 339h72v-291q77 86 193 86q89 0 136.5 -52.5t47.5 -148.5v-294h-72v278q0 149 -137 149q-50 0 -97 -31q-48 -31 -71 -70v-326h-73v588l-229 -306h-45l-231 306v-588z" />
<glyph horiz-adv-x="1134" d="M172 0h-73v700h73l253 -339l253 339h72v-416l230 199h98l-255 -218l291 -265h-103l-261 238v-238h-73v588l-229 -306h-45l-231 306v-588z" />
<glyph horiz-adv-x="1512" d="M750 0h-73v588l-229 -306h-45l-231 306v-588h-73v700h73l253 -339l253 339h72v-289q60 84 174 84q59 0 99.5 -25t55.5 -70q28 43 76.5 69t109.5 26q81 0 126 -50.5t45 -143.5v-301h-72v285q0 142 -120 142q-44 0 -87.5 -30.5t-65.5 -73.5l2 -54v-269h-72v285 q0 142 -120 142q-43 0 -86 -30q-42 -28 -65 -70v-327z" />
<glyph horiz-adv-x="1212" d="M172 0h-73v700h73l253 -339l253 339h72v-495q0 -149 137 -149q49 0 96 30q49 32 72 71v326h72v-483h-72v74q-77 -86 -193 -86q-89 0 -137 52.5t-48 148.5v399l-229 -306h-45l-231 306v-588z" />
<glyph horiz-adv-x="1130" d="M677 326v-326h-63l-443 574v-574h-72v700h64l442 -572v572h72v-291q77 86 193 86q89 0 136.5 -52.5t47.5 -148.5v-294h-72v278q0 149 -137 149q-50 0 -97 -31q-48 -31 -71 -70z" />
<glyph horiz-adv-x="1061" d="M171 0h-72v700h64l442 -572v572h72v-416l230 199h98l-255 -218l291 -265h-103l-261 238v-238h-63l-443 574v-574z" />
<glyph horiz-adv-x="1439" d="M171 0h-72v700h64l442 -572v572h72v-289q60 84 174 84q59 0 99.5 -25t55.5 -70q28 43 76.5 69t109.5 26q81 0 126 -50.5t45 -143.5v-301h-72v285q0 142 -120 142q-44 0 -87.5 -30.5t-65.5 -73.5l2 -54v-269h-72v285q0 142 -120 142q-42 0 -86 -30q-42 -28 -65 -70v-327 h-63l-443 574v-574z" />
<glyph horiz-adv-x="1146" d="M351 0h-74v633h-241v67h631v-294q68 89 187 89q107 0 175 -74t68 -180q0 -105 -68 -179t-175 -74q-119 0 -187 89v-77h-72v633h-244v-633zM667 321v-159q22 -48 69 -78.5t101 -30.5q81 0 133 54q53 55 53 134t-53 134q-52 55 -133 55q-55 0 -102 -30.5t-68 -78.5z" />
<glyph horiz-adv-x="1051" d="M36 700h631v-416l230 199h98l-255 -218l291 -265h-103l-261 238v-238h-72v633h-244v-633h-74v633h-241v67z" />
<glyph horiz-adv-x="1113" d="M351 0h-74v633h-241v67h559v-67h-244v-222q60 84 174 84q59 0 99.5 -25t55.5 -70q28 43 76.5 69t109.5 26q81 0 126 -50.5t45 -143.5v-301h-72v285q0 142 -120 142q-44 0 -87.5 -30.5t-65.5 -73.5q0 -10 0.5 -23t1 -20t0.5 -11v-269h-72v285q0 142 -120 142 q-42 0 -86 -30q-42 -28 -65 -70v-327z" />
<glyph horiz-adv-x="1113" d="M374 -12q-128 0 -207 81q-79 80 -79 229v402h74v-403q0 -113 56.5 -176.5t155.5 -63.5t155.5 63.5t56.5 176.5v403h74v-291q77 86 193 86q89 0 136.5 -52.5t47.5 -148.5v-294h-72v278q0 149 -137 149q-50 0 -97 -31q-48 -31 -71 -70v-28q0 -147 -80 -229 q-80 -81 -206 -81z" />
<glyph horiz-adv-x="1044" d="M586 700h74v-416l230 199h98l-255 -218l291 -265h-103l-265 240q-15 -120 -92 -187q-77 -65 -190 -65q-128 0 -207 81q-79 80 -79 229v402h74v-403q0 -113 56.5 -176.5t155.5 -63.5t155.5 63.5t56.5 176.5v403z" />
<glyph horiz-adv-x="1422" d="M374 -12q-128 0 -207 81q-79 80 -79 229v402h74v-403q0 -113 56.5 -176.5t155.5 -63.5t155.5 63.5t56.5 176.5v403h74v-289q60 84 174 84q59 0 99.5 -25t55.5 -70q28 43 76.5 69t109.5 26q81 0 126 -50.5t45 -143.5v-301h-72v285q0 142 -120 142q-44 0 -87.5 -30.5 t-65.5 -73.5q0 -10 0.5 -23t1 -20t0.5 -11v-269h-72v285q0 142 -120 142q-43 0 -86 -30q-42 -28 -65 -70v-29q0 -147 -80 -229q-80 -81 -206 -81z" />
<glyph horiz-adv-x="650" d="M552 0h-72v77q-68 -89 -187 -89q-107 0 -175 74t-68 179q0 106 68 180t175 74q119 0 187 -89v77h72v-483zM480 162v159q-21 48 -68 78.5t-102 30.5q-81 0 -133 -55q-53 -55 -53 -134t53 -134q53 -54 133 -54q54 0 101 30.5t69 78.5zM480 613q-14 15 -14 36t14 36 q15 15 36 15t36 -15t15 -36t-15 -36q-15 -14 -36 -14t-36 14z" />
<glyph horiz-adv-x="1314" d="M552 0h-72v77q-68 -89 -187 -89q-107 0 -175 74t-68 179q0 106 68 180t175 74q119 0 187 -89v77h72v-72q60 84 174 84q59 0 99.5 -25t55.5 -70q28 43 76.5 69t109.5 26q81 0 126 -50.5t45 -143.5v-301h-72v285q0 142 -120 142q-44 0 -87.5 -30.5t-65.5 -73.5 q0 -10 0.5 -23t1 -20t0.5 -11v-269h-72v285q0 142 -120 142q-43 0 -86 -30q-42 -28 -65 -70v-327zM480 162v159q-21 48 -68 78.5t-102 30.5q-81 0 -133 -55q-53 -55 -53 -134t53 -134q53 -54 133 -54q54 0 101 30.5t69 78.5z" />
<glyph horiz-adv-x="1005" d="M552 326v-326h-72v77q-68 -89 -187 -89q-107 0 -175 74t-68 179q0 106 68 180t175 74q119 0 187 -89v77h72v-74q77 86 193 86q89 0 136.5 -52.5t47.5 -148.5v-294h-72v278q0 149 -137 149q-50 0 -97 -31q-48 -31 -71 -70zM480 162v159q-21 48 -68 78.5t-102 30.5 q-81 0 -133 -55q-53 -55 -53 -134t53 -134q53 -54 133 -54q54 0 101 30.5t69 78.5z" />
<glyph horiz-adv-x="987" d="M770 -12q-69 0 -127 31.5t-92 85.5q-33 -55 -86.5 -86t-120.5 -31q-119 0 -187 89v-77h-72v700h72v-294q68 89 187 89q67 0 120.5 -31.5t86.5 -86.5q34 55 91.5 86.5t128.5 31.5q84 0 146 -35v-67q-65 37 -136 37q-83 0 -139 -54q-55 -52 -55 -135q0 -82 56 -135t138 -53 q81 0 145 42v-66q-68 -41 -156 -41zM157 321v-159q22 -48 69 -78.5t101 -30.5q79 0 132 53q54 52 54 135q0 79 -53 134q-52 55 -133 55q-55 0 -102 -30.5t-68 -78.5z" />
<glyph horiz-adv-x="1100" d="M943 406v294h72v-700h-72v77q-68 -89 -187 -89q-136 0 -206 115q-33 -54 -86.5 -84.5t-119.5 -30.5q-119 0 -187 89v-77h-72v700h72v-294q68 89 187 89q66 0 119.5 -31t86.5 -85q69 116 206 116q119 0 187 -89zM943 162v159q-21 48 -68 78.5t-102 30.5q-81 0 -133 -55 q-53 -55 -53 -134t53 -134q52 -54 133 -54q54 0 101 30.5t69 78.5zM157 321v-159q22 -48 69 -78.5t101 -30.5q81 0 133 54q53 55 53 134q0 83 -54 135q-53 54 -132 54q-55 0 -102 -30.5t-68 -78.5z" />
<glyph horiz-adv-x="1099" d="M943 31v51q-65 -86 -187 -86q-65 0 -118.5 29t-86.5 81q-31 -55 -85.5 -86.5t-121.5 -31.5q-119 0 -187 89v-77h-72v700h72v-294q68 89 187 89q66 0 119 -30.5t86 -84.5q70 115 207 115q124 0 187 -86v74h72v-452q0 -114 -75 -174q-73 -61 -187 -61q-110 0 -187 44v70 q82 -49 180 -49q90 0 143.5 43t53.5 127zM157 321v-159q22 -48 69 -78.5t101 -30.5q81 0 133 54q53 55 53 134t-53 134q-52 55 -133 55q-55 0 -102 -30.5t-68 -78.5zM943 167v157q-20 47 -67 76.5t-103 29.5q-80 0 -133 -53t-53 -136q0 -75 53 -128q53 -52 133 -52 q56 0 103 29.5t67 76.5z" />
<glyph horiz-adv-x="1084" d="M774 495q114 0 188 -75q73 -73 73 -179t-73 -179q-74 -74 -188 -74q-73 0 -131 31t-92 86q-33 -55 -86.5 -86t-120.5 -31q-119 0 -187 89v-77h-72v700h72v-294q68 89 187 89q67 0 121.5 -31.5t85.5 -86.5q34 55 92.5 86.5t130.5 31.5zM961 241q0 80 -53 135 q-52 54 -134 54q-80 0 -134 -54q-53 -55 -53 -135q0 -79 53 -134q52 -54 134 -54t134 54q53 55 53 134zM157 321v-159q22 -48 69 -78.5t101 -30.5q79 0 132 53q54 54 54 135q0 79 -53 134q-52 55 -133 55q-55 0 -102 -30.5t-68 -78.5z" />
<glyph horiz-adv-x="1100" d="M943 406v77h72v-683h-72v277q-68 -89 -187 -89q-136 0 -206 115q-33 -54 -86.5 -84.5t-119.5 -30.5q-119 0 -187 89v-77h-72v700h72v-294q68 89 187 89q66 0 119.5 -31t86.5 -85q69 116 206 116q119 0 187 -89zM943 162v159q-21 48 -68 78.5t-102 30.5q-81 0 -133 -55 q-53 -55 -53 -134t53 -134q52 -54 133 -54q54 0 101 30.5t69 78.5zM157 321v-159q22 -48 69 -78.5t101 -30.5q81 0 133 54q53 55 53 134q0 83 -54 135q-53 54 -132 54q-55 0 -102 -30.5t-68 -78.5z" />
<glyph horiz-adv-x="1314" d="M480 406v294h72v-289q60 84 174 84q59 0 99.5 -25t55.5 -70q28 43 76.5 69t109.5 26q81 0 126 -50.5t45 -143.5v-301h-72v285q0 142 -120 142q-44 0 -87.5 -30.5t-65.5 -73.5q0 -10 0.5 -23t1 -20t0.5 -11v-269h-72v285q0 142 -120 142q-43 0 -86 -30q-42 -28 -65 -70 v-327h-72v77q-68 -89 -187 -89q-107 0 -175 74t-68 179q0 106 68 180t175 74q119 0 187 -89zM480 162v159q-21 48 -68 78.5t-102 30.5q-81 0 -133 -55q-53 -55 -53 -134t53 -134q53 -54 133 -54q54 0 101 30.5t69 78.5z" />
<glyph horiz-adv-x="936" d="M480 700h72v-416l230 199h98l-255 -218l291 -265h-103l-261 238v-238h-72v77q-68 -89 -187 -89q-107 0 -175 74t-68 179q0 106 68 180t175 74q119 0 187 -89v294zM480 162v159q-21 48 -68 78.5t-102 30.5q-81 0 -133 -55q-53 -55 -53 -134t53 -134q53 -54 133 -54 q54 0 101 30.5t69 78.5z" />
<glyph horiz-adv-x="1031" d="M480 409v291h72v-294q68 89 187 89q107 0 175 -74t68 -180q0 -105 -68 -179t-175 -74q-119 0 -187 89v-46q0 -114 -75 -174q-73 -61 -187 -61q-110 0 -187 44v70q82 -49 180 -49q90 0 143.5 43t53.5 127v51q-65 -86 -187 -86q-107 0 -175 72q-68 74 -68 177t68 177 q67 73 175 73q124 0 187 -86zM552 321v-159q22 -48 69 -78.5t101 -30.5q80 0 133 54q53 55 53 134t-53 134q-52 55 -133 55q-55 0 -102 -30.5t-68 -78.5zM480 167v157q-20 47 -67 76.5t-103 29.5q-80 0 -133 -53t-53 -132t53 -132q52 -52 133 -52q56 0 103 29.5t67 76.5z " />
<glyph horiz-adv-x="1005" d="M552 326v-295q0 -114 -75 -174q-73 -61 -187 -61q-110 0 -187 44v70q82 -49 180 -49q90 0 143.5 43t53.5 127v51q-65 -86 -187 -86q-107 0 -175 72q-68 74 -68 177t68 177q67 73 175 73q124 0 187 -86v291h72v-291q77 86 193 86q89 0 136.5 -52.5t47.5 -148.5v-294h-72 v278q0 149 -137 149q-50 0 -97 -31q-48 -31 -71 -70zM480 167v157q-20 47 -67 76.5t-103 29.5q-80 0 -133 -53t-53 -132t53 -132q52 -52 133 -52q56 0 103 29.5t67 76.5z" />
<glyph horiz-adv-x="650" d="M480 31v51q-65 -86 -187 -86q-107 0 -175 72q-68 74 -68 177t68 177q67 73 175 73q124 0 187 -86v74h72v-452q0 -114 -75 -174q-73 -61 -187 -61q-110 0 -187 44v70q82 -49 180 -49q90 0 143.5 43t53.5 127zM480 167v157q-20 47 -67 76.5t-103 29.5q-80 0 -133 -53 t-53 -132t53 -132q52 -52 133 -52q56 0 103 29.5t67 76.5zM480 613q-14 15 -14 36t14 36q15 15 36 15t36 -15t15 -36t-15 -36q-15 -14 -36 -14t-36 14z" />
<glyph horiz-adv-x="936" d="M480 700h72v-416l230 199h98l-255 -218l291 -265h-103l-261 238v-207q0 -114 -75 -174q-73 -61 -187 -61q-110 0 -187 44v70q82 -49 180 -49q90 0 143.5 43t53.5 127v51q-65 -86 -187 -86q-107 0 -175 72q-68 74 -68 177t68 177q67 73 175 73q124 0 187 -86v291zM480 167 v157q-20 47 -67 76.5t-103 29.5q-80 0 -133 -53t-53 -132t53 -132q52 -52 133 -52q56 0 103 29.5t67 76.5z" />
<glyph horiz-adv-x="1314" d="M480 31v51q-65 -86 -187 -86q-107 0 -175 72q-68 74 -68 177t68 177q67 73 175 73q124 0 187 -86v74h72v-72q60 84 174 84q59 0 99.5 -25t55.5 -70q28 43 76.5 69t109.5 26q81 0 126 -50.5t45 -143.5v-301h-72v285q0 142 -120 142q-44 0 -87.5 -30.5t-65.5 -73.5 q0 -10 0.5 -23t1 -20t0.5 -11v-269h-72v285q0 142 -120 142q-43 0 -86 -30q-42 -28 -65 -70v-296q0 -114 -75 -174q-73 -61 -187 -61q-110 0 -187 44v70q82 -49 180 -49q90 0 143.5 43t53.5 127zM480 167v157q-20 47 -67 76.5t-103 29.5q-80 0 -133 -53t-53 -132t53 -132 q52 -52 133 -52q56 0 103 29.5t67 76.5z" />
<glyph horiz-adv-x="1005" d="M480 31v51q-65 -86 -187 -86q-107 0 -175 72q-68 74 -68 177t68 177q67 73 175 73q124 0 187 -86v74h72v-74q77 86 193 86q89 0 136.5 -52.5t47.5 -148.5v-294h-72v278q0 149 -137 149q-50 0 -97 -31q-48 -31 -71 -70v-295q0 -114 -75 -174q-73 -61 -187 -61 q-110 0 -187 44v70q82 -49 180 -49q90 0 143.5 43t53.5 127zM480 167v157q-20 47 -67 76.5t-103 29.5q-80 0 -133 -53t-53 -132t53 -132q52 -52 133 -52q56 0 103 29.5t67 76.5z" />
<glyph horiz-adv-x="621" d="M96 613q-14 15 -14 36t14 36q15 15 36 15t36 -15t15 -36t-15 -36q-15 -14 -36 -14t-36 14zM96 0v483h72v-74q77 86 193 86q89 0 136.5 -52.5t47.5 -148.5v-294h-72v278q0 149 -137 149q-50 0 -97 -31q-48 -31 -71 -70v-326h-72z" />
<glyph horiz-adv-x="930" d="M96 613q-14 15 -14 36t14 36q15 15 36 15t36 -15t15 -36t-15 -36q-15 -14 -36 -14t-36 14zM168 0h-72v483h72v-72q60 84 174 84q59 0 99.5 -25t55.5 -70q28 43 76.5 69t109.5 26q81 0 126 -50.5t45 -143.5v-301h-72v285q0 142 -120 142q-44 0 -87.5 -30.5t-65.5 -73.5 q0 -10 0.5 -23t1 -20t0.5 -11v-269h-72v285q0 142 -120 142q-43 0 -86 -30q-42 -28 -65 -70v-327z" />
<glyph horiz-adv-x="1085" d="M311 495q72 0 130.5 -31.5t92.5 -86.5q31 55 85.5 86.5t121.5 31.5q119 0 187 -89v294h72v-700h-72v77q-68 -89 -187 -89q-67 0 -120.5 31t-86.5 86q-34 -55 -92 -86t-131 -31q-114 0 -188 74q-73 73 -73 179t73 179q73 75 188 75zM498 241q0 81 -54 135q-52 54 -133 54 t-134 -54q-53 -55 -53 -135q0 -79 53 -134q53 -54 134 -54t134 54q53 55 53 134zM928 162v159q-21 48 -68 78.5t-102 30.5q-81 0 -133 -55q-53 -55 -53 -134q0 -80 53 -135q55 -53 133 -53q54 0 101 30.5t69 78.5z" />
<glyph horiz-adv-x="1084" d="M311 495q71 0 129.5 -31t92.5 -86q70 117 208 117q124 0 187 -86v74h72v-452q0 -114 -75 -174q-73 -61 -187 -61q-110 0 -187 44v70q82 -49 180 -49q90 0 143.5 43t53.5 127v51q-65 -86 -187 -86q-66 0 -119 29.5t-87 82.5q-34 -56 -92.5 -88t-131.5 -32q-114 0 -188 74 q-73 73 -73 179t73 179q73 75 188 75zM311 53q80 0 133 53q54 54 54 135q0 80 -53 135q-53 54 -134 54t-134 -54q-53 -55 -53 -135q0 -79 53 -134q53 -54 134 -54zM928 167v157q-20 47 -67 76.5t-103 29.5q-80 0 -133 -53t-53 -135q0 -76 53 -129q53 -52 133 -52 q56 0 103 29.5t67 76.5z" />
<glyph horiz-adv-x="1085" d="M311 495q72 0 130.5 -31.5t92.5 -86.5q31 55 85.5 86.5t121.5 31.5q119 0 187 -89v77h72v-683h-72v277q-68 -89 -187 -89q-67 0 -120.5 31t-86.5 86q-34 -55 -92 -86t-131 -31q-114 0 -188 74q-73 73 -73 179t73 179q73 75 188 75zM498 241q0 81 -54 135q-52 54 -133 54 t-134 -54q-53 -55 -53 -135q0 -79 53 -134q53 -54 134 -54t134 54q53 55 53 134zM928 162v159q-21 48 -68 78.5t-102 30.5q-81 0 -133 -55q-53 -55 -53 -134q0 -80 53 -135q55 -53 133 -53q54 0 101 30.5t69 78.5z" />
<glyph horiz-adv-x="987" d="M770 -12q-69 0 -127 31.5t-92 85.5q-33 -55 -86.5 -86t-120.5 -31q-119 0 -187 89v-277h-72v683h72v-77q68 89 187 89q67 0 120.5 -31.5t86.5 -86.5q34 55 91.5 86.5t128.5 31.5q84 0 146 -35v-67q-65 37 -136 37q-83 0 -139 -54q-55 -52 -55 -135q0 -82 56 -135t138 -53 q81 0 145 42v-66q-68 -41 -156 -41zM157 321v-159q22 -48 69 -78.5t101 -30.5q79 0 132 53q54 52 54 135q0 79 -53 134q-52 55 -133 55q-55 0 -102 -30.5t-68 -78.5z" />
<glyph horiz-adv-x="1100" d="M943 406v294h72v-700h-72v77q-68 -89 -187 -89q-136 0 -206 115q-33 -54 -86.5 -84.5t-119.5 -30.5q-119 0 -187 89v-277h-72v683h72v-77q68 89 187 89q66 0 119.5 -31t86.5 -85q69 116 206 116q119 0 187 -89zM943 162v159q-21 48 -68 78.5t-102 30.5q-81 0 -133 -55 q-53 -55 -53 -134t53 -134q52 -54 133 -54q54 0 101 30.5t69 78.5zM157 321v-159q22 -48 69 -78.5t101 -30.5q81 0 133 54q53 55 53 134q0 83 -54 135q-53 54 -132 54q-55 0 -102 -30.5t-68 -78.5z" />
<glyph horiz-adv-x="1099" d="M943 31v51q-65 -86 -187 -86q-65 0 -118.5 29t-86.5 81q-31 -55 -85.5 -86.5t-121.5 -31.5q-119 0 -187 89v-277h-72v683h72v-77q68 89 187 89q66 0 119 -30.5t86 -84.5q70 115 207 115q124 0 187 -86v74h72v-452q0 -114 -75 -174q-73 -61 -187 -61q-110 0 -187 44v70 q82 -49 180 -49q90 0 143.5 43t53.5 127zM157 321v-159q22 -48 69 -78.5t101 -30.5q81 0 133 54q53 55 53 134t-53 134q-52 55 -133 55q-55 0 -102 -30.5t-68 -78.5zM943 167v157q-20 47 -67 76.5t-103 29.5q-80 0 -133 -53t-53 -136q0 -75 53 -128q53 -52 133 -52 q56 0 103 29.5t67 76.5z" />
<glyph horiz-adv-x="1084" d="M774 495q114 0 188 -75q73 -73 73 -179t-73 -179q-74 -74 -188 -74q-73 0 -131 31t-92 86q-33 -55 -86.5 -86t-120.5 -31q-119 0 -187 89v-277h-72v683h72v-77q68 89 187 89q67 0 121.5 -31.5t85.5 -86.5q34 55 92.5 86.5t130.5 31.5zM961 241q0 80 -53 135 q-52 54 -134 54q-80 0 -134 -54q-53 -55 -53 -135q0 -79 53 -134q52 -54 134 -54t134 54q53 55 53 134zM157 321v-159q22 -48 69 -78.5t101 -30.5q79 0 132 53q54 54 54 135q0 79 -53 134q-52 55 -133 55q-55 0 -102 -30.5t-68 -78.5z" />
<glyph horiz-adv-x="1100" d="M943 406v77h72v-683h-72v277q-68 -89 -187 -89q-136 0 -206 115q-33 -54 -86.5 -84.5t-119.5 -30.5q-119 0 -187 89v-277h-72v683h72v-77q68 89 187 89q66 0 119.5 -31t86.5 -85q69 116 206 116q119 0 187 -89zM943 162v159q-21 48 -68 78.5t-102 30.5q-81 0 -133 -55 q-53 -55 -53 -134t53 -134q52 -54 133 -54q54 0 101 30.5t69 78.5zM157 321v-159q22 -48 69 -78.5t101 -30.5q81 0 133 54q53 55 53 134q0 83 -54 135q-53 54 -132 54q-55 0 -102 -30.5t-68 -78.5z" />
<glyph horiz-adv-x="1005" d="M552 326v-526h-72v277q-68 -89 -187 -89q-107 0 -175 74t-68 180q0 105 68 179t175 74q119 0 187 -89v77h72v-74q77 86 193 86q89 0 136.5 -52.5t47.5 -148.5v-294h-72v278q0 149 -137 149q-50 0 -97 -31q-48 -31 -71 -70zM480 162v159q-22 48 -69 78.5t-101 30.5 q-80 0 -133 -54q-53 -55 -53 -134t53 -135q53 -54 133 -54q55 0 102 30.5t68 78.5z" />
<glyph horiz-adv-x="624" d="M526 483v-483h-72v74q-77 -86 -193 -86q-89 0 -136.5 52.5t-47.5 148.5v294h72v-278q0 -149 137 -149q50 0 96 30q49 32 72 71v326h72zM454 613q-14 15 -14 36t14 36q15 15 36 15t36 -15t15 -36t-15 -36q-15 -14 -36 -14t-36 14z" />
<glyph horiz-adv-x="1288" d="M454 157v326h72v-72q60 84 174 84q59 0 99.5 -25t55.5 -70q28 43 76.5 69t109.5 26q81 0 126 -50.5t45 -143.5v-301h-72v285q0 142 -120 142q-44 0 -87.5 -30.5t-65.5 -73.5q0 -10 0.5 -23t1 -20t0.5 -11v-269h-72v285q0 142 -120 142q-43 0 -86 -30q-42 -28 -65 -70 v-327h-72v74q-77 -86 -193 -86q-89 0 -136.5 52.5t-47.5 148.5v294h72v-278q0 -149 137 -149q50 0 96 30q49 32 72 71z" />
<glyph horiz-adv-x="979" d="M526 326v-326h-72v74q-77 -86 -193 -86q-89 0 -136.5 52.5t-47.5 148.5v294h72v-278q0 -149 137 -149q50 0 96 30q49 32 72 71v326h72v-74q77 86 193 86q89 0 136.5 -52.5t47.5 -148.5v-294h-72v278q0 149 -137 149q-50 0 -97 -31q-48 -31 -71 -70z" />
<glyph horiz-adv-x="910" d="M454 700h72v-416l230 199h98l-255 -218l291 -265h-103l-261 238v-238h-72v74q-77 -86 -193 -86q-89 0 -136.5 52.5t-47.5 148.5v294h72v-278q0 -149 137 -149q50 0 96 30q49 32 72 71v543z" />
<glyph horiz-adv-x="1240" d="M594 0h-495v700h480v-67h-406v-224h333v-67h-333v-275h373l283 637h69l313 -704h-78l-87 193h-367zM863 611l-159 -353h318z" />
<glyph horiz-adv-x="1239" d="M678 700h73v-304l324 304h98l-344 -320l397 -380h-104l-371 356v-356h-74v588l-229 -306h-45l-231 306v-588h-73v700h73l253 -339z" />
<glyph horiz-adv-x="1426" d="M172 0h-73v700h73l253 -339l253 339h72l253 -339l253 339h72v-700h-73v588l-229 -306h-45l-231 306v-588h-73v588l-229 -306h-45l-231 306v-588z" />
<glyph horiz-adv-x="939" d="M351 0h-74v633h-241v67h559v-67h-244v-224h416v291h74v-700h-74v342h-416v-342z" />
<glyph horiz-adv-x="939" d="M904 633h-241v-633h-74v342h-416v-342h-74v700h74v-291h416v224h-244v67h559v-67z" />
<glyph horiz-adv-x="1216" d="M173 0h-74v700h74v-291h416v291h303q93 0 147 -45.5t54 -124.5q0 -54 -24.5 -93t-67.5 -55q70 -11 111 -61t41 -126q0 -89 -62 -142t-168 -53h-334v342h-416v-342zM663 339v-272h247q78 0 121 36t43 101q0 64 -43 99.5t-121 35.5h-247zM663 633v-229h217q67 0 103.5 29 t36.5 84q0 56 -36.5 86t-103.5 30h-217z" />
<glyph horiz-adv-x="1130" d="M173 0h-74v700h74v-291h416v291h480v-67h-406v-224h333v-67h-333v-275h421v-67h-495v342h-416v-342z" />
<glyph horiz-adv-x="1151" d="M589 700h74v-304l324 304h98l-344 -320l397 -380h-104l-371 356v-356h-74v342h-416v-342h-74v700h74v-291h416v291z" />
<glyph horiz-adv-x="1338" d="M173 0h-74v700h74v-291h416v291h73l253 -339l253 339h72v-700h-73v588l-229 -306h-45l-230 304v-586h-74v342h-416v-342z" />
<glyph horiz-adv-x="1155" d="M663 0h-74v342h-416v-342h-74v700h74v-291h416v291h294q104 0 164 -53t60 -141q0 -90 -60 -143.5t-164 -53.5h-220v-309zM663 633v-257h215q74 0 115 33.5t41 94.5q0 62 -40.5 95.5t-115.5 33.5h-215z" />
<glyph horiz-adv-x="1339" d="M172 0h-73v700h73l253 -339l253 339h73v-291h416v291h74v-700h-74v342h-416v-342h-74v588l-229 -306h-45l-231 306v-588z" />
<glyph horiz-adv-x="1304" d="M172 0h-73v700h73l253 -339l253 339h302q93 0 147 -45.5t54 -124.5q0 -54 -24.5 -93t-67.5 -55q70 -11 111 -61t41 -126q0 -89 -62 -142t-168 -53h-334v588l-229 -306h-45l-231 306v-588zM751 339v-272h247q78 0 121 36t43 101q0 64 -43 99.5t-121 35.5h-247zM751 633 v-229h217q67 0 103.5 29t36.5 84q0 56 -36.5 86t-103.5 30h-217z" />
<glyph horiz-adv-x="1218" d="M172 0h-73v700h73l253 -339l253 339h479v-67h-406v-224h333v-67h-333v-275h421v-67h-495v588l-229 -306h-45l-231 306v-588z" />
<glyph horiz-adv-x="1240" d="M594 0h-495v700h480v-67h-406v-224h333v-67h-333v-275h373l283 637h69l313 -704h-78l-87 193h-367zM863 611l-159 -353h318z" />
<glyph horiz-adv-x="1239" d="M678 700h73v-304l324 304h98l-344 -320l397 -380h-104l-371 356v-356h-74v588l-229 -306h-45l-231 306v-588h-73v700h73l253 -339z" />
<glyph horiz-adv-x="1426" d="M172 0h-73v700h73l253 -339l253 339h72l253 -339l253 339h72v-700h-73v588l-229 -306h-45l-231 306v-588h-73v588l-229 -306h-45l-231 306v-588z" />
<glyph horiz-adv-x="987" d="M770 -12q-69 0 -127 31.5t-92 85.5q-33 -55 -86.5 -86t-120.5 -31q-119 0 -187 89v-277h-72v683h72v-77q68 89 187 89q67 0 120.5 -31.5t86.5 -86.5q34 55 91.5 86.5t128.5 31.5q84 0 146 -35v-67q-65 37 -136 37q-83 0 -139 -54q-55 -52 -55 -135q0 -82 56 -135t138 -53 q81 0 145 42v-66q-68 -41 -156 -41zM157 321v-159q22 -48 69 -78.5t101 -30.5q79 0 132 53q54 52 54 135q0 79 -53 134q-52 55 -133 55q-55 0 -102 -30.5t-68 -78.5z" />
</font>
</defs>
</svg>
